<svg width="24" height="24" viewBox="0 0 24 24" fill="none" xmlns="http://www.w3.org/2000/svg">
<g clip-path="url(#clip0_178_704)">
<path fill-rule="evenodd" clip-rule="evenodd" d="M21.9981 10.393C22.0631 7.50103 20.5891 5.02303 18.4941 3.80103C16.5341 2.65903 14.0721 2.65303 12.0001 4.33803C9.92807 2.65303 7.46607 2.65903 5.50607 3.80103C3.41107 5.02203 1.93707 7.50103 2.00207 10.393V10.419C2.09707 14.018 4.90407 17.194 9.68107 20.031C10.0121 20.229 10.3431 20.429 10.6871 20.604C11.0931 20.81 11.5371 21 12.0001 21C12.4631 21 12.9071 20.81 13.3131 20.604C13.6571 20.429 13.9881 20.229 14.3191 20.031C19.1071 17.187 21.9171 14.002 21.9981 10.393ZM12.0001 6.62303C12.3061 6.62303 12.6111 6.50603 12.8431 6.27203C14.3511 4.74603 16.0931 4.71703 17.4871 5.52903C18.9311 6.37103 20.0471 8.15703 19.9981 10.349C19.9421 12.86 17.9581 15.543 13.2981 18.311C12.8921 18.553 12.4621 18.871 12.0001 19V6.62303Z" fill="#09244B"/>
</g>
<defs>
<clipPath id="clip0_178_704">
<rect width="24" height="24" fill="white"/>
</clipPath>
</defs>
</svg>
