<svg width="24" height="24" viewBox="0 0 24 24" fill="none" xmlns="http://www.w3.org/2000/svg">
<g clip-path="url(#clip0_178_689)">
<path fill-rule="evenodd" clip-rule="evenodd" d="M12.0001 4.33894C14.0721 2.65294 16.5341 2.65894 18.4941 3.80094C20.5891 5.02194 22.0631 7.50094 21.9981 10.3929C21.9191 13.9129 19.2461 17.0269 14.6751 19.8169L13.9541 20.2479C13.7531 20.3669 13.5301 20.4939 13.3121 20.6039C12.9071 20.8099 12.4621 20.9999 12.0001 20.9999C11.5371 20.9999 11.0931 20.8099 10.6871 20.6039C10.5409 20.5291 10.3965 20.4507 10.2541 20.3689L9.68107 20.0309C4.89307 17.1869 2.08307 14.0019 2.00207 10.3929C1.93707 7.50094 3.41107 5.02294 5.50607 3.80094C7.46607 2.65994 9.92807 2.65194 12.0001 4.33894ZM6.51307 5.52994C5.06907 6.37194 3.95307 8.15894 4.00207 10.3499C4.05807 12.8609 6.04207 15.5439 10.7021 18.3129C11.0041 18.4919 11.3061 18.6759 11.5931 18.8219C11.9291 18.9919 12.0711 18.9919 12.4071 18.8219C12.5981 18.7249 12.7971 18.6099 12.9971 18.4919L13.2981 18.3119C15.6491 16.9159 17.3181 15.5419 18.4041 14.1989C17.2959 14.1808 16.2383 13.7321 15.4551 12.9479L14.2651 11.7579L13.5031 12.5199C12.7447 13.2783 11.7161 13.7044 10.6436 13.7044C9.57105 13.7044 8.54246 13.2783 7.78407 12.5199C7.52158 12.2575 7.31337 11.946 7.17131 11.603C7.02925 11.2601 6.95614 10.8926 6.95614 10.5214C6.95614 10.1503 7.02925 9.78274 7.17131 9.43984C7.31337 9.09693 7.52158 8.78537 7.78407 8.52294L10.5551 5.74994C9.19907 4.75394 7.72507 4.82494 6.51307 5.52994ZM13.0111 6.10994L12.8201 6.29594C12.7891 6.33894 12.7541 6.37994 12.7151 6.41794L9.19807 9.93794C9.04321 10.0928 8.95621 10.3029 8.95621 10.5219C8.95621 10.741 9.04321 10.951 9.19807 11.1059C9.58137 11.4891 10.1011 11.7043 10.6431 11.7043C11.185 11.7043 11.7048 11.4891 12.0881 11.1059L12.9541 10.2399C13.1262 10.0678 13.3306 9.9312 13.5556 9.83803C13.7805 9.74485 14.0216 9.69689 14.2651 9.69689C14.5085 9.69689 14.7496 9.74485 14.9746 9.83803C15.1995 9.9312 15.4039 10.0678 15.5761 10.2399L16.8691 11.5339C17.2423 11.9072 17.7338 12.1391 18.2592 12.1898C18.7846 12.2405 19.3113 12.1069 19.7491 11.8119C19.9061 11.3189 19.9881 10.8309 19.9991 10.3489C20.0481 8.15894 18.9311 6.37194 17.4871 5.53094C16.1451 4.74894 14.4801 4.74694 13.0111 6.10994Z" fill="#09244B"/>
</g>
<defs>
<clipPath id="clip0_178_689">
<rect width="24" height="24" fill="white"/>
</clipPath>
</defs>
</svg>
