<svg version="1.1" id="Layer_1" xmlns="http://www.w3.org/2000/svg" xmlns:xlink="http://www.w3.org/1999/xlink" x="0px" y="0px" viewBox="0 0 500 500" style="width: 160px;" xml:space="preserve" data-imageid="accountant-54" imageName="Accountant" class="illustrations_image">
<style type="text/css">
	.st0_accountant-54{fill:#231F20;}
	.st1_accountant-54{fill:#FFFFFF;}
	.st2_accountant-54{fill:#68E1FD;}
	.st3_accountant-54{fill:#D1D3D4;}
	.st4_accountant-54{fill:none;}
</style>
<g id="Chair_accountant-54">
	<path class="st0_accountant-54" d="M385.5,306.9c0,0,28.6-126.4,14.6-135.1s-110.1-16.2-122.2,0S257,288.7,257,288.7L385.5,306.9z"/>
	<path class="st0_accountant-54" d="M385.5,307.6h-0.1l-128.5-18.3c-0.4-0.1-0.6-0.4-0.6-0.8c0.4-4.1,8.8-101.1,21-117.2&#10;&#9;&#9;c7.8-10.3,45.2-10.2,61-9.6c27.9,1,55.2,5.1,62.2,9.5c14.3,8.9-13.1,130.7-14.3,135.9C386.1,307.4,385.8,307.7,385.5,307.6z&#10;&#9;&#9; M257.8,288.1L385,306.1c8-35.5,25.9-126.9,14.8-133.8c-13.3-8.3-109.2-16.3-121.3-0.2C267,187.4,258.5,279.3,257.8,288.1z"/>
</g>
<g id="Character_accountant-54">
	<path class="st0_accountant-54" d="M86.5,333.5C103.1,304.6,170,283,250,283s146.9,21.6,163.5,50.5h4v14c0,35.7-75,64.6-167.5,64.6&#10;&#9;&#9;S82.5,383.2,82.5,347.5v-14L86.5,333.5z"/>
	<path class="st0_accountant-54" d="M250,412.8c-92.7,0-168.2-29.3-168.2-65.3v-14c0-0.4,0.3-0.7,0.7-0.7h0h3.6c8.3-14.1,29-26.9,58.2-36.1&#10;&#9;&#9;c29.7-9.4,67.3-14.5,105.7-14.5s76,5.1,105.7,14.5c29.2,9.1,49.9,22,58.2,36.1h3.6c0.4,0,0.7,0.3,0.7,0.7v0v14&#10;&#9;&#9;C418.2,383.5,342.7,412.8,250,412.8z M83.2,334.2v13.3c0,35.2,74.8,63.9,166.8,63.9s166.8-28.6,166.8-63.9v-13.3h-3.3&#10;&#9;&#9;c-0.2,0-0.5-0.1-0.6-0.4c-16.7-29.1-85.2-50.2-162.9-50.2s-146.2,21.1-162.9,50.2c-0.1,0.2-0.4,0.4-0.6,0.4H83.2z"/>
	<path class="st1_accountant-54" d="M265.3,89.4c0,0,11.5-5.6,19.1,4.4s3,21.4,20,28.5s3.2,27.7,15.6,35.3c0,0-9.4,6.7-17.3,8.8l-5.7-4.6l0.4,5.1&#10;&#9;&#9;c0,0-49.2,22.2-69.6,8.1l-2.6-6.1l-3.8,4.3l-12.6-8.3c0,0,9.8-5.1,6.9-15s-9.3-18.5,2.7-31.2s2.8-20.6,17.6-26.3&#10;&#9;&#9;C245.4,89,255.4,88,265.3,89.4z"/>
	<path class="st0_accountant-54" d="M246.5,180.4c-8,0-14.4-1.6-19-4.8c-0.1-0.1-0.2-0.2-0.2-0.3l-2.1-5.1l-3.1,3.4c-0.2,0.3-0.6,0.3-0.9,0.1&#10;&#9;&#9;l-12.6-8.3c-0.2-0.1-0.3-0.4-0.3-0.6c0-0.2,0.2-0.5,0.4-0.6c0.4-0.2,9.2-5,6.5-14.2c-0.5-1.6-1.1-3.3-1.6-4.9&#10;&#9;&#9;c-2.8-7.9-5.8-16.1,4.5-27c5.3-5.6,6.4-10.1,7.3-14.1c1.1-4.9,2.1-9.1,10.6-12.3c13.8-5.3,27.6-3.3,29.5-3.1&#10;&#9;&#9;c1.6-0.7,12.5-4.9,19.8,4.7c2.8,3.6,3.9,7.4,5.1,11.1c2,6.5,4,12.7,14.6,17.2c9.6,4,9.8,12.4,10,19.8c0.2,6.3,0.3,12.2,5.7,15.5&#10;&#9;&#9;c0.2,0.1,0.3,0.3,0.3,0.6c0,0.2-0.1,0.5-0.3,0.6c-0.4,0.3-9.6,6.8-17.5,8.9c-0.2,0.1-0.5,0-0.6-0.1l-4.4-3.6l0.3,3.4&#10;&#9;&#9;c0,0.3-0.1,0.6-0.4,0.7c-8.8,3.8-17.9,6.9-27.3,9.4C262.6,179,254.6,180.2,246.5,180.4z M228.4,174.5c18.9,12.8,63.3-5.9,68.3-8.1&#10;&#9;&#9;l-0.4-4.6c0-0.4,0.3-0.7,0.7-0.7c0.2,0,0.3,0,0.5,0.1l5.4,4.4c6.3-1.8,13.4-6.4,15.9-8c-5.1-3.8-5.3-10-5.5-16.1&#10;&#9;&#9;c-0.2-7.6-0.4-14.9-9.1-18.6c-11.3-4.7-13.4-11.5-15.4-18.1c-1.1-3.6-2.3-7.3-4.9-10.7c-7.1-9.4-18.1-4.3-18.2-4.2&#10;&#9;&#9;c-0.1,0.1-0.3,0.1-0.4,0.1c-0.1,0-14.5-2.6-28.9,2.9c-7.8,3-8.6,6.4-9.7,11.3c-1,5.6-3.7,10.7-7.6,14.8c-9.7,10.2-7,17.7-4.2,25.5&#10;&#9;&#9;c0.6,1.6,1.2,3.3,1.6,4.9c2.4,8.4-3.8,13.6-6.2,15.2l11.2,7.4l3.4-3.8c0.2-0.2,0.4-0.3,0.6-0.2c0.2,0,0.4,0.2,0.5,0.4L228.4,174.5z&#10;&#9;&#9;"/>
	<path class="st2_accountant-54 targetColor" d="M276.1,169.8c0,0,43.6-0.4,62.4,11.8s8.4,53,5.8,66.6c-2.6,13.6-14.2,66.3-14.2,66.3l-98.7,5.7&#10;&#9;&#9;c0,0-17.4-86.5-18.7-111.7c-0.3-5.3,5.9-25,10.1-28C236.7,170.4,256.4,169,276.1,169.8z" style="fill: rgb(104, 225, 253);"/>
	<path class="st0_accountant-54" d="M286.3,182.4l-10,82.7l-25.6-66.2C250.7,198.9,276.5,192.6,286.3,182.4z"/>
	<path class="st0_accountant-54" d="M276.2,265.8c-0.3,0-0.6-0.2-0.7-0.5L250,199.2c-0.1-0.2-0.1-0.4,0-0.6c0.1-0.2,0.3-0.3,0.4-0.4&#10;&#9;&#9;c0.3-0.1,25.8-6.4,35.3-16.3c0.3-0.3,0.7-0.3,1,0c0.2,0.2,0.2,0.4,0.2,0.6l-10,82.7C276.9,265.5,276.6,265.8,276.2,265.8&#10;&#9;&#9;L276.2,265.8z M251.6,199.4l24.3,62.8l9.5-77.9C275.7,192.8,255.8,198.3,251.6,199.4L251.6,199.4z"/>
	<ellipse class="st1_accountant-54" cx="250" cy="333.5" rx="167.5" ry="64.6"/>
	<path class="st0_accountant-54" d="M250,398.8c-92.7,0-168.2-29.3-168.2-65.3s75.4-65.3,168.2-65.3s168.2,29.3,168.2,65.3S342.7,398.8,250,398.8z&#10;&#9;&#9; M250,269.6c-92,0-166.8,28.6-166.8,63.9S158,397.4,250,397.4s166.8-28.6,166.8-63.9S342,269.6,250,269.6z"/>
	<polygon class="st1_accountant-54" points="212.5,275.8 278.5,301.8 168.4,342 108.6,309.7 &#9;"/>
	<path class="st3_accountant-54" d="M168.4,342.6c-0.1,0-0.2,0-0.3-0.1l-59.8-32.3c-0.2-0.1-0.4-0.4-0.4-0.7c0-0.3,0.2-0.5,0.5-0.6l103.9-33.9&#10;&#9;&#9;c0.2-0.1,0.3-0.1,0.5,0l66,26c0.4,0.1,0.5,0.5,0.4,0.9c-0.1,0.2-0.2,0.3-0.4,0.4l-110.1,40.2C168.6,342.6,168.5,342.7,168.4,342.6z&#10;&#9;&#9; M110.4,309.8l58.1,31.4l108-39.5l-64-25.2L110.4,309.8z"/>
	<polygon class="st1_accountant-54" points="222.9,275 288.9,301 178.9,341.2 119.1,309 &#9;"/>
	<path class="st3_accountant-54" d="M178.9,341.9c-0.1,0-0.2,0-0.3-0.1l-59.8-32.3c-0.3-0.2-0.5-0.6-0.3-1c0.1-0.2,0.2-0.3,0.4-0.3l103.9-33.9&#10;&#9;&#9;c0.2-0.1,0.3-0.1,0.5,0l66,26c0.4,0.1,0.5,0.5,0.4,0.9c-0.1,0.2-0.2,0.3-0.4,0.4l-110.1,40.2C179,341.9,178.9,341.9,178.9,341.9z&#10;&#9;&#9; M120.9,309.1l58.1,31.4L287,301l-64-25.2L120.9,309.1z"/>
	<polygon class="st1_accountant-54" points="233.8,276.4 299.7,302.4 189.7,342.6 129.9,310.3 &#9;"/>
	<path class="st0_accountant-54" d="M189.7,343.3c-0.1,0-0.2,0-0.3-0.1l-59.8-32.3c-0.2-0.1-0.4-0.4-0.4-0.7c0-0.3,0.2-0.5,0.5-0.6l103.9-33.9&#10;&#9;&#9;c0.2-0.1,0.3-0.1,0.5,0l66,26c0.3,0.1,0.4,0.4,0.5,0.7c0,0.3-0.2,0.5-0.5,0.6l-110.1,40.2C189.8,343.3,189.7,343.3,189.7,343.3z&#10;&#9;&#9; M131.7,310.4l58.1,31.4l108-39.5l-64-25.2L131.7,310.4z"/>
	<path class="st3_accountant-54" d="M177.5,328.5c-0.3,0-0.5-0.2-0.6-0.5c-0.1-0.4,0-0.8,0.4-0.9l86.9-33.1c0.4-0.1,0.8,0.1,0.9,0.4&#10;&#9;&#9;c0.1,0.3-0.1,0.7-0.4,0.9l-86.9,33.1C177.6,328.5,177.6,328.5,177.5,328.5z"/>
	<path class="st3_accountant-54" d="M265.6,307.5c-0.1,0-0.2,0-0.3-0.1l-46.2-19.9c-0.4-0.2-0.5-0.6-0.4-0.9c0.1-0.4,0.6-0.5,0.9-0.4c0,0,0,0,0,0&#10;&#9;&#9;l46.2,19.9c0.4,0.1,0.5,0.6,0.4,0.9C266.1,307.4,265.9,307.6,265.6,307.5L265.6,307.5z"/>
	<path class="st3_accountant-54" d="M250.8,313.5c-0.7,0-4.9-2-47.2-23.5c-0.4-0.1-0.5-0.6-0.4-0.9s0.6-0.5,0.9-0.4c0,0,0.1,0,0.1,0.1&#10;&#9;&#9;c12.4,6.3,44.9,22.7,46.5,23.4c0.2,0,0.3,0.2,0.4,0.3c0.2,0.3,0.1,0.8-0.2,1c0,0,0,0,0,0C250.9,313.5,250.9,313.5,250.8,313.5z"/>
	<path class="st3_accountant-54" d="M231,321c-0.1,0-0.2,0-0.3-0.1L183.9,298c-0.3-0.2-0.4-0.6-0.2-1c0.2-0.3,0.5-0.4,0.8-0.3l46.8,22.9&#10;&#9;&#9;c0.3,0.2,0.5,0.6,0.3,0.9C231.5,320.8,231.2,321,231,321z"/>
	<path class="st3_accountant-54" d="M191.9,335.9c-0.1,0-0.2,0-0.3-0.1l-48.4-24.9c-0.3-0.1-0.4-0.4-0.4-0.7c0-0.3,0.2-0.5,0.5-0.6l89.4-28.3&#10;&#9;&#9;c0.2-0.1,0.3-0.1,0.5,0l48.1,19.4c0.3,0.1,0.4,0.4,0.4,0.6c0,0.3-0.2,0.5-0.5,0.6l-89.1,33.9C192,335.9,191.9,335.9,191.9,335.9z&#10;&#9;&#9; M145.3,310.4l46.6,24l87.2-33.1l-46.2-18.6L145.3,310.4z"/>
	<path class="st1_accountant-54" d="M249.4,171.1l0.9,24.2c0,0,2.1,8.9,17.9,5.4c8.5-1.7,15.1-8.5,16.8-17c-1.5-8.4-4-49-5.7-59.5l-10,1.8&#10;&#9;&#9;c-0.2-4.7-1-9.3-2.2-13.8c-1.7,3.5-2.7,7.4-2.9,11.3l-18.1,1.9c-0.4,0.1-0.8,0-1.1-0.1c-0.3-0.3-0.5-0.6-0.6-1l-1.6-4.8l-1.3,5.8&#10;&#9;&#9;c0,1.2-1,2.2-2.2,2.3c-0.1,0-0.2,0-0.3,0l-7.3,0.4c-1,0-2.1,0.2-3,0.7c-2.7,1.9-1.3,12.8-1.1,15.7c0.4,6,1.8,11.9,4.1,17.5&#10;&#9;&#9;C236.4,173.2,249.4,171.1,249.4,171.1z"/>
	<path class="st0_accountant-54" d="M261.4,202.2c-3,0.1-5.9-0.7-8.4-2.3c-1.6-1.1-2.7-2.6-3.3-4.4l-0.9-23.6c-3,0.2-13.5,0.3-17.8-9.8&#10;&#9;&#9;c-2.3-5.7-3.7-11.7-4.1-17.8l-0.1-1c-0.7-7-1-13.6,1.5-15.3c1-0.6,2.2-0.9,3.4-0.8l7.3-0.4c0.4,0,0.9-0.1,1.2-0.3&#10;&#9;&#9;c0.4-0.4,0.6-0.9,0.6-1.4l1.3-5.7c0.1-0.3,0.3-0.5,0.6-0.5c0.3,0,0.6,0.2,0.7,0.5l1.6,4.8c0.1,0.2,0.2,0.5,0.3,0.6&#10;&#9;&#9;c0.2,0.1,0.5,0.1,0.7,0l17.6-1.9c0.3-3.8,1.3-7.5,2.9-11c0.1-0.3,0.4-0.4,0.7-0.4c0.3,0,0.5,0.2,0.6,0.5c1.2,4.3,1.9,8.7,2.2,13.2&#10;&#9;&#9;l9.2-1.7c0.2,0,0.4,0,0.5,0.1c0.2,0.1,0.3,0.3,0.3,0.5c0.8,5.2,1.8,17.5,2.8,29.5c1,12.7,2.1,25.8,2.9,30&#10;&#9;&#9;c-1.6,8.9-8.4,16-17.3,17.8C266.1,201.8,263.7,202.1,261.4,202.2z M249.4,170.4c0.2,0,0.3,0.1,0.4,0.2c0.2,0.1,0.3,0.3,0.3,0.5&#10;&#9;&#9;l0.9,24.2c0.1,0.2,2.1,8.1,17,4.7c8.2-1.6,14.6-8.1,16.2-16.3c-0.8-4.4-1.8-16.9-2.9-30.1c-0.9-11.4-1.9-23.2-2.7-28.7l-9.3,1.7&#10;&#9;&#9;c-0.4,0.1-0.7-0.2-0.8-0.5c0,0,0-0.1,0-0.1c-0.2-4-0.7-7.9-1.6-11.7c-1.2,2.9-1.8,6.1-2,9.2c0,0.3-0.3,0.6-0.6,0.7l-18.2,1.9&#10;&#9;&#9;c-0.5,0.1-1.1,0-1.6-0.2c-0.5-0.3-0.8-0.8-0.9-1.4l-0.8-2.4l-0.8,3.3c0,1.6-1.4,2.9-3,2.8c-0.1,0-0.1,0-0.2,0l-7.3,0.4&#10;&#9;&#9;c-0.9,0-1.8,0.2-2.6,0.6c-2.1,1.4-1.2,10.9-0.9,14l0.1,1.1c0.4,5.9,1.8,11.8,4,17.3c4.5,10.7,16.5,8.9,17,8.9L249.4,170.4z"/>
	<path class="st0_accountant-54" d="M249.9,183.8c5.6-0.3,10.7-3.3,13.6-8.1c5.1-8.2,3.2-13.5,3.2-13.5s-6.8,8.4-17.3,8.9L249.9,183.8z"/>
	<path class="st0_accountant-54" d="M249.9,184.5L249.9,184.5c-0.4,0-0.7-0.3-0.7-0.7l-0.5-12.7c0-0.4,0.3-0.7,0.7-0.7c0,0,0,0,0,0&#10;&#9;&#9;c10-0.5,16.8-8.5,16.8-8.6c0.2-0.3,0.7-0.3,1-0.1c0.1,0.1,0.2,0.2,0.2,0.3c0.1,0.2,1.9,5.7-3.3,14.1&#10;&#9;&#9;C261.1,181.1,255.8,184.2,249.9,184.5z M250.1,171.7l0.4,11.3c5.1-0.5,9.6-3.4,12.4-7.7c3.4-5.5,3.6-9.6,3.4-11.6&#10;&#9;&#9;C264.1,166,258.3,171.1,250.1,171.7z"/>
	<path class="st1_accountant-54" d="M247.5,135.6c0,0-2.4,12.6,0,14.3s6.6-1.5,6.6-1.5"/>
	<path class="st0_accountant-54" d="M249.1,151c-0.7,0-1.5-0.2-2.1-0.6c-2.6-1.9-0.6-12.8-0.2-15c0.1-0.4,0.4-0.6,0.8-0.6c0.4,0.1,0.6,0.4,0.6,0.8&#10;&#9;&#9;c-1.1,5.8-1.6,12.7-0.3,13.6c1.6,1.1,4.7-0.7,5.8-1.5c0.3-0.3,0.7-0.3,1,0s0.3,0.7,0,1c0,0-0.1,0.1-0.1,0.1&#10;&#9;&#9;C254.4,149,251.6,151,249.1,151z"/>
	<ellipse transform="matrix(0.985 -0.1723 0.1723 0.985 -19.9508 46.4861)" class="st0_accountant-54" cx="257.8" cy="138.2" rx="2" ry="2.9"/>
	<ellipse transform="matrix(0.985 -0.1723 0.1723 0.985 -20.6963 42.882)" class="st0_accountant-54" cx="236.7" cy="140.7" rx="2" ry="2.9"/>
	<path class="st0_accountant-54" d="M256.2,143.2c-2.4,0-4.5-1.8-4.8-4.2l-0.9-7.2c0-0.4,0.2-0.7,0.6-0.8c0,0,0,0,0,0l19.1-2.4&#10;&#9;&#9;c0.4,0,0.7,0.2,0.8,0.6l0.9,7.2c0.3,2.6-1.5,5.1-4.2,5.4l-10.9,1.4l0,0L256.2,143.2z M256.8,142.5L256.8,142.5z M252,132.3l0.8,6.5&#10;&#9;&#9;c0.2,1.9,1.9,3.2,3.8,3l10.9-1.4c0.9-0.1,1.7-0.6,2.3-1.3c0.6-0.7,0.8-1.6,0.7-2.5l-0.8-6.5L252,132.3z"/>
	<path class="st0_accountant-54" d="M228.7,147c-2.4,0-4.5-1.8-4.8-4.2l-0.9-7.2c-0.1-0.4,0.2-0.7,0.6-0.8c0,0,0,0,0,0l19.1-2.4&#10;&#9;&#9;c0.4,0,0.7,0.2,0.8,0.6l0.9,7.2c0.3,2.6-1.5,5-4.1,5.4c0,0,0,0,0,0l-10.9,1.4C229.1,147,228.9,147,228.7,147z M224.5,136.1l0.8,6.5&#10;&#9;&#9;c0.2,1.9,1.9,3.2,3.8,3c0,0,0,0,0.1,0l0,0l10.9-1.4c1.9-0.2,3.2-1.9,3-3.8c0,0,0,0,0,0l-0.8-6.5L224.5,136.1z"/>
	<path class="st0_accountant-54" d="M284.5,136.3L284.5,136.3l-13.6-1.3c-0.4-0.1-0.6-0.4-0.6-0.8c0.1-0.3,0.4-0.6,0.7-0.6l13.5,1.2&#10;&#9;&#9;c0.4,0,0.7,0.3,0.7,0.7C285.2,135.9,284.8,136.2,284.5,136.3L284.5,136.3z"/>
	<path class="st1_accountant-54" d="M274.1,143.3c0-1.3,0.3-2.6,1.1-3.7c0.9-1.8,2.2-3.4,3.7-4.8c1.5-1.4,3.5-2.1,5.6-2.2c4,0,7.4,3.8,7.6,7.8&#10;&#9;&#9;s-2.2,7.8-5.5,10c-2.7,1.8-6.2,2.5-9.2,1.4"/>
	<path class="st0_accountant-54" d="M280.5,153.1c-1.1,0-2.3-0.2-3.3-0.6c-0.4-0.1-0.5-0.6-0.4-0.9c0.1-0.4,0.6-0.5,0.9-0.4c0,0,0,0,0,0&#10;&#9;&#9;c2.9,1,6.1,0.5,8.5-1.3c3.3-2,5.2-5.5,5.2-9.4c-0.2-3.8-3.5-7.1-6.9-7.1h0c-1.9,0.1-3.7,0.8-5.1,2c-1.5,1.3-2.7,2.9-3.6,4.6&#10;&#9;&#9;c-0.7,0.9-1,2.1-1,3.2c0,0.4-0.2,0.7-0.6,0.8c0,0,0,0,0,0c-0.4,0-0.7-0.2-0.8-0.6c0,0,0,0,0,0c-0.1-1.4,0.3-2.9,1.2-4.1&#10;&#9;&#9;c1-1.9,2.3-3.6,3.9-5c1.7-1.5,3.8-2.3,6-2.3c4.2,0,8,3.9,8.3,8.4c0.3,4-2,8.2-5.8,10.6C285.1,152.3,282.8,153,280.5,153.1z"/>
	<path class="st0_accountant-54" d="M243.4,136.3c-0.2,0-0.4-0.1-0.5-0.2c-0.3-0.3-0.2-0.7,0.1-1c0,0,0,0,0,0c2.6-2.6,6.7-2.6,9.3,0c0,0,0,0,0,0&#10;&#9;&#9;c0.3,0.3,0.3,0.7,0,1c-0.3,0.3-0.7,0.3-1,0c0,0,0,0,0,0c-0.1-0.1-3.3-3.4-7.4,0.1C243.7,136.2,243.5,136.3,243.4,136.3z"/>
	<path class="st0_accountant-54" d="M241.8,160.2c-0.4,0-0.7-0.3-0.7-0.7c0-0.4,0.3-0.7,0.7-0.7c0.1,0,14.3-0.1,22.1-8.2c0.3-0.3,0.7-0.3,1,0&#10;&#9;&#9;s0.3,0.7,0,1C256.7,160.1,242.4,160.2,241.8,160.2z"/>
	<polygon class="st1_accountant-54" points="234.6,376.7 301.6,347.8 248.1,328.2 206.7,345.3 173.8,346.4 &#9;"/>
	<path class="st0_accountant-54" d="M234.6,377.4c-0.1,0-0.2,0-0.3-0.1L173.4,347c-0.3-0.2-0.5-0.6-0.3-0.9c0.1-0.2,0.4-0.4,0.6-0.4l32.9-1.1&#10;&#9;&#9;l41.2-17c0.2-0.1,0.3-0.1,0.5,0l53.5,19.5c0.3,0.1,0.4,0.4,0.5,0.6c0,0.3-0.2,0.6-0.4,0.7l-66.9,28.9&#10;&#9;&#9;C234.8,377.4,234.7,377.4,234.6,377.4z M176.6,347l58.1,29l65-28.1L248.1,329L207,346c-0.1,0-0.2,0-0.2,0L176.6,347z"/>
	<polygon class="st1_accountant-54" points="301.6,347.8 302.3,354.6 233.8,384.9 232.3,369.9 254.5,368.1 &#9;"/>
	<path class="st0_accountant-54" d="M233.8,385.6c-0.1,0-0.2,0-0.4-0.1c-0.2-0.1-0.3-0.3-0.4-0.5l-1.5-15c0-0.2,0-0.4,0.2-0.5&#10;&#9;&#9;c0.1-0.1,0.3-0.2,0.5-0.2l22.2-1.7l46.9-20.3c0.2-0.1,0.4-0.1,0.6,0c0.2,0.1,0.3,0.3,0.3,0.5l0.7,6.8c0,0.3-0.1,0.6-0.4,0.7&#10;&#9;&#9;L234,385.5C233.9,385.5,233.8,385.6,233.8,385.6z M233,370.5l1.3,13.3l67.2-29.7l-0.5-5.3l-46.2,20c-0.1,0-0.1,0-0.2,0L233,370.5z"/>
	<polygon class="st1_accountant-54" points="233.8,384.9 175.1,359.2 173.8,346.4 232.3,369.9 &#9;"/>
	<path class="st0_accountant-54" d="M233.8,385.6c-0.1,0-0.2,0-0.3-0.1l-58.7-25.6c-0.2-0.1-0.4-0.3-0.4-0.6l-1.3-12.8c0-0.2,0.1-0.5,0.3-0.6&#10;&#9;&#9;c0.2-0.1,0.5-0.2,0.7-0.1l58.5,23.5c0.2,0.1,0.4,0.3,0.4,0.6l1.5,15c0,0.2-0.1,0.5-0.3,0.6C234.1,385.5,233.9,385.6,233.8,385.6z&#10;&#9;&#9; M175.7,358.8l57.2,25l-1.3-13.4l-57-22.9L175.7,358.8z"/>
	<path class="st3_accountant-54" d="M231.9,366.5c-0.1,0-0.2,0-0.3,0l-38.3-15.7c-0.4-0.2-0.5-0.6-0.4-0.9c0.1-0.2,0.3-0.4,0.6-0.4l16.2-1.6&#10;&#9;&#9;c0.1,0,0.2,0,0.3,0l37.7,15.8c0.4,0.2,0.5,0.6,0.4,0.9c-0.1,0.2-0.3,0.4-0.6,0.4L231.9,366.5L231.9,366.5z M196.4,350.5l35.6,14.6&#10;&#9;&#9;l12.7-1.3l-35-14.6L196.4,350.5z"/>
	<path class="st3_accountant-54" d="M255.9,363.2L255.9,363.2c-0.6-0.1-27.9-11.5-39.6-16.4c-0.3-0.1-0.4-0.4-0.4-0.6c0-0.3,0.2-0.5,0.4-0.6&#10;&#9;&#9;l32.5-13.4c0.2-0.1,0.4-0.1,0.5,0l39.7,15.7c0.4,0.2,0.5,0.6,0.4,0.9c-0.1,0.2-0.2,0.3-0.4,0.4&#10;&#9;&#9;C258.9,362.4,256.4,363.2,255.9,363.2z M218.4,346.2c13.1,5.5,35.4,14.7,37.6,15.6c2-0.7,18.9-8,31-13.2l-37.9-15L218.4,346.2z"/>
	<path class="st3_accountant-54" d="M266.8,358.1c-0.1,0-0.2,0-0.3-0.1l-39-15.8c-0.4,0-0.7-0.3-0.7-0.7c0-0.4,0.3-0.7,0.7-0.7&#10;&#9;&#9;c0.1,0,0.3,0.1,0.4,0.2l39,15.8c0.4,0.1,0.5,0.5,0.4,0.9c0,0,0,0,0,0C267.3,358,267,358.1,266.8,358.1z"/>
	<path class="st3_accountant-54" d="M279.5,352.6c-0.1,0-0.2,0-0.3-0.1c-0.7-0.3-25.8-10.3-39-15.5c-0.4-0.1-0.5-0.5-0.4-0.9&#10;&#9;&#9;c0.1-0.4,0.6-0.5,0.9-0.4c0,0,0,0,0,0c1.6,0.6,38.3,15.1,39.1,15.5c0.3,0.2,0.5,0.6,0.3,0.9c0,0,0,0,0,0&#10;&#9;&#9;C280,352.4,279.8,352.6,279.5,352.6z"/>
	<path class="st3_accountant-54" d="M225.4,350.6c-0.4,0-0.7-0.3-0.7-0.7c0-0.3,0.2-0.5,0.4-0.6l33.8-13.1c0.4-0.1,0.8,0,0.9,0.4c0,0,0,0,0,0&#10;&#9;&#9;c0.1,0.4,0,0.8-0.4,0.9l-33.8,13C225.6,350.5,225.5,350.6,225.4,350.6z"/>
	<path class="st3_accountant-54" d="M241.2,357.1c-0.4,0-0.7-0.3-0.7-0.7c0-0.3,0.2-0.5,0.4-0.6c12.9-5,32.4-12.6,34-13.7c0.1-0.2,0.3-0.3,0.5-0.3&#10;&#9;&#9;l0,0c0.4,0,0.7,0.3,0.7,0.7v0c0,0.6,0,1.2-34.7,14.5C241.4,357.1,241.3,357.2,241.2,357.1z M275.4,342.6L275.4,342.6z"/>
	<path class="st1_accountant-54" d="M314.5,319.3c-0.2,0.7-22.4,7.9-22.4,7.9s-15.2-6.9-24.7-5.7c-10.6,1.4-20.4,4.1-28.2,11.9&#10;&#9;&#9;c-0.6,0.6-1.3,1.5-1,2.4s1.5,1.1,2.4,1.1c4.8-0.4,8.4-4.8,13.1-5.8c-2.5,1.3-4.9,2.8-7.1,4.5c-2.2,1.8-3.8,4.2-4.6,6.9&#10;&#9;&#9;c-0.2,0.5-0.2,1.1,0.1,1.6c0.4,0.8,1.6,0.8,2.4,0.6c4.5-1,7.6-5,11.6-7.3c-2.3,1.7-4.5,3.6-6.4,5.7c-1.9,2.2-3,5-3,7.8&#10;&#9;&#9;c0,1.1,0.7,2.4,1.7,2.1c0.3-0.1,0.5-0.3,0.7-0.5c3.2-3,6.2-6.3,9-9.8c-1.5,2.5-2.2,5.4-1.9,8.2c0.1,1.9,1,3.8,2.5,5&#10;&#9;&#9;c1.6,1,4.2,0.6,4.9-1.2c0.4-1,0.1-2.2,0.1-3.3c0.2-4.5,7-6.4,10.6-5.9c6.2,0.8,20.1,4,23.5,4.1s30.5-12.3,30.5-12.3"/>
	<path class="st0_accountant-54" d="M260.7,357.3c-0.8,0-1.7-0.2-2.4-0.7c-2.1-1.4-2.7-4-2.8-5.5c-0.2-1.5-0.1-3,0.3-4.5c-2,2.2-4.1,4.4-6.2,6.5&#10;&#9;&#9;c-0.3,0.3-0.6,0.5-1,0.6c-0.5,0.2-1,0.1-1.5-0.2c-0.7-0.6-1.2-1.6-1.2-2.5c0-2.6,0.8-5.1,2.3-7.1c-1.1,0.7-2.4,1.2-3.7,1.5&#10;&#9;&#9;c-1.5,0.3-2.6,0-3.2-0.9c-0.3-0.7-0.4-1.4-0.1-2.1c0.6-2.3,1.8-4.3,3.4-6c-1.3,0.6-2.7,1-4.1,1.2c-1.2,0.1-2.7-0.3-3.2-1.5&#10;&#9;&#9;s0.8-2.7,1.2-3.1c8.6-8.5,19.3-10.9,28.7-12.1c9-1.1,22.8,4.7,24.8,5.6c8-2.6,20.6-6.8,21.9-7.6c0.2-0.2,0.5-0.3,0.8-0.2&#10;&#9;&#9;c0.4,0.1,0.6,0.5,0.4,0.9c-0.1,0.4-0.4,1.1-22.9,8.3c-0.2,0.1-0.3,0.1-0.5,0c-0.1-0.1-15.2-6.8-24.3-5.6s-19.5,3.5-27.8,11.7&#10;&#9;&#9;c-0.7,0.7-1,1.2-0.9,1.6s1,0.7,1.7,0.6c2.4-0.2,4.5-1.5,6.8-2.9c1.9-1.3,4-2.3,6.3-2.9c0.3-0.1,0.7,0.1,0.8,0.4&#10;&#9;&#9;c0.1,0.3,0,0.7-0.3,0.9c-2.5,1.2-4.8,2.7-7,4.5c-2.1,1.7-3.6,4-4.4,6.6c-0.1,0.3-0.1,0.7,0,1.1c0.2,0.4,1.1,0.4,1.7,0.3&#10;&#9;&#9;c2.7-0.6,4.9-2.3,7.2-4.1c1.3-1.1,2.7-2.1,4.2-3c0.3-0.2,0.7-0.1,0.9,0.2c0.2,0.3,0.1,0.7-0.1,1c-2.3,1.6-4.4,3.5-6.2,5.6&#10;&#9;&#9;c-1.8,2-2.8,4.7-2.9,7.4c0,0.5,0.2,1,0.6,1.4c0.1,0,0.2,0,0.2,0c0.2-0.1,0.3-0.2,0.4-0.3c3.2-3,6.2-6.3,9-9.7&#10;&#9;&#9;c0.2-0.3,0.7-0.4,1-0.2c0,0,0,0,0,0c0.3,0.2,0.4,0.6,0.2,0.9c-1.4,2.3-2.1,5.1-1.8,7.8c0.1,1.2,0.6,3.4,2.2,4.4&#10;&#9;&#9;c0.8,0.5,1.7,0.6,2.5,0.3c0.6-0.2,1.1-0.6,1.3-1.1c0.2-0.6,0.2-1.2,0.1-1.8c0-0.4,0-0.8,0-1.2c0.1-1.6,0.9-3,2.2-4&#10;&#9;&#9;c2.7-2,5.9-2.9,9.2-2.5c2.8,0.4,7.2,1.2,11.5,2.1c5,1,10.1,2,11.9,2l0,0c2.5,0,19.4-7.3,30.1-12.3c0.4-0.2,0.8,0,0.9,0.3&#10;&#9;&#9;s0,0.8-0.3,0.9c-2.8,1.3-27.3,12.5-30.8,12.4c-1.9-0.1-6.9-1-12.1-2c-4.3-0.8-8.7-1.7-11.4-2c-2.9-0.3-5.8,0.5-8.1,2.2&#10;&#9;&#9;c-1,0.7-1.6,1.8-1.7,3c0,0.4,0,0.7,0,1.1c0.1,0.8,0,1.6-0.2,2.4c-0.4,1-1.2,1.7-2.2,2C261.7,357.2,261.2,357.3,260.7,357.3z"/>
	<path class="st2_accountant-54 targetColor" d="M342,185.1c0,0,67.5,86.6,46.8,112.3S306,347.5,306,347.5L290.6,319c0,0,59.4-28.6,60.7-34.4l-43.7-51.3&#10;&#9;&#9;C307.7,233.3,318.1,180.7,342,185.1z" style="fill: rgb(104, 225, 253);"/>
	<line class="st4_accountant-54" x1="350.7" y1="283" x2="317.5" y2="245"/>
	<path class="st0_accountant-54" d="M350.7,283.7c-0.2,0-0.4-0.1-0.5-0.2l-33.2-38c-0.3-0.3-0.2-0.7,0.1-1c0.3-0.3,0.7-0.2,1,0.1l0,0l33.2,38&#10;&#9;&#9;c0.3,0.3,0.2,0.7-0.1,1C351.1,283.6,350.9,283.7,350.7,283.7z"/>
	<path class="st0_accountant-54" d="M264.4,261c-0.2,0-0.4-0.1-0.5-0.2c-0.2-0.2-17-17.6-20.4-21.4s3.4-12.2,5.5-14.6c-2.3-1.7-10.3-7.8-11.3-8.6&#10;&#9;&#9;c-0.5-0.4-1.6-1.3,9.3-22.2c0.2-0.3,0.6-0.5,0.9-0.3c0.3,0.2,0.5,0.6,0.3,0.9l0,0c-4.6,8.9-9.4,18.8-9.5,20.6&#10;&#9;&#9;c1.8,1.4,11.6,8.9,11.7,8.9c0.2,0.1,0.3,0.3,0.3,0.5c0,0.2,0,0.4-0.2,0.5c-2.5,2.8-8.4,10.5-6,13.3c3.3,3.8,20.2,21.2,20.4,21.4&#10;&#9;&#9;c0.3,0.3,0.3,0.7,0,1c0,0,0,0,0,0C264.7,260.9,264.6,261,264.4,261z M238.7,215.3L238.7,215.3z"/>
	<path class="st0_accountant-54" d="M292.2,259c-0.4,0-0.7-0.3-0.7-0.7c0-0.1,0-0.3,0.1-0.4c5.5-7.5,19.9-27.9,19.9-32c0-3.9-11-10.2-15.2-12.3&#10;&#9;&#9;c-0.2-0.1-0.3-0.3-0.3-0.6c0-0.3,0.1-0.5,0.4-0.6c0.1-0.1,14.2-7.8,17.3-11.7c0.1-0.2,0.2-0.3,0.1-0.5&#10;&#9;&#9;c-0.7-3.5-14.3-11.7-25.6-17.8l-0.1-0.1c-0.3-0.2-0.5-0.6-0.3-1c0.2-0.3,0.6-0.5,1-0.3l0.1,0.1c7.6,4,25.3,13.9,26.4,18.7&#10;&#9;&#9;c0.1,0.6,0,1.2-0.4,1.7c-2.8,3.5-13.1,9.5-16.6,11.4c3.9,2,14.8,8.2,14.8,13c0,5.3-18.1,30-20.1,32.8&#10;&#9;&#9;C292.7,259,292.4,259,292.2,259z"/>
	<polygon class="st1_accountant-54" points="231,305.2 225.6,306.9 213.6,264.1 218.9,262.5 &#9;"/>
	<path class="st0_accountant-54" d="M225.6,307.5c-0.3,0-0.6-0.2-0.6-0.5l-12.1-42.7c-0.1-0.4,0.1-0.7,0.5-0.9l5.3-1.6c0.2-0.1,0.4,0,0.5,0.1&#10;&#9;&#9;c0.2,0.1,0.3,0.2,0.3,0.4l12.1,42.7c0.1,0.4-0.1,0.8-0.5,0.9l-5.3,1.6C225.8,307.5,225.7,307.5,225.6,307.5z M214.4,264.6&#10;&#9;&#9;l11.7,41.4l4-1.2l-11.7-41.4L214.4,264.6z"/>
	<polygon class="st1_accountant-54" points="231,305.2 225.6,306.9 230.9,315.3 &#9;"/>
	<path class="st0_accountant-54" d="M230.9,316c-0.2,0-0.5-0.1-0.6-0.3l-5.3-8.5c-0.1-0.2-0.1-0.4-0.1-0.6c0.1-0.2,0.3-0.4,0.5-0.4l5.3-1.6&#10;&#9;&#9;c0.2-0.1,0.4,0,0.6,0.1c0.2,0.1,0.3,0.3,0.3,0.6v10.1c0,0.3-0.2,0.6-0.5,0.7C231,316,231,316,230.9,316z M226.7,307.2l3.5,5.6v-6.7&#10;&#9;&#9;L226.7,307.2z"/>
	<path class="st1_accountant-54" d="M190.2,280.9c0,0-17.1,3.8-20.6,12.9c0,0,27.3,12.9,31.8,14s33-0.6,33.1-5.7s-1.9-11.6-4-13.5&#10;&#9;&#9;s-11.1-1.7-11.1-1.7c-0.2-1.8-0.6-3.6-1.4-5.3C214.3,281.9,200.7,285,190.2,280.9z"/>
	<path class="st0_accountant-54" d="M206.3,308.8c-1.7,0.1-3.4-0.1-5.1-0.3c-4.6-1.1-30.9-13.5-32-14c-0.3-0.2-0.5-0.5-0.4-0.9&#10;&#9;&#9;c3.6-9.4,20.4-13.2,21.1-13.3c0.1,0,0.3,0,0.4,0c8.4,3.3,18.9,1.8,24.5,1.1c1.3-0.2,2.3-0.3,3-0.4c0.3,0,0.5,0.1,0.7,0.4&#10;&#9;&#9;c0.7,1.6,1.2,3.2,1.4,4.9c2.2,0,9.1,0.1,11,1.9c2.3,2.1,4.3,8.8,4.2,14c-0.1,0.8-0.5,1.6-1.2,2.1&#10;&#9;&#9;C230,307.4,214.8,308.8,206.3,308.8z M170.4,293.5c4.1,1.9,27,12.7,31.1,13.7s26.8-0.3,31.6-4c0.4-0.2,0.6-0.6,0.7-1&#10;&#9;&#9;c0.1-5.2-2-11.3-3.8-13c-1.4-1.3-7.2-1.6-10.6-1.5c-0.4,0-0.7-0.3-0.7-0.6c-0.2-1.6-0.5-3.1-1.1-4.6c-0.6,0.1-1.5,0.2-2.5,0.3&#10;&#9;&#9;c-5.7,0.8-16.3,2.2-25-1.1C188.3,282.1,174.1,285.7,170.4,293.5z"/>
	<line class="st4_accountant-54" x1="215" y1="268.8" x2="220.2" y2="266.7"/>
	<path class="st0_accountant-54" d="M215,269.5c-0.4,0-0.7-0.3-0.7-0.7c0-0.3,0.2-0.5,0.4-0.6l5.2-2c0.3-0.2,0.8,0,0.9,0.3c0.2,0.3,0,0.8-0.3,0.9&#10;&#9;&#9;c0,0-0.1,0-0.1,0l-5.2,2C215.2,269.4,215.1,269.5,215,269.5z"/>
	<line class="st4_accountant-54" x1="226.9" y1="308.9" x2="230.9" y2="308.1"/>
	<path class="st0_accountant-54" d="M226.9,309.6c-0.3,0-0.6-0.2-0.7-0.6c-0.1-0.4,0.2-0.7,0.6-0.8c0,0,0,0,0,0l4-0.7c0.4-0.1,0.8,0.1,0.9,0.5&#10;&#9;&#9;c0.1,0.4-0.1,0.8-0.5,0.9c0,0-0.1,0-0.1,0L226.9,309.6L226.9,309.6z"/>
	<path class="st2_accountant-54 targetColor" d="M222.7,180.6c0,0-122.4,86.8-108.1,100.4s71.6,24.3,71.6,24.3l13.1-25.2l-28-13.9c8-5.2,51.4-33.1,51.4-33.1&#10;&#9;&#9;L222.7,180.6z" style="fill: rgb(104, 225, 253);"/>
	<line class="st4_accountant-54" x1="218.8" y1="255.6" x2="212.6" y2="206"/>
	<path class="st0_accountant-54" d="M218.8,256.3c-0.4,0-0.7-0.3-0.7-0.6l-6.2-49.6c0-0.4,0.2-0.7,0.6-0.8s0.7,0.2,0.8,0.6l6.2,49.6&#10;&#9;&#9;C219.6,255.9,219.3,256.2,218.8,256.3C218.9,256.3,218.9,256.3,218.8,256.3L218.8,256.3z"/>
	<path class="st3_accountant-54" d="M211.3,328.5c-0.1,0-0.2,0-0.3-0.1l-47.4-24c-0.4-0.1-0.5-0.5-0.4-0.9s0.5-0.5,0.9-0.4c0.1,0,0.1,0,0.1,0.1&#10;&#9;&#9;l47.4,24c0.3,0.2,0.5,0.6,0.3,0.9C211.9,328.3,211.6,328.5,211.3,328.5L211.3,328.5z"/>
	<polygon class="st1_accountant-54" points="348.6,346.9 306,366.3 337.5,380.8 380.4,359.4 &#9;"/>
	<path class="st3_accountant-54" d="M337.5,381.5c-0.1,0-0.2,0-0.3-0.1L305.7,367c-0.4-0.2-0.5-0.6-0.3-0.9c0.1-0.1,0.2-0.3,0.3-0.3l42.6-19.5&#10;&#9;&#9;c0.2-0.1,0.4-0.1,0.5,0l31.8,12.5c0.3,0.1,0.4,0.3,0.4,0.6c0,0.3-0.1,0.5-0.4,0.7l-42.9,21.3C337.7,381.4,337.6,381.5,337.5,381.5z&#10;&#9;&#9; M307.7,366.3l29.8,13.7l41.2-20.5l-30.1-11.9L307.7,366.3z"/>
	<polygon class="st1_accountant-54" points="335.9,348.7 293.3,368.2 324.8,382.6 367.7,361.2 &#9;"/>
	<path class="st3_accountant-54" d="M324.8,383.3c-0.1,0-0.2,0-0.3-0.1L293,368.8c-0.4-0.2-0.5-0.6-0.3-0.9c0.1-0.2,0.2-0.3,0.3-0.3l42.6-19.5&#10;&#9;&#9;c0.2-0.1,0.4-0.1,0.5,0l31.9,12.6c0.3,0.1,0.4,0.3,0.4,0.6c0,0.3-0.1,0.5-0.4,0.7l-42.9,21.4C325,383.3,324.9,383.3,324.8,383.3z&#10;&#9;&#9; M295,368.2l29.8,13.7l41.2-20.5l-30.1-11.9L295,368.2z"/>
	<line class="st4_accountant-54" x1="306.9" y1="366.3" x2="327.3" y2="375.5"/>
	<path class="st3_accountant-54" d="M327.3,376.2c-0.1,0-0.2,0-0.3-0.1l-20.3-9.1c-0.4-0.2-0.5-0.6-0.4-0.9c0,0,0,0,0,0c0.2-0.4,0.6-0.5,0.9-0.4&#10;&#9;&#9;l20.3,9.2c0.4,0.2,0.5,0.6,0.4,0.9c0,0,0,0,0,0C327.8,376.1,327.5,376.2,327.3,376.2z"/>
	<line class="st4_accountant-54" x1="314.5" y1="362.5" x2="334.8" y2="371.7"/>
	<path class="st3_accountant-54" d="M334.8,372.4c-0.1,0-0.2,0-0.3-0.1l-20.3-9.2c-0.4-0.2-0.5-0.6-0.4-0.9s0.6-0.5,0.9-0.4l20.3,9.2&#10;&#9;&#9;c0.4,0.2,0.5,0.6,0.4,0.9c0,0,0,0,0,0C335.3,372.3,335.1,372.4,334.8,372.4z"/>
	<line class="st4_accountant-54" x1="321.9" y1="359.2" x2="342.2" y2="368.4"/>
	<path class="st3_accountant-54" d="M342.2,369.1c-0.1,0-0.2,0-0.3-0.1l-20.3-9.2c-0.4-0.2-0.5-0.6-0.4-0.9c0.2-0.4,0.6-0.5,0.9-0.4l20.3,9.2&#10;&#9;&#9;c0.3,0.2,0.5,0.6,0.4,0.9C342.7,368.9,342.5,369.1,342.2,369.1z"/>
	<line class="st4_accountant-54" x1="329.7" y1="354.6" x2="350" y2="363.8"/>
	<path class="st3_accountant-54" d="M350,364.5c-0.1,0-0.2,0-0.3-0.1l-20.3-9.2c-0.3-0.2-0.4-0.6-0.3-1c0.2-0.3,0.5-0.4,0.8-0.3l20.3,9.2&#10;&#9;&#9;c0.4,0.2,0.5,0.6,0.4,0.9C350.6,364.4,350.3,364.5,350,364.5L350,364.5z"/>
</g>
</svg>