<svg version="1.1" id="Layer_1" xmlns="http://www.w3.org/2000/svg" xmlns:xlink="http://www.w3.org/1999/xlink" x="0px" y="0px" viewBox="0 0 500 500" style="width: 149px;" xml:space="preserve" data-imageid="coo-91" imageName="COO" class="illustrations_image">
<style type="text/css">
	.st0_coo-91{fill:#231F20;}
	.st1_coo-91{fill:#68E1FD;}
	.st2_coo-91{fill:#FFFFFF;}
	.st3_coo-91{fill:#D1D3D4;}
	.st4_coo-91{fill:none;}
</style>
<g id="Chair_coo-91">
	<path class="st0_coo-91" d="M191.1,172.6h87.1c18.6,0,33.6,15,33.6,33.6c0,0,0,0,0,0v112.7l0,0H157.5l0,0V206.2&#10;&#9;&#9;C157.5,187.6,172.5,172.6,191.1,172.6z"/>
	<path class="st0_coo-91" d="M311.8,319.6H157.5c-0.4,0-0.7-0.3-0.7-0.7l0,0v-99.3c0-26.4,21.4-47.7,47.7-47.7h60.2&#10;&#9;&#9;c26.4,0,47.7,21.4,47.8,47.7v99.3C312.5,319.3,312.2,319.6,311.8,319.6z M158.2,318.2h152.9v-98.6c0-25.6-20.8-46.3-46.4-46.3&#10;&#9;&#9;h-60.2c-25.6,0-46.3,20.8-46.3,46.3L158.2,318.2z"/>
</g>
<g id="Character_coo-91">
	<path class="st1_coo-91 targetColor" d="M227.4,193.1c0,0-35.9,11.2-39.8,19.8c-2.8,6.2,18.2,60.5,18.2,60.5s3.1,16.2,2.9,22.1s-2.1,34.1-2.1,34.1&#10;&#9;&#9;h83.6c0,0-4.2-37.2-3.8-42.3s5.3-26.5,5.3-26.5l10.1-53.2c0,0-34.1-13.9-38.2-15.3S227.4,193.1,227.4,193.1z" style="fill: rgb(104, 225, 253);"/>
	<path class="st2_coo-91" d="M279.8,179.5c2.5-1.8,4.6-4,4.9-5.6c0.3-1.8-0.3-3.6-0.9-5.3c-6.1-18.4-4.9-39.3-15.2-55.6&#10;&#9;&#9;c-1.3-2.3-3.1-4.2-5.2-5.5c-2.2-1.2-5.2-1.5-7.3,0.1c-9.2-15.6-31.7-4.4-38.1,8.1c-6.8,13.3-10.7,28.5-15.8,42.5&#10;&#9;&#9;c-1.6,4.3-3.1,8.9-2.6,13.4s3.8,9.2,8.4,9.6l2.4-4.2c-1.2,1.2-0.8,3.3,0.4,4.5c1.3,1.1,2.9,1.8,4.5,2.1c16.2,4.1,33.5,7.3,49.3,1.8&#10;&#9;&#9;c2.4-0.9,5.3-3,4.3-5.4C270.2,184,275.7,182.4,279.8,179.5z"/>
	<path class="st0_coo-91" d="M246,188.8c-10.2,0-20.8-2.2-30.9-4.7c-1.8-0.3-3.5-1.1-4.8-2.2c-0.4-0.4-0.8-1-1-1.6l-0.7,1.1&#10;&#9;&#9;c-0.1,0.2-0.4,0.4-0.7,0.4c-5.2-0.5-8.5-5.7-9-10.3c-0.5-4.8,1.2-9.6,2.7-13.8s2.9-8.5,4.3-12.7c3.3-10.1,6.7-20.5,11.5-29.8&#10;&#9;&#9;c4.4-8.6,15.5-15.8,24.9-16.1c5.7-0.4,11.1,2.5,14.1,7.3c2.4-1.1,5.1-1,7.4,0.3c2.3,1.5,4.2,3.4,5.5,5.8&#10;&#9;&#9;c6.4,10.2,8.5,22.2,10.4,33.9c1.2,7.3,2.5,14.9,4.9,21.9l0.1,0.2c0.7,1.7,1,3.6,0.8,5.4c-0.4,2.1-2.9,4.5-5.2,6.1&#10;&#9;&#9;c-3.5,2.5-7,3.5-9.4,2.7c-0.5-0.2-1-0.4-1.4-0.8v0.1c-0.8,1.8-2.9,3.1-4.7,3.7C258.8,187.8,252.4,188.9,246,188.8z M210.4,178.2&#10;&#9;&#9;c0,0.1,0,0.3,0,0.4c0,0.8,0.3,1.6,0.9,2.1c1.2,1,2.6,1.6,4.2,1.9c16.3,4.1,33.5,7.2,48.8,1.8c1.5-0.5,3.3-1.6,3.8-2.9&#10;&#9;&#9;c0.2-0.4,0.2-0.9,0.1-1.3l-0.1-0.2c-0.1-0.4,0.1-0.8,0.4-0.9c0.4-0.1,0.8,0,0.9,0.4c0,0.1,0.1,0.2,0.1,0.3c0.3,0.8,0.9,1.4,1.7,1.7&#10;&#9;&#9;c1.8,0.6,5-0.4,8.1-2.6l0.4,0.6l-0.4-0.6c2.4-1.7,4.3-3.8,4.6-5.2c0.1-1.6-0.1-3.2-0.8-4.7l-0.1-0.2c-2.4-7.1-3.7-14.8-4.9-22.1&#10;&#9;&#9;c-2-11.5-4-23.4-10.2-33.4c-1.2-2.1-2.9-4-5-5.3c-1.8-1-4.6-1.4-6.5,0c-0.2,0.1-0.4,0.2-0.6,0.1c-0.2,0-0.4-0.2-0.5-0.3&#10;&#9;&#9;c-2.6-4.8-7.8-7.6-13.2-7.3c-8.9,0.3-19.5,7.1-23.6,15.3c-4.7,9.3-8.1,19.6-11.4,29.6c-1.4,4.2-2.8,8.6-4.3,12.8s-3.1,8.6-2.6,13.1&#10;&#9;&#9;c0.4,3.9,3.1,8.3,7.3,8.9l1.5-2.6c0.1-0.5,0.4-1,0.8-1.4c0.3-0.3,0.7-0.3,1,0c0.2,0.2,0.3,0.6,0.1,0.9L210.4,178.2z"/>
	<path class="st2_coo-91" d="M254.1,191.4c0,0,3.6,51.6-14.5,48.1c-24-5.1-13.1-41.3-13.1-41.3l0.4-6.8l0.9-15.8l0.9-14.7l25.2-0.3l1,12&#10;&#9;&#9;l0.3,3.9L254.1,191.4z"/>
	<path class="st0_coo-91" d="M241.4,240.5c-0.6,0-1.2-0.1-1.8-0.2c-5.2-0.9-9.8-4.1-12.5-8.7c-7.2-12.2-1.6-31.8-1.1-33.5l2.1-37.2&#10;&#9;&#9;c0-0.4,0.3-0.7,0.7-0.7L254,160c0.4,0,0.7,0.3,0.7,0.7l1.3,15.9l-1.1,14.9c0.1,2.2,2.4,37.7-7.9,46.8&#10;&#9;&#9;C245.4,239.7,243.4,240.5,241.4,240.5z M229.4,161.7l-2.1,36.6c0,0.1,0,0.1,0,0.2c-0.1,0.2-6.1,20.5,1,32.4c2.5,4.2,6.7,7.1,11.6,8&#10;&#9;&#9;c2.2,0.5,4.5-0.1,6.2-1.7c9.9-8.8,7.4-45.3,7.4-45.7v-0.1l1.1-14.8l-1.2-15.1L229.4,161.7z"/>
	<path class="st0_coo-91" d="M255.3,176.6c-2,3.5-4.8,6.4-8.2,8.4c-5.4,3.5-13,6.6-19.6,5.6l0.4-14.9c4.8,0.6,9.7,0.6,14.6-0.1&#10;&#9;&#9;c4.2-0.5,8.6-1,12.5-2.9L255.3,176.6z"/>
	<path class="st0_coo-91" d="M230.1,191.5c-0.9,0-1.9-0.1-2.8-0.2c-0.3-0.1-0.6-0.4-0.6-0.7l0.4-14.9c0-0.2,0.1-0.4,0.2-0.5&#10;&#9;&#9;c0.2-0.1,0.4-0.2,0.6-0.2c4.8,0.6,9.6,0.6,14.4-0.1c3.9-0.4,8.4-0.9,12.3-2.9c0.2-0.1,0.4-0.1,0.6,0c0.2,0.1,0.3,0.3,0.4,0.6&#10;&#9;&#9;l0.3,3.9c0,0.1,0,0.3-0.1,0.4c-2,3.6-4.9,6.6-8.4,8.7C241.6,189.4,235.4,191.5,230.1,191.5z M228.1,190c5.3,0.6,12.2-1.4,18.5-5.5&#10;&#9;&#9;c3.2-2,6-4.7,7.9-8l-0.2-2.7c-3.9,1.7-8.1,2.1-11.8,2.6c-4.6,0.6-9.3,0.7-14,0.1L228.1,190z"/>
	<path class="st2_coo-91" d="M242.4,179.2h-2.6c-12.3,0.1-22.3-9.7-22.4-21.9c0,0,0,0,0-0.1c-0.1-7,1.9-20.4,1.9-20.4s10.2-3.7,18.3-6.7&#10;&#9;&#9;c13.5-5.1,17.1-12.4,17.1-12.4c0.4,4.9,1.5,9.7,3.2,14.2c1.5,3.3,6,9.3,6,9.3s0.4,10.9,0.5,15.5C264.5,169,254.7,179.1,242.4,179.2&#10;&#9;&#9;C242.4,179.2,242.4,179.2,242.4,179.2z"/>
	<path class="st0_coo-91" d="M239.6,180c-12.6,0-22.8-10.1-22.9-22.7c-0.1-7,1.9-19.9,1.9-20.5c0-0.3,0.2-0.5,0.5-0.6&#10;&#9;&#9;c0.1,0,10.3-3.7,18.3-6.7c13-4.9,16.7-12,16.7-12c0.2-0.4,0.6-0.5,1-0.3c0.2,0.1,0.4,0.3,0.4,0.6c0.4,4.8,1.5,9.5,3.1,13.9&#10;&#9;&#9;c1.4,3.2,5.9,9.1,5.9,9.1c0.1,0.1,0.1,0.3,0.1,0.4c0,0.1,0.4,11,0.5,15.5c0.1,12.6-10,23-22.7,23.2h-2.6H239.6z M220,137.5&#10;&#9;&#9;c-0.3,2.3-1.9,13.6-1.9,19.8c0.1,11.8,9.7,21.2,21.5,21.2h0.2h2.6l0,0c11.9-0.1,21.4-9.9,21.2-21.7c0-4.1-0.4-13.7-0.4-15.3&#10;&#9;&#9;c-0.8-1.1-4.6-6.1-6-9.2c-1.5-4-2.5-8.2-3-12.4c-2,2.5-6.6,7.3-16.4,11C230.8,133.6,221.9,136.8,220,137.5z"/>
	<path class="st0_coo-91" d="M239.7,156.9c-1,0-1.9,0-2.9-0.1c-0.5,0-0.9-0.3-1.2-0.8c-1.7-2.8,2.5-14.5,3.4-16.8c0.2-0.4,0.6-0.5,1-0.3&#10;&#9;&#9;c0.3,0.2,0.5,0.5,0.4,0.8c-2,5.5-4.5,14-3.5,15.6c2.1,0.2,4.2,0.2,6.4,0c0.4-0.1,0.7,0.2,0.8,0.6c0,0,0,0,0,0&#10;&#9;&#9;c0.1,0.4-0.2,0.7-0.6,0.8c0,0,0,0,0,0C242.2,156.8,241,156.9,239.7,156.9z"/>
	
		<ellipse transform="matrix(0.9999 -9.999500e-03 9.999500e-03 0.9999 -1.4222 2.516)" class="st0_coo-91" cx="250.9" cy="143.5" rx="1.5" ry="3.8"/>
	
		<ellipse transform="matrix(0.9999 -1.099535e-02 1.099535e-02 0.9999 -1.5556 2.5462)" class="st0_coo-91" cx="230.8" cy="142.7" rx="1.5" ry="3.8"/>
	<path class="st2_coo-91" d="M227.4,191.4c-4.8-2.6-12.4,1.3-13.1,4s2.2,45,13.1,51.5c4.7,2.8,13.2-7.3,13.2-7.3S228.5,234.3,227.4,191.4z"/>
	<path class="st0_coo-91" d="M229.3,248.1c-0.8,0-1.5-0.2-2.2-0.6c-6-3.6-9.4-17-11.2-27.7c-2-11.6-2.6-23.1-2.2-24.6s2.3-3.1,4.8-4.2&#10;&#9;&#9;c3.4-1.5,6.9-1.5,9.3-0.2c0.2,0.1,0.4,0.4,0.4,0.6c1,41.9,12.6,47.4,12.8,47.5c0.2,0.1,0.4,0.3,0.4,0.5c0.1,0.2,0,0.4-0.1,0.6&#10;&#9;&#9;C240.9,240.4,234.4,248.1,229.3,248.1z M223.8,191.3c-1.6,0-3.2,0.4-4.7,1c-2.3,1-3.8,2.4-4,3.2c-0.5,1.9,2.2,44.3,12.8,50.7&#10;&#9;&#9;c3.2,1.9,9.1-3.6,11.7-6.5c-2.8-2-11.8-11.3-12.8-47.8C225.8,191.5,224.8,191.3,223.8,191.3L223.8,191.3z"/>
	<path class="st2_coo-91" d="M254.1,191.4c4.8-2.6,12.4,1.3,13.1,4s-2.2,45-13.1,51.5c-4.7,2.8-13.2-7.3-13.2-7.3S253.1,234.3,254.1,191.4z&#10;&#9;&#9;"/>
	<path class="st0_coo-91" d="M252.3,248.1c-5.1,0-11.6-7.7-11.9-8.1c-0.1-0.2-0.2-0.4-0.1-0.6c0.1-0.2,0.2-0.4,0.4-0.5&#10;&#9;&#9;c0.1,0,11.7-5.9,12.8-47.5c0-0.3,0.2-0.5,0.4-0.6c2.4-1.3,5.9-1.2,9.3,0.2c2.5,1.1,4.4,2.7,4.8,4.2s-0.2,13-2.2,24.6&#10;&#9;&#9;c-1.8,10.6-5.2,24.1-11.2,27.7C253.8,247.9,253.1,248.1,252.3,248.1z M242.1,239.8c2.6,2.9,8.5,8.4,11.7,6.5&#10;&#9;&#9;c10.6-6.4,13.3-48.8,12.8-50.7c-0.2-0.9-1.7-2.2-4-3.2c-2.8-1.2-5.6-1.4-7.7-0.5C253.9,228.4,244.9,237.7,242.1,239.8z"/>
	<path class="st0_coo-91" d="M241.9,165.6c-4.8-0.1-9.5-1.5-13.5-4c-0.3-0.2-0.4-0.7-0.2-1c0.2-0.3,0.7-0.4,1-0.2&#10;&#9;&#9;c0.5,0.4,12.8,8.6,24.4-0.3c0.3-0.2,0.8-0.2,1,0.1c0.2,0.3,0.2,0.8-0.1,1C250.8,164.1,246.4,165.6,241.9,165.6z"/>
	<path class="st0_coo-91" d="M289,274.4c-0.1,0-0.1,0-0.2,0c-0.4-0.1-0.6-0.5-0.5-0.8l10.4-42.7c0.1-0.4,0.5-0.6,0.9-0.5&#10;&#9;&#9;c0.4,0.1,0.6,0.5,0.5,0.8c0,0,0,0,0,0l-10.4,42.7C289.6,274.2,289.3,274.4,289,274.4z"/>
	<rect x="64.6" y="132.8" class="st2_coo-91" width="80.8" height="65.9"/>
	<path class="st3_coo-91" d="M145.4,199.4H64.6c-0.4,0-0.7-0.3-0.7-0.7v-65.9c0-0.4,0.3-0.7,0.7-0.7h80.8c0.4,0,0.7,0.3,0.7,0.7v65.9&#10;&#9;&#9;C146.1,199.1,145.8,199.4,145.4,199.4z M65.3,198h79.4v-64.5H65.3V198z"/>
	<rect x="64.6" y="132.8" class="st2_coo-91" width="80.8" height="10.3"/>
	<path class="st3_coo-91" d="M145.4,143.8H64.6c-0.4,0-0.7-0.3-0.7-0.7v-10.3c0-0.4,0.3-0.7,0.7-0.7h80.8c0.4,0,0.7,0.3,0.7,0.7v10.3&#10;&#9;&#9;C146.1,143.5,145.8,143.8,145.4,143.8z M65.3,142.4h79.4v-8.9H65.3L65.3,142.4z"/>
	<polygon class="st2_coo-91" points="137.5,188.1 90.7,188.1 114.1,152 &#9;"/>
	<path class="st3_coo-91" d="M137.5,188.8H90.7c-0.4,0-0.7-0.3-0.7-0.7c0-0.1,0-0.3,0.1-0.4l23.4-36.1c0.2-0.3,0.7-0.4,1-0.2&#10;&#9;&#9;c0.1,0,0.1,0.1,0.2,0.2l23.4,36.1c0.1,0.2,0.1,0.5,0,0.7C137.9,188.7,137.7,188.8,137.5,188.8z M92,187.4h44.2l-22.1-34.1L92,187.4&#10;&#9;&#9;z"/>
	<path class="st3_coo-91" d="M130.3,177.8H97.8c-0.4,0-0.7-0.3-0.7-0.7c0-0.4,0.3-0.7,0.7-0.7h32.5c0.4,0,0.7,0.3,0.7,0.7&#10;&#9;&#9;C131,177.5,130.7,177.8,130.3,177.8C130.3,177.8,130.3,177.8,130.3,177.8z"/>
	<path class="st3_coo-91" d="M123.4,167.7h-18.5c-0.4,0-0.7-0.3-0.7-0.7c0-0.4,0.3-0.7,0.7-0.7h18.5c0.4,0,0.7,0.3,0.7,0.7&#10;&#9;&#9;C124.1,167.4,123.8,167.7,123.4,167.7z"/>
	<path class="st3_coo-91" d="M84.5,182.3h-9.6c-0.4,0-0.7-0.3-0.7-0.7c0-0.4,0.3-0.7,0.7-0.7h9.6c0.4,0,0.7,0.3,0.7,0.7&#10;&#9;&#9;C85.2,182,84.9,182.3,84.5,182.3C84.5,182.3,84.5,182.3,84.5,182.3z"/>
	<path class="st3_coo-91" d="M80.6,186.6h-5.7c-0.4,0-0.7-0.3-0.7-0.7c0-0.4,0.3-0.7,0.7-0.7h5.7c0.4,0,0.7,0.3,0.7,0.7&#10;&#9;&#9;C81.3,186.3,81,186.6,80.6,186.6z"/>
	<path class="st3_coo-91" d="M94.5,168.3H74.9c-0.4,0-0.7-0.3-0.7-0.7c0-0.4,0.3-0.7,0.7-0.7c0,0,0,0,0,0h19.6c0.4,0,0.7,0.3,0.7,0.7&#10;&#9;&#9;C95.2,168,94.9,168.3,94.5,168.3z"/>
	<path class="st3_coo-91" d="M86.4,172.6H74.9c-0.4,0-0.7-0.3-0.7-0.7c0-0.4,0.3-0.7,0.7-0.7h11.5c0.4,0,0.7,0.3,0.7,0.7&#10;&#9;&#9;C87.2,172.3,86.8,172.6,86.4,172.6C86.5,172.6,86.5,172.6,86.4,172.6z"/>
	<path class="st3_coo-91" d="M98.3,155.6H74.9c-0.4,0-0.7-0.3-0.7-0.7c0-0.4,0.3-0.7,0.7-0.7c0,0,0,0,0,0h23.4c0.4,0,0.7,0.3,0.7,0.7&#10;&#9;&#9;C99,155.2,98.7,155.6,98.3,155.6C98.3,155.6,98.3,155.6,98.3,155.6z"/>
	<path class="st3_coo-91" d="M88.7,159.9H74.9c-0.4,0-0.7-0.3-0.7-0.7c0-0.4,0.3-0.7,0.7-0.7h13.8c0.4,0,0.7,0.3,0.7,0.7&#10;&#9;&#9;C89.4,159.5,89.1,159.9,88.7,159.9z"/>
	<path class="st3_coo-91" d="M137.2,178.1c-0.4,0-0.7-0.3-0.7-0.7v-24.7c0-0.4,0.3-0.7,0.7-0.7c0.4,0,0.7,0.3,0.7,0.7c0,0,0,0,0,0v24.7&#10;&#9;&#9;C137.9,177.8,137.6,178.1,137.2,178.1z"/>
	<path class="st3_coo-91" d="M139.5,157.5c-0.3,0-0.5-0.2-0.6-0.4l-1.7-4.3l-2,4.4c-0.2,0.4-0.6,0.5-0.9,0.4c0,0,0,0,0,0&#10;&#9;&#9;c-0.3-0.2-0.5-0.6-0.4-0.9l2.6-5.9c0.1-0.3,0.4-0.4,0.6-0.4c0.3,0,0.5,0.2,0.6,0.4l2.3,5.9c0.1,0.4,0,0.8-0.4,0.9c0,0,0,0,0,0&#10;&#9;&#9;C139.6,157.5,139.6,157.5,139.5,157.5z"/>
	<rect x="324.9" y="147.3" class="st2_coo-91" width="116.7" height="98.5"/>
	<path class="st3_coo-91" d="M441.6,246.5H324.9c-0.4,0-0.7-0.3-0.7-0.7c0,0,0,0,0,0v-98.5c0-0.4,0.3-0.7,0.7-0.7l0,0h116.7&#10;&#9;&#9;c0.4,0,0.7,0.3,0.7,0.7c0,0,0,0,0,0v98.5C442.3,246.1,442,246.5,441.6,246.5L441.6,246.5z M325.6,245.1h115.3V148H325.6&#10;&#9;&#9;L325.6,245.1z"/>
	<rect x="324.9" y="137.2" class="st2_coo-91" width="116.7" height="10.1"/>
	<path class="st3_coo-91" d="M441.6,148H324.9c-0.4,0-0.7-0.3-0.7-0.7c0,0,0,0,0,0v-10.1c0-0.4,0.3-0.7,0.7-0.7l0,0h116.7&#10;&#9;&#9;c0.4,0,0.7,0.3,0.7,0.7c0,0,0,0,0,0v10.1C442.3,147.7,442,148,441.6,148L441.6,148z M325.6,146.6h115.3v-8.7H325.6L325.6,146.6z"/>
	<path class="st3_coo-91" d="M401,173.6h-33.9c-0.4,0-0.7-0.3-0.7-0.7v-13.5c0-0.4,0.3-0.7,0.7-0.7l0,0H401c0.4,0,0.7,0.3,0.7,0.7&#10;&#9;&#9;c0,0,0,0,0,0v13.5C401.7,173.3,401.4,173.6,401,173.6z M367.8,172.2h32.5v-12.1h-32.5L367.8,172.2z"/>
	<path class="st3_coo-91" d="M374.6,210.4h-33.9c-0.4,0-0.7-0.3-0.7-0.7c0,0,0,0,0,0v-13.5c0-0.4,0.3-0.7,0.7-0.7l0,0h33.9&#10;&#9;&#9;c0.4,0,0.7,0.3,0.7,0.7c0,0,0,0,0,0v13.5C375.3,210.1,374.9,210.4,374.6,210.4L374.6,210.4z M341.4,209h32.5v-12.1h-32.5V209z"/>
	<path class="st3_coo-91" d="M426.6,210.4h-33.9c-0.4,0-0.7-0.3-0.7-0.7c0,0,0,0,0,0v-13.5c0-0.4,0.3-0.7,0.7-0.7l0,0h33.9&#10;&#9;&#9;c0.4,0,0.7,0.3,0.7,0.7c0,0,0,0,0,0v13.5C427.3,210.1,427,210.4,426.6,210.4L426.6,210.4z M393.4,209h32.5v-12.1h-32.5V209z"/>
	<path class="st3_coo-91" d="M383.8,186.1c-0.4,0-0.7-0.3-0.7-0.7c-0.3-12.5-0.1-12.7,0.2-13c0.3-0.3,0.8-0.2,1,0.1&#10;&#9;&#9;c0.1,0.1,0.2,0.3,0.2,0.4c0,0.1,0,0.2-0.1,0.3c-0.1,0.9-0.1,6.9,0.1,12.2C384.5,185.8,384.2,186.1,383.8,186.1L383.8,186.1z"/>
	<path class="st3_coo-91" d="M409.7,196.9c-0.4,0-0.7-0.3-0.7-0.7v-10.1h-50.7v10.1c0,0.4-0.3,0.7-0.7,0.7c-0.4,0-0.7-0.3-0.7-0.7v-10.8&#10;&#9;&#9;c0-0.4,0.3-0.7,0.7-0.7l0,0h52.1c0.4,0,0.7,0.3,0.7,0.7c0,0,0,0,0,0v10.8C410.4,196.6,410.1,196.9,409.7,196.9L409.7,196.9z"/>
	<path class="st3_coo-91" d="M352.6,234.4H334c-0.4,0-0.7-0.3-0.7-0.7v-7.4c0-0.4,0.3-0.7,0.7-0.7h18.6c0.4,0,0.7,0.3,0.7,0.7c0,0,0,0,0,0&#10;&#9;&#9;v7.4C353.3,234,353,234.3,352.6,234.4z M334.7,233h17.2v-6h-17.2V233z"/>
	<path class="st3_coo-91" d="M381.2,234.4h-18.6c-0.4,0-0.7-0.3-0.7-0.7c0,0,0,0,0,0v-7.4c0-0.4,0.3-0.7,0.7-0.7l0,0h18.6&#10;&#9;&#9;c0.4,0,0.7,0.3,0.7,0.7c0,0,0,0,0,0v7.4C381.9,234,381.6,234.4,381.2,234.4L381.2,234.4z M363.3,233h17.2v-6h-17.2V233z"/>
	<path class="st3_coo-91" d="M357.7,219.6c-0.4,0-0.7-0.3-0.7-0.7c-0.2-9.3-0.1-9.4,0.2-9.7c0.3-0.3,0.8-0.2,1,0.1c0.1,0.1,0.2,0.3,0.2,0.4&#10;&#9;&#9;c0,0.1,0,0.2,0,0.2c-0.1,0.8,0,5.8,0,8.9C358.4,219.3,358.1,219.6,357.7,219.6C357.7,219.6,357.7,219.6,357.7,219.6L357.7,219.6z"/>
	<path class="st3_coo-91" d="M371.9,226.9c-0.4,0-0.7-0.3-0.7-0.7c0,0,0,0,0,0v-6.6H344v6.6c0,0.4-0.3,0.7-0.7,0.7c-0.4,0-0.7-0.3-0.7-0.7&#10;&#9;&#9;c0,0,0,0,0,0v-7.3c0-0.4,0.3-0.7,0.7-0.7l0,0h28.6c0.4,0,0.7,0.3,0.7,0.7c0,0,0,0,0,0v7.3C372.6,226.6,372.3,226.9,371.9,226.9z"/>
	<path class="st3_coo-91" d="M403.9,234.4h-18.6c-0.4,0-0.7-0.3-0.7-0.7c0,0,0,0,0,0v-7.4c0-0.4,0.3-0.7,0.7-0.7l0,0h18.6&#10;&#9;&#9;c0.4,0,0.7,0.3,0.7,0.7c0,0,0,0,0,0v7.4C404.6,234,404.3,234.4,403.9,234.4L403.9,234.4z M386,233h17.2v-6H386V233z"/>
	<path class="st3_coo-91" d="M432.5,234.4h-18.6c-0.4,0-0.7-0.3-0.7-0.7v-7.4c0-0.4,0.3-0.7,0.7-0.7h18.6c0.4,0,0.7,0.3,0.7,0.7&#10;&#9;&#9;c0,0,0,0,0,0v7.4C433.2,234,432.9,234.4,432.5,234.4L432.5,234.4z M414.6,233h17.2v-6h-17.2V233z"/>
	<path class="st3_coo-91" d="M409,219.6c-0.4,0-0.7-0.3-0.7-0.7c-0.2-9.3-0.1-9.4,0.2-9.7c0.3-0.3,0.8-0.2,1,0.1c0.1,0.1,0.2,0.3,0.2,0.4&#10;&#9;&#9;c0,0.1,0,0.2,0,0.2c-0.1,0.7,0,5,0,8.9C409.7,219.3,409.4,219.6,409,219.6L409,219.6z"/>
	<path class="st3_coo-91" d="M423.2,226.9c-0.4,0-0.7-0.3-0.7-0.7c0,0,0,0,0,0v-6.6h-27.2v6.6c0,0.4-0.3,0.7-0.7,0.7&#10;&#9;&#9;c-0.4,0-0.7-0.3-0.7-0.7v-7.3c0-0.4,0.3-0.7,0.7-0.7l0,0h28.6c0.4,0,0.7,0.3,0.7,0.7c0,0,0,0,0,0v7.3&#10;&#9;&#9;C423.9,226.6,423.6,226.9,423.2,226.9L423.2,226.9z"/>
	<rect x="92.4" y="218.9" class="st2_coo-91" width="43.4" height="40.2"/>
	<path class="st3_coo-91" d="M135.8,259.8H92.4c-0.4,0-0.7-0.3-0.7-0.7l0,0v-40.2c0-0.4,0.3-0.7,0.7-0.7h43.4c0.4,0,0.7,0.3,0.7,0.7v40.2&#10;&#9;&#9;C136.5,259.5,136.1,259.8,135.8,259.8z M93.1,258.4h42v-38.8h-42V258.4z"/>
	<path class="st3_coo-91" d="M129.4,228.5H99.5c-0.4,0-0.7-0.3-0.7-0.7c0-0.4,0.3-0.7,0.7-0.7c0,0,0,0,0,0h29.9c0.4,0,0.7,0.3,0.7,0.7&#10;&#9;&#9;C130.1,228.2,129.8,228.5,129.4,228.5z"/>
	<path class="st3_coo-91" d="M129.4,235.7H99.5c-0.4,0-0.7-0.3-0.7-0.7c0-0.4,0.3-0.7,0.7-0.7h29.9c0.4,0,0.7,0.3,0.7,0.7&#10;&#9;&#9;C130.1,235.3,129.8,235.7,129.4,235.7z"/>
	<path class="st3_coo-91" d="M129.4,242.8H99.5c-0.4,0-0.7-0.3-0.7-0.7c0-0.4,0.3-0.7,0.7-0.7c0,0,0,0,0,0h29.9c0.4,0,0.7,0.3,0.7,0.7&#10;&#9;&#9;C130.1,242.5,129.8,242.8,129.4,242.8z"/>
	<path class="st3_coo-91" d="M123.5,250h-24c-0.4,0-0.7-0.3-0.7-0.7c0-0.4,0.3-0.7,0.7-0.7h24c0.4,0,0.7,0.3,0.7,0.7&#10;&#9;&#9;C124.2,249.7,123.9,250,123.5,250C123.5,250,123.5,250,123.5,250z"/>
</g>
<g id="Desk_coo-91">
	<polygon class="st2_coo-91" points="104.5,307.8 392,307.8 438.1,374.4 58.4,374.4 &#9;"/>
	<path class="st0_coo-91" d="M438.1,375.1H58.4c-0.3,0-0.5-0.1-0.6-0.4c-0.1-0.2-0.1-0.5,0-0.7l46.1-66.6c0.1-0.2,0.3-0.3,0.6-0.3H392&#10;&#9;&#9;c0.2,0,0.4,0.1,0.6,0.3l46.1,66.6c0.1,0.2,0.1,0.5,0,0.7C438.5,374.9,438.3,375.1,438.1,375.1z M59.7,373.7h377l-45.2-65.2H104.9&#10;&#9;&#9;L59.7,373.7z"/>
	<rect x="58.8" y="374.4" class="st2_coo-91" width="379.3" height="12.9"/>
	<path class="st0_coo-91" d="M438.1,388H58.8c-0.4,0-0.7-0.3-0.7-0.7l0,0v-12.9c0-0.4,0.3-0.7,0.7-0.7c0,0,0,0,0,0h379.3&#10;&#9;&#9;c0.4,0,0.7,0.3,0.7,0.7v0v12.9C438.8,387.7,438.5,388,438.1,388z M59.5,386.6h377.9v-11.5H59.5L59.5,386.6z"/>
	<rect x="67" y="387.3" class="st0_coo-91" width="363" height="12.9"/>
	<path class="st0_coo-91" d="M429.9,400.9H67c-0.4,0-0.7-0.3-0.7-0.7l0,0v-12.9c0-0.4,0.3-0.7,0.7-0.7h0h363c0.4,0,0.7,0.3,0.7,0.7v12.9&#10;&#9;&#9;C430.7,400.6,430.4,400.9,429.9,400.9C430,400.9,430,400.9,429.9,400.9z M67.7,399.5h361.6V388H67.7L67.7,399.5z"/>
	<polygon class="st2_coo-91" points="294.1,320.2 242.3,320.2 248.3,364.3 315.2,364.3 &#9;"/>
	<path class="st3_coo-91" d="M315.2,365h-67c-0.4,0-0.7-0.3-0.7-0.6l-5.9-44.1c0-0.2,0-0.4,0.2-0.6c0.1-0.2,0.3-0.2,0.5-0.2h51.8&#10;&#9;&#9;c0.3,0,0.5,0.2,0.6,0.4l21.1,44.1c0.2,0.3,0,0.8-0.3,0.9C315.5,365,315.3,365,315.2,365z M248.9,363.6h65.3l-20.4-42.8h-50.6&#10;&#9;&#9;L248.9,363.6z"/>
	<polygon class="st2_coo-91" points="305.1,324.2 253.3,324.2 259.3,368.4 326.2,368.4 &#9;"/>
	<path class="st3_coo-91" d="M326.2,369.1h-67c-0.4,0-0.6-0.3-0.7-0.6l-5.9-44.1c0-0.2,0-0.4,0.2-0.5c0.1-0.1,0.3-0.2,0.5-0.2h51.8&#10;&#9;&#9;c0.3,0,0.5,0.2,0.6,0.4l21.1,44.1c0.2,0.3,0,0.8-0.3,0.9C326.4,369.1,326.3,369.1,326.2,369.1L326.2,369.1z M259.9,367.7h65.3&#10;&#9;&#9;l-20.5-42.8h-50.6L259.9,367.7z"/>
	<path class="st3_coo-91" d="M307.1,360.1H267c-0.4,0-0.7-0.3-0.7-0.7s0.3-0.7,0.7-0.7c0,0,0,0,0,0h40.1c0.4,0,0.7,0.3,0.7,0.7&#10;&#9;&#9;S307.5,360.1,307.1,360.1C307.1,360.1,307.1,360.1,307.1,360.1L307.1,360.1z"/>
	<path class="st3_coo-91" d="M311.3,351.5h-46c-0.4,0-0.7-0.3-0.7-0.7c0-0.4,0.3-0.7,0.7-0.7h46c0.4,0,0.7,0.3,0.7,0.7&#10;&#9;&#9;C312,351.2,311.7,351.5,311.3,351.5z"/>
	<path class="st3_coo-91" d="M306.5,342.9h-43.5c-0.4,0-0.7-0.3-0.7-0.7c0-0.4,0.3-0.7,0.7-0.7h43.5c0.4,0,0.7,0.3,0.7,0.7&#10;&#9;&#9;C307.2,342.6,306.9,342.9,306.5,342.9L306.5,342.9z"/>
	<path class="st3_coo-91" d="M303.2,334.3h-34.7c-0.4,0-0.7-0.3-0.7-0.7c0-0.4,0.3-0.7,0.7-0.7h34.7c0.4,0,0.7,0.3,0.7,0.7&#10;&#9;&#9;C303.9,334,303.6,334.3,303.2,334.3z"/>
	<polygon class="st0_coo-91" points="346.2,364.1 334.5,348.5 375.6,347.8 &#9;"/>
	<path class="st0_coo-91" d="M346.2,364.8c-0.2,0-0.4-0.1-0.6-0.3l-11.8-15.7c-0.2-0.3-0.2-0.7,0.1-1c0.1-0.1,0.3-0.1,0.4-0.1l41.1-0.7&#10;&#9;&#9;c0.4,0,0.7,0.3,0.7,0.7c0,0.3-0.1,0.5-0.4,0.6l-29.4,16.4C346.4,364.8,346.3,364.8,346.2,364.8z M335.8,349.1l10.6,14.1l26.4-14.7&#10;&#9;&#9;L335.8,349.1z"/>
	<rect x="346.2" y="341.1" class="st2_coo-91" width="65.1" height="23"/>
	<path class="st0_coo-91" d="M411.3,364.8h-65.1c-0.4,0-0.7-0.3-0.7-0.7v0v-23c0-0.4,0.3-0.7,0.7-0.7h0h65.1c0.4,0,0.7,0.3,0.7,0.7v0v23&#10;&#9;&#9;C412,364.5,411.7,364.8,411.3,364.8L411.3,364.8z M346.9,363.4h63.7v-21.6h-63.7L346.9,363.4z"/>
	<path class="st0_coo-91" d="M365,358c-0.8,0.4-1.7,0.5-2.6,0.5c-0.8,0-1.7-0.1-2.5-0.4c-1.5-0.6-2.7-1.7-3.2-3.2c-0.3-0.8-0.5-1.6-0.5-2.5&#10;&#9;&#9;c0-0.9,0.2-1.7,0.5-2.5c0.3-0.7,0.8-1.4,1.3-1.9c0.6-0.5,1.3-0.9,2-1.2c0.8-0.3,1.6-0.4,2.5-0.4c0.8,0,1.6,0.1,2.4,0.4&#10;&#9;&#9;c0.7,0.2,1.4,0.7,1.9,1.2l-1.9,1.9c-0.3-0.4-0.6-0.6-1-0.8c-0.4-0.2-0.9-0.3-1.3-0.3c-0.5,0-0.9,0.1-1.3,0.3&#10;&#9;&#9;c-0.4,0.2-0.8,0.4-1,0.7c-0.3,0.3-0.5,0.7-0.7,1.1c-0.3,0.9-0.3,1.9,0,2.8c0.2,0.4,0.4,0.8,0.7,1.1c0.3,0.3,0.6,0.6,1,0.7&#10;&#9;&#9;c0.4,0.2,0.9,0.3,1.3,0.3c0.5,0,1-0.1,1.4-0.3c0.4-0.2,0.7-0.5,1-0.8l1.9,1.8C366.4,357.2,365.7,357.7,365,358z"/>
	<path class="st0_coo-91" d="M384.1,352.4c0,0.9-0.1,1.7-0.5,2.5c-0.3,0.7-0.7,1.4-1.3,1.9c-0.6,0.5-1.3,1-2,1.2c-1.6,0.6-3.4,0.6-5,0&#10;&#9;&#9;c-0.7-0.3-1.4-0.7-2-1.2c-0.6-0.5-1-1.2-1.3-1.9c-0.3-0.8-0.5-1.6-0.5-2.5c0-0.9,0.1-1.7,0.5-2.5c0.3-0.7,0.7-1.4,1.3-1.9&#10;&#9;&#9;c0.6-0.5,1.3-0.9,2-1.2c1.6-0.6,3.4-0.6,5,0c0.7,0.3,1.4,0.7,2,1.2c0.6,0.5,1,1.2,1.3,1.9C383.9,350.7,384.1,351.6,384.1,352.4z&#10;&#9;&#9; M381.1,352.4c0-0.5-0.1-0.9-0.2-1.4c-0.1-0.4-0.4-0.8-0.7-1.1c-0.3-0.3-0.6-0.6-1-0.7c-0.4-0.2-0.9-0.3-1.3-0.3&#10;&#9;&#9;c-0.9,0-1.8,0.4-2.4,1c-0.3,0.3-0.5,0.7-0.7,1.1c-0.3,0.9-0.3,1.9,0,2.8c0.1,0.4,0.4,0.8,0.7,1.1c0.3,0.3,0.6,0.6,1,0.7&#10;&#9;&#9;c0.4,0.2,0.9,0.3,1.3,0.3c0.5,0,0.9-0.1,1.3-0.3c0.4-0.2,0.7-0.4,1-0.7c0.3-0.3,0.5-0.7,0.7-1.1C381,353.4,381.1,352.9,381.1,352.4&#10;&#9;&#9;L381.1,352.4z"/>
	<path class="st0_coo-91" d="M401.9,352.4c0,0.9-0.2,1.7-0.5,2.5c-0.3,0.7-0.7,1.4-1.3,1.9c-0.6,0.5-1.3,1-2,1.2c-0.8,0.3-1.6,0.4-2.5,0.4&#10;&#9;&#9;c-0.8,0-1.7-0.1-2.5-0.4c-1.5-0.5-2.7-1.7-3.3-3.2c-0.3-0.8-0.5-1.6-0.5-2.5c0-0.8,0.1-1.7,0.5-2.5c0.3-0.7,0.7-1.4,1.3-1.9&#10;&#9;&#9;c0.6-0.5,1.3-0.9,2-1.2c0.8-0.3,1.6-0.4,2.5-0.4c0.9,0,1.7,0.1,2.5,0.4c0.7,0.3,1.4,0.7,2,1.2c0.6,0.5,1,1.2,1.3,1.9&#10;&#9;&#9;C401.8,350.7,402,351.6,401.9,352.4z M398.9,352.4c0-0.5-0.1-0.9-0.2-1.4c-0.2-0.4-0.4-0.8-0.7-1.1c-0.3-0.3-0.6-0.6-1-0.7&#10;&#9;&#9;c-0.9-0.4-1.8-0.4-2.7,0c-0.4,0.2-0.7,0.4-1,0.7c-0.3,0.3-0.5,0.7-0.7,1.1c-0.3,0.9-0.3,1.9,0,2.8c0.2,0.4,0.4,0.8,0.7,1.1&#10;&#9;&#9;c0.3,0.3,0.6,0.6,1,0.7c0.4,0.2,0.9,0.3,1.3,0.3c0.5,0,0.9-0.1,1.3-0.3c0.4-0.2,0.7-0.4,1-0.7c0.3-0.3,0.5-0.7,0.7-1.1&#10;&#9;&#9;C398.9,353.4,399,352.9,398.9,352.4L398.9,352.4z"/>
</g>
<g id="Cup_coo-91">
	<ellipse class="st2_coo-91" cx="117.9" cy="352.3" rx="27.6" ry="8.3"/>
	<path class="st3_coo-91" d="M118,361.3c-13.9,0-28.3-3.4-28.3-9s14.4-9,28.3-9s28.3,3.4,28.3,9S131.9,361.3,118,361.3z M118,344.7&#10;&#9;&#9;c-15.8,0-26.9,4-26.9,7.6s11,7.6,26.9,7.6s26.9-4,26.9-7.6S133.8,344.6,118,344.7L118,344.7z"/>
	<path class="st2_coo-91" d="M140.1,327.1l0.8,0.1c2.3,0.3,4.3,1.5,5.8,3.3c1.7,2.6,1.7,5.9,0.2,8.5c-3.3,6-11.5,7.7-17.7,8.3&#10;&#9;&#9;c-0.9,0.1-1.8,0.1-2.6-0.2c-1-0.3-1.7-1.3-1.4-2.4c0.2-0.6,0.6-1.1,1.2-1.3c0.7-0.3,1.4-0.5,2.1-0.6c3.9-0.6,8-1.1,11.6-2.9&#10;&#9;&#9;c2.1-1,5-3.5,3.5-6c-0.5-0.8-1.3-1.5-2.2-1.9c-3.6-1.7-7-0.4-10.5,0.6c-0.3,0.1-0.5,0.1-0.8,0.1c-0.7-0.2-1.1-0.9-1-1.6&#10;&#9;&#9;c0.1-1.5,1.6-2.5,3.1-3.1C134.6,327.1,137.4,326.7,140.1,327.1z"/>
	<path class="st0_coo-91" d="M128.1,348c-0.6,0-1.3-0.1-1.8-0.3c-1.4-0.4-2.3-1.8-1.9-3.2c0.2-0.8,0.8-1.5,1.6-1.8c0.7-0.3,1.5-0.6,2.3-0.7&#10;&#9;&#9;l1.4-0.2c3.4-0.5,6.9-1.1,9.9-2.6c1.3-0.7,3-1.9,3.4-3.3c0.2-0.6,0.1-1.2-0.2-1.7c-0.5-0.7-1.1-1.3-1.9-1.6c-3-1.4-6-0.5-9.1,0.4&#10;&#9;&#9;l-0.9,0.3c-0.3,0.1-0.7,0.2-1.1,0.1c-1.1-0.2-1.8-1.3-1.6-2.3c0.1-1.6,1.4-2.9,3.6-3.7c2.7-1,5.7-1.4,8.5-0.9l0,0&#10;&#9;&#9;c0.3,0,0.5,0.1,0.8,0.1c2.4,0.4,4.7,1.6,6.2,3.5c1.8,2.8,1.9,6.4,0.2,9.2c-2.7,4.9-8.7,7.7-18.3,8.6C128.9,348,128.5,348,128.1,348&#10;&#9;&#9;z M137.5,330.4c1.4,0,2.8,0.3,4,0.9c1,0.4,1.9,1.2,2.5,2.1c0.5,0.9,0.7,1.9,0.4,2.9c-0.7,2.3-3.3,3.8-4.1,4.2&#10;&#9;&#9;c-3.2,1.6-6.8,2.2-10.3,2.7l-1.4,0.2c-0.6,0.1-1.3,0.2-1.9,0.5c-0.7,0.2-1,0.9-0.8,1.6c0.1,0.4,0.5,0.8,1,0.9&#10;&#9;&#9;c0.7,0.2,1.5,0.3,2.3,0.1c9.1-0.9,14.7-3.4,17.2-7.9c1.4-2.4,1.4-5.4-0.1-7.7c-1.4-1.6-3.3-2.7-5.4-3l-0.7-0.1&#10;&#9;&#9;c-2.6-0.4-5.3-0.1-7.8,0.9c-0.8,0.3-2.6,1.1-2.6,2.5c0,0.4,0.2,0.8,0.4,0.8c0.2,0,0.4,0,0.5-0.1l0.9-0.3&#10;&#9;&#9;C133.3,331,135.4,330.6,137.5,330.4L137.5,330.4z"/>
	<path class="st2_coo-91" d="M137.2,320.7c0,0-5.9,29.3-6.4,31.1s-14.4,7.3-25.4,1.9l-9.7-30L137.2,320.7z"/>
	<path class="st0_coo-91" d="M116.1,356.7c-3.8,0.1-7.6-0.8-11-2.4c-0.2-0.1-0.3-0.2-0.3-0.4l-9.7-30c-0.1-0.2,0-0.4,0.1-0.6&#10;&#9;&#9;c0.1-0.2,0.3-0.3,0.5-0.3l41.5-3c0.2,0,0.4,0.1,0.6,0.2c0.1,0.2,0.2,0.4,0.2,0.6c-0.2,1.2-5.9,29.4-6.4,31.1&#10;&#9;&#9;c-0.2,0.7-1.1,1.4-2.9,2.2C124.7,355.9,120.4,356.7,116.1,356.7z M106,353.2c10.7,5,23.6-0.4,24.2-1.6c0.4-1.5,5.2-25.2,6.2-30.1&#10;&#9;&#9;l-39.7,2.9L106,353.2z"/>
	<path class="st0_coo-91" d="M137.2,320.7c0,1.7-0.9,3.3-2.2,4.3c-3.4,3-10.2,5.2-18.2,5.5c-8.2,0.3-15.4-1.4-18.9-4.3&#10;&#9;&#9;c-1.3-0.9-2.1-2.3-2.3-3.9c-0.2-5,8.9-9.4,20.4-9.9S137,315.7,137.2,320.7z"/>
	<path class="st0_coo-91" d="M114.8,331.3c-7.3,0-13.9-1.7-17.3-4.5c-1.4-1-2.4-2.6-2.5-4.4c0-1.6,0.6-3.1,1.7-4.1&#10;&#9;&#9;c3.3-3.6,10.9-6.1,19.3-6.4s16.3,1.5,19.8,4.8c1.2,1,2,2.4,2.1,4c0,1.9-1,3.7-2.5,4.9c-3.6,3.2-10.7,5.4-18.6,5.7&#10;&#9;&#9;C116.1,331.3,115.4,331.3,114.8,331.3z M118.1,313.2c-0.7,0-1.3,0-2,0c-8.1,0.3-15.3,2.7-18.4,6c-0.9,0.8-1.4,2-1.4,3.1&#10;&#9;&#9;c0.1,1.4,0.9,2.6,2,3.4c3.5,2.8,10.7,4.5,18.4,4.1c7.6-0.3,14.3-2.4,17.7-5.4c1.2-0.9,1.9-2.3,2-3.8l0,0c-0.1-1.2-0.7-2.3-1.6-3&#10;&#9;&#9;C131.9,314.9,125.4,313.2,118.1,313.2z"/>
	<path class="st1_coo-91 targetColor" d="M135,325c-3.4,3-10.2,5.2-18.2,5.5c-8.2,0.3-15.4-1.4-18.9-4.3c3.4-3,10.2-5.2,18.1-5.5&#10;&#9;&#9;C124.3,320.4,131.4,322.2,135,325z" style="fill: rgb(104, 225, 253);"/>
	<path class="st0_coo-91" d="M114.8,331.3c-7.3,0-13.9-1.7-17.3-4.5c-0.2-0.1-0.2-0.3-0.2-0.5c0-0.2,0.1-0.4,0.2-0.5&#10;&#9;&#9;c3.6-3.2,10.7-5.4,18.6-5.7c8.2-0.3,15.6,1.4,19.4,4.4c0.2,0.1,0.3,0.3,0.3,0.5c0,0.2-0.1,0.4-0.2,0.5c-3.6,3.2-10.7,5.4-18.6,5.7&#10;&#9;&#9;C116.1,331.3,115.4,331.3,114.8,331.3z M99,326.2c3.7,2.5,10.5,3.9,17.7,3.6c7.1-0.3,13.5-2.1,17-4.8c-3.7-2.5-10.5-3.9-17.7-3.6&#10;&#9;&#9;C109,321.7,102.6,323.5,99,326.2z"/>
</g>
<g id="Left_Hand_coo-91">
	<path class="st2_coo-91" d="M361.2,299.8c0,0,21.6,9.1,24.2,12.4c1.5,1.9,1.7,4.6,0.5,6.7c0,0,1.8,5.9-0.9,7.4c0,0,1.3,5.7-1.5,6.8&#10;&#9;&#9;c-2.2,0.9-16.1,0.5-14.1-2.4c0.6-0.7,1.4-1.2,2.3-1.4c-0.6,0-0.9-0.9-0.6-1.4c0.3-0.5,0.8-0.9,1.4-1.1c0.4-0.1,0.8-0.4,1.1-0.7&#10;&#9;&#9;c-4.4-1.1-9.2-1.7-12.8-5l-9.9-9.2"/>
	<path class="st0_coo-91" d="M378.9,334.2c-3.9,0-8.9-0.6-10.1-2.1c-0.4-0.5-0.4-1.3,0-1.9c0.4-0.6,1-1,1.6-1.3c-0.2-0.5-0.2-1,0-1.5&#10;&#9;&#9;c0.3-0.5,0.8-1,1.3-1.2l-0.8-0.2c-3.8-0.9-7.6-1.8-10.7-4.6l-9.9-9.2l1-1l9.9,9.2c2.8,2.6,6.4,3.4,10,4.3c0.8,0.2,1.6,0.4,2.4,0.6&#10;&#9;&#9;c0.4,0.1,0.6,0.5,0.5,0.9c0,0.1-0.1,0.2-0.1,0.2c-0.3,0.4-0.7,0.7-1.2,0.9l-0.1,0.1c-0.4,0.1-0.8,0.4-1.1,0.8c-0.1,0.1,0,0.3,0,0.4&#10;&#9;&#9;c0.3,0,0.6,0.3,0.6,0.6c0,0.3-0.1,0.6-0.5,0.8c-0.8,0.2-1.5,0.6-2,1.2c0,0-0.1,0.1-0.1,0.1c0,0,0,0.1,0.5,0.4&#10;&#9;&#9;c2.6,1.4,11.3,1.5,12.9,0.9c1.8-0.8,1.4-4.6,1.1-6c-0.1-0.3,0.1-0.6,0.3-0.8c1.8-1,1-5.1,0.6-6.6c-0.1-0.2,0-0.4,0.1-0.6&#10;&#9;&#9;c1-1.9,0.9-4.2-0.5-5.9c-2-2.6-17.9-9.6-23.9-12.2c-0.3-0.2-0.5-0.6-0.3-1c0.2-0.3,0.5-0.4,0.8-0.3c2.2,0.9,21.9,9.3,24.4,12.6&#10;&#9;&#9;c1.6,2.1,1.9,4.9,0.7,7.2c0.4,1.3,1.4,5.8-0.9,7.7c0.3,1.5,0.8,6-2,7.2C382.1,334.2,380.5,334.3,378.9,334.2z"/>
	<path class="st2_coo-91" d="M377,320.2c0,0-4.5,6.3-1.1,6.8s8.2-7.6,8.2-7.6"/>
	<path class="st0_coo-91" d="M376.1,327.7h-0.4c-0.7,0-1.4-0.5-1.7-1.2c-0.9-2,1.8-6,2.4-6.7c0.2-0.3,0.6-0.4,1-0.2c0.3,0.2,0.4,0.6,0.2,1&#10;&#9;&#9;c0,0,0,0.1-0.1,0.1c-1.2,1.6-2.6,4.4-2.2,5.3c0,0.1,0.1,0.3,0.6,0.3c2.1,0.3,5.8-4.3,7.5-7.2c0.2-0.3,0.6-0.4,1-0.2&#10;&#9;&#9;c0.3,0.2,0.4,0.6,0.2,1C384.2,320.6,379.8,327.7,376.1,327.7z"/>
	<path class="st2_coo-91" d="M370.5,329c0,0,9.8,0.9,14.4-2.8"/>
	<path class="st0_coo-91" d="M373.3,329.8c-1.6,0-2.7-0.1-2.9-0.1c-0.4,0-0.7-0.4-0.6-0.8c0-0.4,0.4-0.7,0.8-0.6c0.1,0,9.6,0.9,13.9-2.6&#10;&#9;&#9;c0.3-0.2,0.7-0.2,1,0.1c0,0,0,0,0,0c0.3,0.3,0.2,0.7-0.1,1c0,0,0,0,0,0C382.1,329.4,376.7,329.8,373.3,329.8z"/>
	<path class="st2_coo-91" d="M391.8,292.6c0,0-28.8,35.4-30.1,36.9s-3.9,7.8-3.6,7.6s6-2.8,7.4-4.6s30.2-38.1,30.2-38.1&#10;&#9;&#9;S395.8,291.6,391.8,292.6z"/>
	<path class="st0_coo-91" d="M358.1,337.9c-0.2,0-0.4-0.1-0.5-0.2c-0.8-0.9,3.2-8,3.6-8.5c1.3-1.5,29.8-36.6,30.1-36.9&#10;&#9;&#9;c0.1-0.1,0.2-0.2,0.4-0.2c1.7-0.4,3-0.3,3.8,0.4c0.6,0.5,1,1.3,1,2.2c0,0.1-0.1,0.3-0.1,0.4c-0.3,0.4-28.8,36.3-30.2,38.1&#10;&#9;&#9;c-1.1,1.5-4.6,3.3-7.2,4.5l-0.5,0.2C358.3,337.8,358.2,337.9,358.1,337.9z M392.2,293.2c-2.2,2.8-28.7,35.3-29.9,36.8&#10;&#9;&#9;c-1.2,1.8-2.2,3.8-3,5.8c3.1-1.6,5-2.8,5.7-3.6c1.3-1.7,27.7-34.9,30-37.9c0-0.3-0.2-0.6-0.5-0.9&#10;&#9;&#9;C393.7,293.1,392.9,293,392.2,293.2L392.2,293.2z"/>
	<path class="st2_coo-91" d="M356.7,311.1c0,0,22.6,14.9,23.4,11s-10.2-10.4-10.2-10.4"/>
	<path class="st0_coo-91" d="M379.1,323.4c-4.7,0-19.7-9.7-22.8-11.7c-0.3-0.2-0.4-0.6-0.2-1s0.6-0.4,1-0.2l0,0&#10;&#9;&#9;c10.9,7.2,21.2,12.4,22.3,11.5c0.5-2.5-5.8-7.2-9.9-9.7c-0.3-0.2-0.4-0.6-0.2-1c0.2-0.3,0.6-0.4,0.9-0.2&#10;&#9;&#9;c1.2,0.7,11.4,6.9,10.5,11.1c-0.1,0.5-0.4,0.9-0.9,1C379.6,323.3,379.4,323.4,379.1,323.4z"/>
	<line class="st4_coo-91" x1="359.9" y1="332.6" x2="362.8" y2="334.7"/>
	<path class="st0_coo-91" d="M362.8,335.4c-0.1,0-0.3,0-0.4-0.1l-2.9-2c-0.3-0.2-0.4-0.7-0.1-1c0.2-0.3,0.6-0.4,0.9-0.2l2.9,2&#10;&#9;&#9;c0.3,0.2,0.4,0.7,0.2,1c0,0,0,0,0,0C363.2,335.3,363,335.4,362.8,335.4z"/>
	<path class="st1_coo-91 targetColor" d="M301.9,207.6c14.5,4.2,14.9,71.7,27.2,76.6c11.8,4.6,35.5,15.1,35.5,15.1l-9,19.9c0,0-27-0.3-46.2-9.3&#10;&#9;&#9;s-23.9-53.4-23.9-53.4S287.3,203.3,301.9,207.6z" style="fill: rgb(104, 225, 253);"/>
</g>
<g id="Paper_coo-91">
	<polygon class="st2_coo-91" points="241.8,311.5 248.5,239 305.5,239.8 298,310.7 &#9;"/>
	<path class="st0_coo-91" d="M241.8,312.2c-0.2,0-0.4-0.1-0.5-0.2c-0.1-0.1-0.2-0.3-0.2-0.5l6.7-72.5c0-0.4,0.3-0.6,0.7-0.6l0,0l56.9,0.8&#10;&#9;&#9;c0.2,0,0.4,0.1,0.5,0.2c0.1,0.1,0.2,0.3,0.2,0.5l-7.5,70.9c0,0.4-0.3,0.6-0.7,0.6L241.8,312.2z M249.1,239.7l-6.6,71.1l54.8-0.8&#10;&#9;&#9;l7.3-69.5L249.1,239.7z"/>
</g>
<g id="Right_Hand_coo-91">
	<path class="st1_coo-91 targetColor" d="M209.9,199.4c0,0-33.4,8-40.8,18.1s-11.8,127,3.2,120.7s65.4-41,65.4-41l-17.1-23.6L199,285.1v-49.9&#10;&#9;&#9;L209.9,199.4z" style="fill: rgb(104, 225, 253);"/>
	<path class="st0_coo-91" d="M206.1,279.7c-0.3,0-0.6-0.2-0.7-0.5c-0.1-0.3-10.2-33.6-14-44.3c-0.1-0.4,0.1-0.8,0.4-0.9&#10;&#9;&#9;c0.4-0.1,0.8,0.1,0.9,0.4c0,0,0,0,0,0c3.8,10.8,13.9,44,14,44.4c0.1,0.4-0.1,0.8-0.5,0.9L206.1,279.7z"/>
	<path class="st2_coo-91" d="M223.9,279.7l7.7-4.6c0,0,0.5-7.1,1.8-9.4s12.9-12.4,12.9-12.4v6c0,0,9.1-5.5,10.8-3.8s1.5,3.2-2.8,6.6&#10;&#9;&#9;c0,0,2.9-3.3,3.8-0.8s-3.8,6.8-3.8,6.8s3.9-3.7,3.9-1.1s-5.1,6.3-5.1,6.3s5.1-2,3.5,0.6s-23.5,21-23.5,21"/>
	<path class="st0_coo-91" d="M232.9,295.7c-0.2,0-0.4-0.1-0.5-0.2c-0.3-0.3-0.2-0.7,0.1-1c6.1-5.1,22.1-18.9,23.4-20.9&#10;&#9;&#9;c0.1-0.1,0.1-0.2,0.1-0.2c-1,0.1-1.9,0.3-2.8,0.7c-0.4,0.1-0.8,0-0.9-0.4c-0.1-0.3,0-0.6,0.2-0.8c1.9-1.4,4.8-4.1,4.8-5.8&#10;&#9;&#9;c0-0.1,0-0.2,0-0.3c-0.9,0.4-1.8,1-2.5,1.7c-0.1,0.1-0.2,0.2-0.2,0.2c-0.3,0.3-0.7,0.3-1,0c-0.3-0.3-0.3-0.7,0-1c0,0,0,0,0,0&#10;&#9;&#9;l0.3-0.3c1.7-1.6,3.9-4.4,3.3-5.7c-0.1-0.3-0.2-0.4-0.4-0.5c-0.2,0-0.5,0.1-0.7,0.2c-0.5,0.4-1,0.9-1.7,1.4c-0.3,0.2-0.8,0.1-1-0.2&#10;&#9;&#9;c-0.2-0.2-0.2-0.6,0-0.8c0.5-0.6,1.1-1.1,1.8-1.5c1.2-1.1,1.8-1.9,1.8-2.6c0-0.6-0.3-1.2-0.8-1.6c-0.6-0.7-5.4,1.2-9.9,3.9&#10;&#9;&#9;c-0.2,0.1-0.5,0.1-0.7,0c-0.2-0.1-0.4-0.4-0.4-0.6v-4.5c-4.6,4-10.8,9.7-11.6,11.2c-0.9,1.8-1.5,7.2-1.7,9.1c0,0.2-0.1,0.4-0.3,0.5&#10;&#9;&#9;l-7.7,4.6c-0.3,0.2-0.8,0.1-1-0.2c0,0,0,0,0,0c-0.2-0.3-0.1-0.8,0.2-1c0,0,0,0,0,0l7.4-4.4c0.1-1.5,0.7-7.2,1.8-9.3&#10;&#9;&#9;c1.2-2.3,11.8-11.6,13-12.6c0.2-0.2,0.5-0.2,0.8-0.1c0.3,0.1,0.4,0.4,0.4,0.6v4.8c3.3-1.9,9-4.8,10.6-3c0.7,0.7,1.2,1.6,1.1,2.6&#10;&#9;&#9;c-0.1,0.8-0.4,1.6-1,2.2c0.5,0.3,0.8,0.7,1,1.2c0.5,1.3-0.2,2.9-1.1,4.2c0.2,0,0.3,0,0.5,0.1c0.6,0.3,0.9,0.9,0.8,1.5&#10;&#9;&#9;c0,1.6-1.6,3.5-3,4.9c0.5-0.1,1.1,0.1,1.5,0.5c0.4,0.5,0.3,1.1-0.2,1.9c-1.6,2.6-21.4,19.3-23.6,21.2&#10;&#9;&#9;C233.2,295.6,233.1,295.7,232.9,295.7z"/>
	<path class="st0_coo-91" d="M234.6,300.1c-0.3,0-0.5-0.1-0.6-0.4l-13.7-25l-20.9,11c-0.4,0.2-0.8,0.1-1-0.3c0,0,0,0,0,0&#10;&#9;&#9;c-0.2-0.3-0.1-0.8,0.3-1c0,0,0,0,0,0l21.5-11.4c0.4-0.2,0.8-0.1,1,0.3l14.1,25.6c0.2,0.4,0.1,0.8-0.3,1&#10;&#9;&#9;C234.9,300,234.7,300.1,234.6,300.1L234.6,300.1z"/>
</g>
</svg>