<svg version="1.1" id="Layer_1" xmlns="http://www.w3.org/2000/svg" xmlns:xlink="http://www.w3.org/1999/xlink" x="0px" y="0px" viewBox="0 0 500 500" style="width: 149px;" xml:space="preserve" data-imageid="cto-87" imageName="CTO" class="illustrations_image">
<style type="text/css">
	.st0_cto-87{fill:#FFFFFF;}
	.st1_cto-87{fill:#D1D3D4;}
	.st2_cto-87{fill:#231F20;}
	.st3_cto-87{fill:#68E1FD;}
</style>
<g id="Background_cto-87">
	<rect x="85.2" y="113.5" class="st0_cto-87" width="105.7" height="80.1"/>
	<path class="st1_cto-87" d="M190.9,194.3H85.2c-0.4,0-0.7-0.3-0.7-0.7v-80.1c0-0.4,0.3-0.7,0.7-0.7h105.7c0.4,0,0.7,0.3,0.7,0.7v80.1&#10;&#9;&#9;C191.6,194,191.3,194.3,190.9,194.3z M85.9,192.9h104.3v-78.7H85.9L85.9,192.9z"/>
	<path class="st1_cto-87" d="M116.7,176.1c-0.2,0-0.3,0-0.5-0.1l-1.3-0.4l-3.4-1c-0.2-0.1-0.5-0.2-0.7-0.3c-0.8-0.3-1.3-1.1-1.2-2l0.3-3.1&#10;&#9;&#9;c0-0.3,0-0.6,0-0.9c0-0.3-0.1-0.6-0.4-0.8c-0.8-0.6-1.6-1.2-2.4-1.9l-0.3-0.2c-0.3-0.3-0.8-0.3-1.2-0.2l-2.1,0.6l-0.9,0.3l-0.2,0.1&#10;&#9;&#9;c-1.6,0.4-2.4,0.1-3.2-1.3c-0.7-1.1-1.3-2.4-2.1-4c-0.6-0.9-0.4-2.2,0.6-2.8c0,0,0,0,0,0c0.9-0.8,1.6-1.4,2.4-2&#10;&#9;&#9;c0.6-0.4,0.9-1.1,0.8-1.8c-0.1-0.7-0.2-1.4-0.3-2l-0.2-1.2c0-0.2-0.1-0.4-0.4-0.6L99,150l-1.7-0.9c-0.8-0.3-1.5-0.9-1.8-1.7&#10;&#9;&#9;c0-0.1,0-0.1,0-0.2v-0.4c0-0.1,0-0.2,0-0.2l0.2-1c0.2-0.8,0.4-1.6,0.6-2.3c0.2-0.6,0.3-1.2,0.5-1.8c0.3-1,1.3-1.7,2.3-1.7&#10;&#9;&#9;c0.6,0,1.2,0.1,1.8,0.1l0.9,0.1h0.4c0.3,0,0.6,0,0.9,0c0.2,0,0.4-0.1,0.5-0.2c1-1.1,1.9-2.2,2.6-3.1c0.1-0.2,0.2-0.5,0.1-0.8&#10;&#9;&#9;c-0.1-0.5-0.3-0.9-0.4-1.4s-0.4-1.2-0.5-1.7c-0.2-0.5-0.2-1-0.2-1.4c0-0.5,0.2-1,0.6-1.4c1.6-1.2,3.3-2.2,5.2-2.9&#10;&#9;&#9;c0.8-0.3,1.8-0.1,2.3,0.6l0.8,0.9c0.5,0.6,1,1.1,1.4,1.7c0.3,0.5,0.9,0.8,1.4,0.7c0.8-0.1,1.5-0.2,2.2-0.3l1.2-0.1&#10;&#9;&#9;c0.2,0,0.4-0.2,0.5-0.4l0.6-1.1l0.6-1.1c0.3-0.5,0.5-0.9,0.8-1.4c0.4-0.8,1.4-1.3,2.3-1c1.7,0.4,3.3,0.9,4.9,1.3&#10;&#9;&#9;c0.9,0.3,1.6,1.2,1.5,2.2c0,0.6-0.1,1.2-0.1,1.8l-0.1,0.9c0,0.4-0.1,0.8-0.1,1.2c0,0.3,0.1,0.7,0.4,0.9l0.6,0.5&#10;&#9;&#9;c0.7,0.6,1.4,1.1,2.1,1.7c0.3,0.3,0.8,0.4,1.3,0.2l1.6-0.5l1.7-0.5c1.1-0.4,2.3,0.1,2.8,1.1c0.8,1.3,1.5,2.7,2.2,4&#10;&#9;&#9;c0.7,1,0.5,2.4-0.6,3.2c-0.3,0.3-0.7,0.6-1,0.9s-0.5,0.4-0.7,0.6c-0.4,0.3-0.8,0.7-1.1,1.1c-0.2,0.2-0.3,0.4-0.2,0.7l0.1,0.8&#10;&#9;&#9;c0.1,0.9,0.2,1.9,0.3,2.8c0,0.4,0.3,0.8,0.7,1l0.9,0.4l1.2,0.6c0.4,0.2,0.9,0.5,1.3,0.7c0.9,0.5,1.3,1.5,1,2.4&#10;&#9;&#9;c-0.4,1.5-0.8,3-1.3,4.5c-0.1,0.3-0.2,0.5-0.3,0.7c-0.4,0.8-1.2,1.2-2,1.2l-3.2-0.3h-0.3c-0.6-0.1-1.3,0.2-1.6,0.7&#10;&#9;&#9;c-0.4,0.5-0.8,1-1.2,1.6l-0.5,0.6c-0.4,0.4-0.5,1.1-0.3,1.6c0.3,1,0.7,2,1,3c0.5,1.1,0,2.4-1.1,2.9c0,0,0,0-0.1,0&#10;&#9;&#9;c-1.2,0.7-2.6,1.5-4.1,2.3c-0.9,0.6-2.1,0.4-2.8-0.5c-0.5-0.5-1-1.1-1.5-1.7l-0.3-0.4c-1.1-1.3-1.2-1.3-2.8-1.1l-2.2,0.3&#10;&#9;&#9;c-0.5,0-0.9,0.3-1.1,0.8l-0.4,0.8c-0.3,0.5-0.5,1.1-0.8,1.6c-0.3,0.4-0.5,0.9-0.9,1.2C117.8,175.8,117.3,176.1,116.7,176.1z&#10;&#9;&#9; M106.2,163.8c0.6,0,1.1,0.2,1.6,0.6l0.3,0.2c0.8,0.6,1.6,1.3,2.4,1.9c0.6,0.5,0.9,1.1,0.9,1.9c0,0.3,0,0.7,0,1l-0.3,3.1&#10;&#9;&#9;c0,0.3,0.1,0.5,0.4,0.6c0.1,0.1,0.3,0.2,0.5,0.2l3.4,1l1.3,0.4c0.1,0,0.2,0.1,0.4-0.2c0.3-0.3,0.5-0.6,0.7-1c0.3-0.5,0.5-1,0.8-1.6&#10;&#9;&#9;l0.4-0.8c0.4-0.9,1.3-1.5,2.2-1.6l2.2-0.3c2.2-0.3,2.7-0.1,4.1,1.6l0.3,0.4c0.5,0.6,0.9,1.1,1.4,1.6c0.2,0.4,0.7,0.5,1,0.2&#10;&#9;&#9;c0,0,0,0,0.1,0c1.5-0.8,2.9-1.5,4.1-2.2c0.7-0.4,0.7-0.5,0.5-1.3c-0.3-1-0.6-2-0.9-3c-0.4-1-0.2-2.2,0.5-3l0.5-0.6&#10;&#9;&#9;c0.4-0.5,0.8-0.9,1.2-1.4c0.7-1,1.8-1.5,3-1.3h0.2l3.1,0.3c0.3,0,0.5-0.1,0.6-0.4c0.1-0.2,0.2-0.3,0.2-0.5c0.4-1.5,0.9-3,1.3-4.4&#10;&#9;&#9;c0.1-0.4,0-0.7-0.4-0.9c-0.4-0.2-0.8-0.5-1.2-0.7l-1.2-0.6l-0.9-0.4c-0.8-0.4-1.4-1.2-1.5-2.1c-0.1-0.9-0.2-1.9-0.3-2.9l-0.1-0.7&#10;&#9;&#9;c-0.1-0.7,0.2-1.3,0.6-1.8c0.4-0.4,0.8-0.8,1.2-1.1l0.7-0.6c0.3-0.3,0.7-0.6,1-0.8c0.6-0.6,0.6-0.8,0.3-1.5c-0.7-1.3-1.4-2.6-2.2-4&#10;&#9;&#9;c-0.2-0.4-0.7-0.6-1.1-0.5c0,0,0,0-0.1,0l-1.7,0.5l-1.7,0.5c-0.9,0.3-1.9,0.1-2.6-0.5c-0.7-0.6-1.4-1.1-2-1.7L131,135&#10;&#9;&#9;c-0.6-0.5-0.9-1.2-0.9-2c0-0.4,0-0.9,0.1-1.3s0-0.6,0.1-0.9c0.1-0.6,0.1-1.1,0.1-1.7s-0.1-0.7-0.5-0.8c-1.6-0.5-3.3-0.9-4.9-1.3&#10;&#9;&#9;c-0.2-0.1-0.5-0.1-0.8,0.4s-0.5,0.9-0.8,1.3l-0.6,1.1c-0.2,0.4-0.4,0.8-0.6,1.1c-0.3,0.6-0.9,1-1.5,1.1l-1.2,0.1&#10;&#9;&#9;c-0.7,0.1-1.5,0.2-2.2,0.3c-1.1,0.2-2.2-0.2-2.8-1.1c-0.4-0.6-0.9-1.1-1.4-1.6l-0.8-0.9c-0.2-0.3-0.5-0.3-0.8-0.2&#10;&#9;&#9;c-1.7,0.6-3.4,1.6-4.8,2.7c0,0.1-0.1,0.2-0.1,0.3c0,0.3,0.1,0.7,0.2,1c0.2,0.6,0.3,1.1,0.5,1.7s0.3,0.9,0.4,1.4&#10;&#9;&#9;c0.2,0.7,0.1,1.4-0.3,2c-0.8,1-1.7,2.1-2.7,3.2c-0.4,0.4-0.9,0.6-1.4,0.6c-0.4,0-0.8,0-1.2,0h-0.3l-0.9-0.1&#10;&#9;&#9;c-0.6-0.1-1.1-0.1-1.7-0.1c-0.4,0-0.9,0.3-0.9,0.7c-0.2,0.6-0.4,1.1-0.5,1.7c-0.2,0.8-0.4,1.5-0.6,2.3l-0.2,0.9v0.1&#10;&#9;&#9;c0.3,0.4,0.7,0.7,1.2,0.9l1.7,0.9l1.2,0.6c0.6,0.3,1,0.9,1.1,1.6l0.2,1.2c0.1,0.7,0.2,1.4,0.3,2c0.2,1.2-0.3,2.4-1.3,3.1&#10;&#9;&#9;c-0.7,0.5-1.4,1.1-2.3,1.9c-0.5,0.4-0.5,0.6-0.2,1.1c0.8,1.6,1.5,2.8,2.1,3.9c0.5,0.9,0.6,0.9,1.6,0.6l1-0.3l2-0.6&#10;&#9;&#9;C105.6,163.8,105.9,163.8,106.2,163.8z M120.7,161.8c-5.7,0-10.4-4.4-10.9-10.1c-0.2-2.9,0.7-5.8,2.6-7.9&#10;&#9;&#9;c3.8-4.6,10.7-5.2,15.3-1.4c2.3,1.9,3.7,4.6,3.9,7.6c0.3,2.8-0.5,5.6-2.3,7.7c-1.9,2.4-4.7,3.8-7.8,4.1&#10;&#9;&#9;C121.3,161.7,121,161.7,120.7,161.8L120.7,161.8z M120.6,141.3c-0.3,0-0.5,0-0.8,0c-2.5,0.3-4.7,1.5-6.3,3.4&#10;&#9;&#9;c-1.7,1.9-2.5,4.4-2.3,6.9c0.4,5.3,5,9.2,10.3,8.8c2.6-0.2,5.1-1.5,6.7-3.6c1.5-1.9,2.2-4.3,2-6.7l0,0&#10;&#9;&#9;C129.9,145.1,125.7,141.2,120.6,141.3L120.6,141.3z"/>
	<path class="st1_cto-87" d="M160.5,184h-0.2c-0.6-0.1-1.2-0.2-1.9-0.3l-0.8-0.1c-0.7-0.1-1.2-0.7-1.2-1.4c0-0.2,0-0.5-0.1-0.7v-0.7&#10;&#9;&#9;c0-0.1,0-0.3,0-0.4c-0.2-0.5-0.6-0.9-1.1-1.1c-0.5-0.3-1-0.3-1.6-0.2l-0.5,0.2c-0.3,0.2-0.6,0.3-0.9,0.4c-0.4,0.2-0.9,0.1-1.3-0.1&#10;&#9;&#9;c-1-0.8-1.7-1.8-2.2-2.9c0-0.1-0.1-0.2-0.1-0.3c0-0.2,0-0.3,0-0.5v-0.1c0.1-0.2,0.1-0.4,0.2-0.5c0.2-0.3,0.4-0.6,0.7-0.8&#10;&#9;&#9;c0.8-0.7,1-1.9,0.4-2.7c-0.3-0.3-0.6-0.6-1-0.7c-0.3-0.2-0.6-0.3-0.9-0.4l-0.5-0.2c-0.6-0.2-1-0.9-0.9-1.5l0.1-0.5&#10;&#9;&#9;c0.1-0.8,0.2-1.6,0.4-2.3c0.1-0.5,0.5-0.9,1-1c0.5-0.1,0.9-0.2,1.4-0.1c0.7,0,1.3-0.4,1.6-1c0.6-0.6,0.7-1.6,0.2-2.3&#10;&#9;&#9;c-1-1.8-0.8-2.2,0.8-3.4c0.3-0.2,0.6-0.4,0.8-0.6l0.6-0.4c0.5-0.4,1.2-0.4,1.6,0.1l0.8,0.7l0.7,0.6c0.2,0.2,0.5,0.3,0.8,0.2&#10;&#9;&#9;l0.5-0.1l0.5-0.1c0.6-0.1,1.1-0.6,1.2-1.2c0.6-2.1,1.2-2.4,2.9-2.1l0.4,0.1l0.9,0.2l0.6,0.1c0.7,0.1,1.2,0.6,1.2,1.3&#10;&#9;&#9;c0,0.3,0,0.6,0.1,0.8s0.1,0.8,0.1,1.2c0,0.1,0.1,0.3,0.2,0.4l0.4,0.2c1.4,0.9,1.4,0.9,2.8,0.2l0.2-0.1c0.8-0.5,1.8-0.4,2.3,0.4&#10;&#9;&#9;c0,0,0,0.1,0.1,0.1c0.4,0.4,0.7,0.9,1,1.3l0.4,0.5c0.5,0.5,0.5,1.3,0,1.9l-0.1,0.1c-0.5,0.6-0.9,1.1-1.4,1.7&#10;&#9;&#9;c0.1,0.4,0.1,0.9,0.3,1.3l0.1,0.4c0.1,0.3,0.3,0.6,0.7,0.7c0.6,0.2,1.2,0.4,1.7,0.7c0.5,0.3,0.8,0.8,0.8,1.4&#10;&#9;&#9;c-0.1,0.9-0.1,1.8-0.3,2.7c-0.1,0.8-0.8,1.4-1.6,1.4c-0.1,0-0.3,0-0.4,0c-1.1-0.1-2.2,0.6-2.5,1.7c-0.2,0.3-0.2,0.7-0.1,1l0.2,0.4&#10;&#9;&#9;c0.1,0.3,0.3,0.6,0.4,1c0.4,0.7,0.2,1.6-0.5,2.1c-0.7,0.5-1.3,1-2,1.5c-0.6,0.5-1.4,0.4-1.9-0.1c-0.2-0.2-0.4-0.3-0.5-0.5&#10;&#9;&#9;s-0.5-0.5-0.8-0.7c-0.2-0.2-0.4-0.3-0.7-0.2l-0.3,0.1c-0.5,0.1-0.9,0.2-1.3,0.4c-0.1,0.1-0.3,0.2-0.3,0.3c-0.2,0.4-0.3,0.8-0.4,1.3&#10;&#9;&#9;C162.1,183.3,161.4,184,160.5,184z M154.1,177.6c0.6,0,1.1,0.1,1.7,0.4c0.9,0.4,1.6,1.1,1.9,2c0,0.2,0.1,0.5,0.1,0.7v0.7&#10;&#9;&#9;c0,0.2,0,0.5,0.1,0.7l0.8,0.2c0.6,0.1,1.2,0.2,1.8,0.3c0.1,0,0.4,0,0.5-0.5c0.1-0.5,0.3-1,0.6-1.5c0.2-0.4,0.6-0.8,1.1-1&#10;&#9;&#9;c0.5-0.2,1-0.3,1.5-0.4h0.3c0.7-0.2,1.5,0,2,0.6c0.2,0.2,0.5,0.4,0.8,0.7s0.4,0.3,0.6,0.5l0,0h0.2l0,0c0.6-0.5,1.3-1,2-1.5&#10;&#9;&#9;c0.1-0.1,0.2-0.1,0.1-0.4s-0.3-0.7-0.4-1l-0.2-0.4c-0.3-0.7-0.3-1.5,0.1-2.2c0.6-1.6,2.2-2.6,3.9-2.4h0.3c0.2,0,0.3-0.1,0.3-0.2&#10;&#9;&#9;c0.1-0.8,0.2-1.7,0.3-2.5c0,0-0.1-0.1-0.1-0.1c-0.4-0.2-0.9-0.4-1.4-0.6c-0.8-0.2-1.4-0.8-1.6-1.6l-0.1-0.4&#10;&#9;&#9;c-0.1-0.4-0.2-0.9-0.3-1.3c-0.1-0.4,0-0.9,0.3-1.2c0.5-0.6,0.9-1.2,1.4-1.8l0.1-0.1v-0.1l-0.4-0.6c-0.3-0.4-0.6-0.8-1-1.2&#10;&#9;&#9;s-0.3-0.3-0.3-0.3c-0.1,0-0.3,0.1-0.4,0.2L170,161c-2,0.9-2.3,0.9-4.2-0.2l-0.4-0.2c-0.5-0.3-0.8-0.9-0.8-1.4&#10;&#9;&#9;c0-0.4-0.1-0.8-0.1-1.1s-0.1-0.6-0.1-0.9c-0.3-0.1-0.5-0.2-0.8-0.2c-0.3-0.1-0.5-0.1-0.8-0.2l-0.4-0.1c-0.9-0.2-0.9-0.2-1.2,1.1&#10;&#9;&#9;c-0.2,1.1-1.1,2-2.3,2.2l-0.5,0.1l-0.6,0.1c-0.7,0.2-1.5,0-2-0.5l-0.7-0.6l-0.8-0.7l-0.6,0.4c-0.3,0.2-0.5,0.4-0.8,0.6&#10;&#9;&#9;c-0.3,0.2-0.6,0.5-0.9,0.8c0.1,0.3,0.2,0.6,0.4,0.9c0.8,1.2,0.7,2.7-0.2,3.8c-0.6,1-1.6,1.6-2.8,1.6c-0.4,0-0.7,0-1.1,0.1&#10;&#9;&#9;c-0.2,0.7-0.3,1.4-0.4,2.2l-0.1,0.5l0.5,0.2c0.4,0.1,0.7,0.3,1.1,0.5c0.6,0.3,1.1,0.7,1.4,1.2c0.9,1.4,0.6,3.3-0.6,4.4&#10;&#9;&#9;c-0.2,0.2-0.4,0.4-0.5,0.6c0,0,0,0.1,0,0.1c0.4,0.9,0.9,1.7,1.7,2.3c0.3-0.1,0.6-0.2,0.8-0.4l0.5-0.3&#10;&#9;&#9;C153.3,177.7,153.7,177.6,154.1,177.6L154.1,177.6z M161.3,175.9L161.3,175.9c-3.5,0-6.4-2.8-6.4-6.3s2.8-6.4,6.3-6.4&#10;&#9;&#9;c3.5,0,6.4,2.9,6.3,6.5C167.5,173.1,164.8,175.9,161.3,175.9L161.3,175.9z M161.1,164.6c-2.7-0.3-5.2,1.6-5.6,4.3s1.6,5.2,4.3,5.6&#10;&#9;&#9;c0.5,0.1,0.9,0,1.4,0l0,0c2.7,0,4.8-2.2,4.8-4.9C166.1,166.9,163.9,164.6,161.1,164.6L161.1,164.6z"/>
	<path class="st1_cto-87" d="M179.9,131.9h-21.5c-0.4,0-0.7-0.3-0.7-0.7c0-0.4,0.3-0.7,0.7-0.7c0,0,0,0,0,0h21.5c0.4,0,0.7,0.3,0.7,0.7&#10;&#9;&#9;C180.6,131.5,180.3,131.8,179.9,131.9z"/>
	<path class="st1_cto-87" d="M179.9,137.1h-21.5c-0.4,0-0.7-0.3-0.7-0.7c0-0.4,0.3-0.7,0.7-0.7h21.5c0.4,0,0.7,0.3,0.7,0.7&#10;&#9;&#9;C180.6,136.8,180.3,137.1,179.9,137.1z"/>
	<path class="st1_cto-87" d="M179.9,142.4h-21.5c-0.4,0-0.7-0.3-0.7-0.7c0-0.4,0.3-0.7,0.7-0.7h21.5c0.4,0,0.7,0.3,0.7,0.7&#10;&#9;&#9;C180.6,142.1,180.3,142.4,179.9,142.4z"/>
	<rect x="319.3" y="117.7" class="st0_cto-87" width="120.1" height="70.9"/>
	<path class="st1_cto-87" d="M439.4,189.2h-120c-0.4,0-0.7-0.3-0.7-0.7c0,0,0,0,0,0v-70.9c0-0.4,0.3-0.7,0.7-0.7l0,0h120&#10;&#9;&#9;c0.4,0,0.7,0.3,0.7,0.7v0v70.9C440.1,188.9,439.8,189.2,439.4,189.2L439.4,189.2z M320,187.9h118.7v-69.5H320V187.9z"/>
	<path class="st0_cto-87" d="M379.3,164.4c-1.1,0-2.2,0-3.3,0.1c-1.6,0.3-3.2-0.8-3.4-2.4c-0.8-2.5-2.1-4.9-3.8-6.9&#10;&#9;&#9;c-2.5-3-3.7-6.8-3.4-10.6c0.6-8,7-12.9,15.2-12.2c12.1,1,15.7,13.5,9.5,22.2c-1.7,2.4-3.3,4.7-4,7.6c-0.3,1.5-1.7,2.5-3.2,2.3&#10;&#9;&#9;C381.7,164.4,380.5,164.4,379.3,164.4z"/>
	<path class="st1_cto-87" d="M375.7,165.2c-1.8,0.1-3.5-1.2-3.8-3c-0.7-2.4-2-4.7-3.7-6.6c-2.6-3.1-3.9-7.1-3.6-11.1&#10;&#9;&#9;c0.2-3.7,1.9-7.2,4.7-9.6c3.2-2.5,7.2-3.7,11.2-3.3c5.4,0.5,9.7,3.3,11.8,7.7c2.3,5.2,1.6,11.2-1.8,15.7c-1.7,2.2-3.1,4.6-3.9,7.3&#10;&#9;&#9;c-0.4,1.8-2.1,3-3.9,2.8c-0.8,0-1.6,0-2.4,0h-1.1h-1c-0.8,0-1.5,0-2.3,0L375.7,165.2z M379.3,164.4L379.3,164.4z M379,132.9&#10;&#9;&#9;c-3.2-0.1-6.3,1-8.8,3c-2.5,2.2-4,5.3-4.2,8.6c-0.3,3.7,0.9,7.3,3.2,10.1c1.8,2.1,3.2,4.5,4,7.1c0.2,1.3,1.4,2.1,2.7,1.9&#10;&#9;&#9;c0,0,0,0,0,0c0.8,0,1.5,0,2.4,0h2.1c0.8,0,1.6,0,2.4,0c1.2,0.2,2.3-0.6,2.5-1.8c0.7-3.1,2.4-5.5,4.1-7.8c3.1-4.1,3.7-9.5,1.7-14.2&#10;&#9;&#9;c-1.9-4-5.7-6.5-10.6-6.9C380,133,379.5,132.9,379,132.9L379,132.9z"/>
	<path class="st0_cto-87" d="M374.4,164.5l9.8-0.1c0.6,0,1,0.4,1,1l0,1.3c0,0.6-0.4,1-1,1l-9.8,0.1c-0.6,0-1-0.4-1-1l0-1.3&#10;&#9;&#9;C373.4,164.9,373.9,164.5,374.4,164.5z"/>
	<path class="st1_cto-87" d="M374.9,168.5c-1.2,0-2.1-0.9-2.1-2.1V166c0-1.2,0.9-2.2,2.1-2.2l8.9-0.1c1.2,0,2.2,0.9,2.2,2.1c0,0,0,0,0,0&#10;&#9;&#9;v0.5c0,1.2-0.9,2.2-2.1,2.2l0,0L374.9,168.5L374.9,168.5z M383.9,167.7L383.9,167.7z M383.9,165.1L383.9,165.1l-8.9,0.1&#10;&#9;&#9;c-0.4,0-0.7,0.3-0.7,0.8v0.5c0,0.4,0.3,0.7,0.7,0.7l0,0l8.9-0.1c0.4,0,0.7-0.3,0.7-0.8v-0.5C384.6,165.4,384.3,165.1,383.9,165.1z"/>
	<path class="st0_cto-87" d="M374.5,167.8l9.8-0.1c0.6,0,1,0.4,1,1l0,1.3c0,0.6-0.4,1-1,1l-9.8,0.1c-0.6,0-1-0.4-1-1l0-1.3&#10;&#9;&#9;C373.5,168.3,373.9,167.8,374.5,167.8z"/>
	<path class="st1_cto-87" d="M374.9,171.9c-0.6,0-1.1-0.2-1.5-0.6c-0.4-0.4-0.6-0.9-0.6-1.5v-0.5c0-1.2,0.9-2.2,2.1-2.2l8.9-0.1&#10;&#9;&#9;c0.6,0,1.1,0.2,1.5,0.6c0.4,0.4,0.6,0.9,0.6,1.5v0.5c0,1.2-0.9,2.2-2.1,2.2l0,0L374.9,171.9L374.9,171.9z M383.9,171.1L383.9,171.1&#10;&#9;&#9;z M383.9,168.4L383.9,168.4l-8.9,0.1c-0.4,0-0.7,0.3-0.7,0.8v0.5c0,0.2,0.1,0.4,0.2,0.5c0.2,0.1,0.3,0.2,0.5,0.2l8.9-0.1&#10;&#9;&#9;c0.4,0,0.7-0.3,0.7-0.8v-0.5c0-0.2-0.1-0.4-0.2-0.5C384.3,168.5,384,168.4,383.9,168.4L383.9,168.4z"/>
	<path class="st0_cto-87" d="M384,171.1c0,1.3-2,2.3-4.6,2.4s-4.6-1-4.6-2.2L384,171.1z"/>
	<path class="st1_cto-87" d="M379.3,174.1c-3,0-5.2-1.2-5.2-2.9c0-0.2,0.1-0.4,0.2-0.5c0.1-0.1,0.3-0.2,0.5-0.2l9.2-0.1l0,0&#10;&#9;&#9;c0.4,0,0.7,0.3,0.7,0.7c-0.1,1-0.7,1.9-1.7,2.3c-1.1,0.5-2.3,0.8-3.5,0.8H379.3z M376,171.9c1,0.6,2.2,0.9,3.4,0.9&#10;&#9;&#9;c1,0,2-0.2,2.9-0.6c0.2-0.1,0.3-0.2,0.5-0.3L376,171.9z"/>
	<path class="st0_cto-87" d="M377.2,162.7c0.2-3.6,0.5-7.2-0.4-10.7c-0.4-1.7-1.1-3.3-2.2-4.7c-1-1-2.7-0.9-3.7,0.1c0,0-0.1,0.1-0.1,0.1&#10;&#9;&#9;c-0.5,0.8-0.6,1.8-0.2,2.7c0.4,0.8,1.1,1.6,1.8,2.1c3.4,2.4,7.8,2.5,11.3,0.4c1.1-0.6,2-1.6,2.6-2.8c0.6-1.2,0.6-2.6,0-3.8&#10;&#9;&#9;c-0.7-1.2-2-0.4-2.7,0.4c-1.5,1.7-1.8,4.5-2,6.7c-0.3,3.1-0.2,6.2,0.4,9.3"/>
	<path class="st1_cto-87" d="M377.2,163.4L377.2,163.4c-0.4,0-0.7-0.4-0.7-0.7c0,0,0,0,0,0v-0.3c0.3-2.5,0.3-5.1,0.1-7.6&#10;&#9;&#9;c-1.6-0.3-3.2-0.9-4.5-1.9c-0.9-0.6-1.6-1.4-2.1-2.4c-0.5-1.1-0.4-2.4,0.2-3.4c1.1-1.4,3.2-1.6,4.6-0.5c0.1,0.1,0.2,0.1,0.2,0.2&#10;&#9;&#9;c1.1,1.5,1.9,3.2,2.3,5c0.2,0.6,0.3,1.1,0.4,1.7c1.1,0.1,2.1,0,3.2-0.3V153c0.2-2.2,0.5-5,2.1-6.8c0.6-0.7,1.5-1.2,2.5-1.2&#10;&#9;&#9;c0.6,0.1,1.1,0.4,1.4,1c0.7,1.4,0.7,3,0.1,4.4c-0.6,1.3-1.7,2.4-2.9,3.1c-0.6,0.4-1.2,0.7-1.9,0.9c-0.2,2.8,0,5.5,0.4,8.2&#10;&#9;&#9;c0.1,0.4-0.2,0.7-0.5,0.8s-0.7-0.2-0.8-0.5c0,0,0,0,0-0.1c-0.5-2.6-0.6-5.3-0.5-8c-0.9,0.2-1.9,0.3-2.9,0.2c0.2,2.5,0.1,5-0.1,7.6&#10;&#9;&#9;v0.3C377.9,163.2,377.6,163.4,377.2,163.4z M372.9,147.3h-0.1c-0.5,0-1,0.2-1.3,0.6c-0.4,0.6-0.4,1.4-0.1,2&#10;&#9;&#9;c0.4,0.7,0.9,1.4,1.6,1.8c1,0.7,2.2,1.3,3.5,1.5c-0.1-0.4-0.2-0.8-0.3-1.1c-0.3-1.6-1-3.1-2-4.4&#10;&#9;&#9;C373.8,147.4,373.4,147.3,372.9,147.3L372.9,147.3z M385.5,146.3c-0.5,0.1-0.9,0.4-1.2,0.8c-1.2,1.4-1.5,3.7-1.7,5.6&#10;&#9;&#9;c0.3-0.2,0.7-0.3,1-0.5c1-0.6,1.8-1.4,2.4-2.5c0.5-1,0.5-2.1,0-3.1C385.7,146.3,385.6,146.3,385.5,146.3L385.5,146.3z"/>
	<path class="st1_cto-87" d="M354.9,163.8h-17c-0.4,0-0.7-0.3-0.7-0.7s0.3-0.7,0.7-0.7c0,0,0,0,0,0h17c0.4,0,0.7,0.3,0.7,0.7&#10;&#9;&#9;C355.6,163.5,355.3,163.8,354.9,163.8z"/>
	<path class="st1_cto-87" d="M354.9,168.7h-17c-0.4,0-0.7-0.3-0.7-0.7c0-0.4,0.3-0.7,0.7-0.7h17c0.4,0,0.7,0.3,0.7,0.7&#10;&#9;&#9;C355.6,168.4,355.3,168.7,354.9,168.7z"/>
	<path class="st1_cto-87" d="M354.9,173.6h-17c-0.4,0-0.7-0.3-0.7-0.7c0-0.4,0.3-0.7,0.7-0.7h17c0.4,0,0.7,0.3,0.7,0.7&#10;&#9;&#9;C355.6,173.3,355.3,173.6,354.9,173.6z"/>
	<path class="st1_cto-87" d="M350.4,178.5h-12.6c-0.4,0-0.7-0.3-0.7-0.7s0.3-0.7,0.7-0.7c0,0,0,0,0,0h12.5c0.4,0,0.7,0.3,0.7,0.7&#10;&#9;&#9;C351.1,178.2,350.8,178.5,350.4,178.5L350.4,178.5z"/>
	<path class="st1_cto-87" d="M423,131.9h-22.5c-0.4,0-0.7-0.3-0.7-0.7c0-0.4,0.3-0.7,0.7-0.7H423c0.4,0,0.7,0.3,0.7,0.7&#10;&#9;&#9;C423.7,131.6,423.4,131.9,423,131.9z"/>
	<path class="st1_cto-87" d="M423,136.9h-22.5c-0.4,0-0.7-0.3-0.7-0.7s0.3-0.7,0.7-0.7c0,0,0,0,0,0H423c0.4,0,0.7,0.3,0.7,0.7&#10;&#9;&#9;S423.4,136.9,423,136.9C423,136.9,423,136.9,423,136.9z"/>
	<path class="st1_cto-87" d="M423,141.8h-22.5c-0.4,0-0.7-0.3-0.7-0.7c0-0.4,0.3-0.7,0.7-0.7H423c0.4,0,0.7,0.3,0.7,0.7&#10;&#9;&#9;C423.7,141.5,423.4,141.8,423,141.8z"/>
	<path class="st1_cto-87" d="M417.1,146.7h-16.5c-0.4,0-0.7-0.3-0.7-0.7c0-0.4,0.3-0.7,0.7-0.7h16.5c0.4,0,0.7,0.3,0.7,0.7&#10;&#9;&#9;C417.8,146.4,417.5,146.7,417.1,146.7z"/>
	<rect x="400.5" y="159.6" class="st0_cto-87" width="20.9" height="13.3"/>
	<path class="st1_cto-87" d="M421.4,173.6h-20.9c-0.4,0-0.7-0.3-0.7-0.7c0,0,0,0,0,0v-13.3c0-0.4,0.3-0.7,0.7-0.7l0,0h20.9&#10;&#9;&#9;c0.4,0,0.7,0.3,0.7,0.7c0,0,0,0,0,0v13.3C422.1,173.3,421.8,173.6,421.4,173.6z M401.2,172.2h19.5v-11.9h-19.5V172.2z"/>
	<polygon class="st0_cto-87" points="400.5,172.9 397,179.5 425,179.5 421.4,172.9 &#9;"/>
	<path class="st1_cto-87" d="M425,180.2h-28c-0.4,0-0.7-0.3-0.7-0.7c0-0.1,0-0.2,0.1-0.3l3.5-6.6c0.1-0.2,0.4-0.4,0.6-0.4h20.9&#10;&#9;&#9;c0.3,0,0.5,0.1,0.6,0.4l3.5,6.6c0.1,0.2,0.1,0.5,0,0.7C425.4,180.1,425.2,180.2,425,180.2z M398.2,178.8h25.6l-2.8-5.2h-20&#10;&#9;&#9;L398.2,178.8z"/>
	<path class="st0_cto-87" d="M334.7,130.6v17.8c0,1.7,5,3.1,11.2,3.1s11.2-1.4,11.2-3.1v-17.8H334.7z"/>
	<path class="st1_cto-87" d="M345.9,152.2c-5.7,0-11.9-1.2-11.9-3.8v-17.8c0-0.4,0.3-0.7,0.7-0.7l0,0h22.4c0.4,0,0.7,0.3,0.7,0.7&#10;&#9;&#9;c0,0,0,0,0,0v17.8C357.8,151,351.6,152.2,345.9,152.2z M335.4,131.3v17.1c0,0.8,3.7,2.4,10.5,2.4s10.5-1.6,10.5-2.4v-17.1H335.4z"/>
	<ellipse class="st0_cto-87" cx="345.9" cy="130.6" rx="11.2" ry="3.1"/>
	<path class="st1_cto-87" d="M345.9,134.4c-5.7,0-11.9-1.2-11.9-3.8s6.2-3.8,11.9-3.8s11.9,1.2,11.9,3.8S351.6,134.4,345.9,134.4z&#10;&#9;&#9; M345.9,128.2c-6.8,0-10.5,1.6-10.5,2.4s3.7,2.4,10.5,2.4s10.5-1.6,10.5-2.4S352.7,128.2,345.9,128.2L345.9,128.2z"/>
	<path class="st0_cto-87" d="M357.1,135.5c0,1.7-5,3.1-11.2,3.1s-11.2-1.4-11.2-3.1"/>
	<path class="st1_cto-87" d="M345.9,139.3c-5.7,0-11.9-1.2-11.9-3.8c0-0.4,0.3-0.7,0.7-0.7c0.4,0,0.7,0.3,0.7,0.7c0,0.8,3.7,2.4,10.5,2.4&#10;&#9;&#9;s10.5-1.6,10.5-2.4c0-0.4,0.3-0.7,0.7-0.7c0.4,0,0.7,0.3,0.7,0.7C357.8,138.1,351.6,139.3,345.9,139.3z"/>
	<path class="st0_cto-87" d="M357.1,141.1c0,1.7-5,3.1-11.2,3.1s-11.2-1.4-11.2-3.1"/>
	<path class="st1_cto-87" d="M345.9,144.8c-5.7,0-11.9-1.2-11.9-3.8c0-0.4,0.3-0.7,0.7-0.7c0.4,0,0.7,0.3,0.7,0.7c0,0.8,3.7,2.4,10.5,2.4&#10;&#9;&#9;s10.5-1.6,10.5-2.4c0-0.4,0.3-0.7,0.7-0.7c0.4,0,0.7,0.3,0.7,0.7C357.8,143.6,351.6,144.8,345.9,144.8z"/>
</g>
<g id="Chair_cto-87">
	<path class="st2_cto-87" d="M202.1,201.1h86.5c17,0,30.9,13.8,30.9,30.9c0,0,0,0,0,0v97.6l0,0H171.2l0,0V232&#10;&#9;&#9;C171.2,215,185,201.1,202.1,201.1C202.1,201.1,202.1,201.1,202.1,201.1z"/>
	<path class="st2_cto-87" d="M319.4,330.3H171.2c-0.4,0-0.7-0.3-0.7-0.7l0,0v-85.3c0.1-24.2,19.7-43.8,43.9-43.9h61.8&#10;&#9;&#9;c24.2,0.1,43.8,19.7,43.9,43.9v85.3C320.1,330,319.8,330.3,319.4,330.3z M171.9,328.9h146.8v-84.6c0-23.5-19-42.5-42.5-42.5h-61.8&#10;&#9;&#9;c-23.5,0-42.5,19-42.5,42.5L171.9,328.9z"/>
</g>
<g id="Character_cto-87">
	<g id="Character-2_cto-87">
		<path class="st0_cto-87" d="M374.4,221.7c0,0,8.1-11.4,9.7-13.9c4-8.4,5-14.3,9.4-14.2c2.2,0.1-0.9,5-2.7,11.8c0,0,18.5-13.1,21.3-9.5&#10;&#9;&#9;&#9;s3.1,11.8,0,14.7s-15.1,8.1-16.1,9.7s-7.1,12.6-7.1,12.6L374.4,221.7z"/>
		<path class="st2_cto-87" d="M389.1,233.6c-0.2,0-0.3,0-0.4-0.1L374,222.3c-0.3-0.2-0.4-0.7-0.2-1c0,0,0,0,0,0c0.1-0.1,8.1-11.4,9.7-13.9&#10;&#9;&#9;&#9;c0.9-1.9,1.7-3.8,2.4-5.5c2.3-5.4,3.8-9,7.5-9h0.2c0.5,0,0.9,0.2,1.2,0.6c0.7,1,0,2.6-1.1,5.7c-0.5,1.3-1,2.9-1.6,4.6&#10;&#9;&#9;&#9;c5.1-3.5,17.9-11.7,20.7-8.2c3,3.7,3.4,12.4-0.1,15.7c-1.7,1.6-5.6,3.7-9.4,5.7c-2.7,1.5-6.1,3.3-6.5,3.9c-1,1.5-7,12.4-7,12.5&#10;&#9;&#9;&#9;c-0.1,0.2-0.3,0.3-0.5,0.4L389.1,233.6z M375.4,221.6l13.5,10.3c1.4-2.5,5.8-10.5,6.7-11.9c0.5-0.9,2.9-2.2,7-4.4&#10;&#9;&#9;&#9;c3.6-1.9,7.6-4,9.1-5.5c2.8-2.6,2.7-10.3-0.1-13.8c-1-1.3-8,0.8-20.4,9.6c-0.2,0.2-0.6,0.2-0.8,0c-0.2-0.2-0.4-0.5-0.3-0.8&#10;&#9;&#9;&#9;c0.6-2.2,1.3-4.4,2.1-6.6c0.6-1.8,1.5-4,1.2-4.4h-0.1c-2.8,0-4,2.7-6.3,8.2c-0.7,1.7-1.5,3.6-2.4,5.6&#10;&#9;&#9;&#9;C383.4,210.4,377.1,219.2,375.4,221.6L375.4,221.6z"/>
		<polygon class="st2_cto-87" points="370.9,222.7 374.1,217.7 391,231.9 387.9,237.3 &#9;&#9;"/>
		<path class="st2_cto-87" d="M387.9,238c-0.2,0-0.3-0.1-0.5-0.2l-17-14.6c-0.3-0.2-0.3-0.6-0.1-0.9l3.2-5c0.1-0.2,0.3-0.3,0.5-0.3&#10;&#9;&#9;&#9;c0.2,0,0.4,0,0.6,0.2l16.8,14.2c0.3,0.2,0.3,0.6,0.1,0.9l-3,5.4c-0.1,0.2-0.3,0.3-0.5,0.4L387.9,238z M371.8,222.6l15.9,13.6&#10;&#9;&#9;&#9;l2.3-4.1l-15.8-13.3L371.8,222.6z"/>
		<path class="st3_cto-87 targetColor" d="M230.2,187.1c0,0-38.4,12-42.6,21.2c-3,6.6-11.3,58.9-12.3,84.8c-1,26.7-8.5,39-8.5,39l34.7,1.2&#10;&#9;&#9;&#9;c0,0,2.7-27.7,3.2-37.9c0.5-7.5,1.3-14.9,2.5-22.3c0,0,3.4,17.3,3.1,23.6s-2.3,36.5-2.3,36.5h89.6c0,0-4.5-39.9-4-45.3&#10;&#9;&#9;&#9;s5.6-28.4,5.6-28.4l10.8-57c0,0-36.5-14.9-40.9-16.4S230.2,187.1,230.2,187.1z" style="fill: rgb(104, 225, 253);"/>
		<path class="st2_cto-87" d="M254,334c-0.4,0-0.7-0.3-0.7-0.7l0,0v-47.6c0-0.4,0.3-0.7,0.7-0.7c0.4,0,0.7,0.3,0.7,0.7v47.5&#10;&#9;&#9;&#9;C254.7,333.6,254.4,334,254,334C254,334,254,334,254,334z"/>
		<polygon class="st2_cto-87" points="234.4,177.8 267.5,177.9 266.9,190.5 243.5,190.5 232.2,185.1 &#9;&#9;"/>
		<path class="st2_cto-87" d="M266.9,191.2h-23.4c-0.1,0-0.2,0-0.3-0.1l-11.4-5.4c-0.3-0.1-0.5-0.5-0.4-0.8l2.2-7.3&#10;&#9;&#9;&#9;c0.1-0.3,0.4-0.5,0.7-0.5l0,0l33.1,0.1c0.4,0,0.7,0.3,0.7,0.7c0,0,0,0,0,0l-0.6,12.6C267.6,190.9,267.3,191.2,266.9,191.2z&#10;&#9;&#9;&#9; M243.7,189.8h22.5l0.5-11.2l-31.8-0.1l-1.9,6.2L243.7,189.8z"/>
		<path class="st0_cto-87" d="M276.1,145.7c1.9-4.1,2.5-9,2.9-13.4c0.2-1.5,0.2-3.1,0-4.6c-0.4-2.1-1-4.1-1.7-6.1c1.8-2.7,2.2-6.1,1-9.1&#10;&#9;&#9;&#9;l-2.2,3c0.8-4.7-0.5-9.6-3.6-13.3c-2.7,3.2-6.3,5.5-10.4,6.5c2.7-2.2,4.2-5.5,3.9-9c-2.7,2.7-6.9,3.4-10.7,3.4s-7.8-0.4-11.5,0.6&#10;&#9;&#9;&#9;c-3.5,1-6.7,3-9.1,5.8c-1.9,2.2-2,4.7-4.3,6.6c-5.6,4.4-6.1,8.6-5.2,15.5c0.8,6.4,3,12.7,3.6,18.9c7.4,0.4,14.8,1.1,22.2,1&#10;&#9;&#9;&#9;C256.9,151.4,272.9,152.6,276.1,145.7z"/>
		<path class="st2_cto-87" d="M257,152.2c-1.1,0-2.2,0-3.2,0s-2.1,0-2.9,0c-6,0.1-12.1-0.3-18-0.7l-4.2-0.3c-0.3,0-0.6-0.3-0.6-0.6&#10;&#9;&#9;&#9;c-0.4-3.3-1-6.6-1.8-9.8c-0.7-3-1.3-6-1.8-9.1c-0.9-7.3-0.3-11.6,5.5-16.2c1-0.9,1.8-2,2.3-3.3c0.5-1.1,1.1-2.2,1.9-3.2&#10;&#9;&#9;&#9;c2.5-2.9,5.8-5,9.4-6c2.8-0.6,5.8-0.8,8.7-0.6c1,0,2,0,3,0c4.7-0.1,8.1-1.1,10.2-3.2c0.3-0.3,0.7-0.3,1,0c0.1,0.1,0.2,0.3,0.2,0.4&#10;&#9;&#9;&#9;c0.2,2.7-0.5,5.4-2.1,7.5c2.9-1.2,5.4-3,7.4-5.4c0.1-0.2,0.3-0.3,0.5-0.2l0,0c0.2,0,0.4,0.1,0.5,0.2c2.6,3.2,4,7.2,3.9,11.3&#10;&#9;&#9;&#9;l0.7-0.9c0.2-0.3,0.7-0.4,1-0.2c0.1,0.1,0.2,0.2,0.2,0.3c1.2,3.1,0.9,6.6-0.9,9.5c0.7,2,1.3,4,1.6,6c0.2,1.6,0.2,3.2,0,4.8&#10;&#9;&#9;&#9;c-0.5,4.6-1.1,9.5-3,13.6l0,0C274.2,151.6,264.4,152.2,257,152.2z M251.7,150.7h2.2c6.7,0.1,19.1,0.2,21.6-5.3&#10;&#9;&#9;&#9;c1.8-4,2.4-8.7,2.9-13.2c0.1-1.5,0.1-3,0-4.5c0-0.5-1.2-4.9-1.6-5.7c-0.2-0.2-0.2-0.6,0-0.8c1.4-2.1,1.8-4.7,1.3-7.1l-1.4,1.9&#10;&#9;&#9;&#9;c-0.2,0.3-0.7,0.4-1,0.1c-0.2-0.2-0.3-0.4-0.3-0.7c0.7-4.2-0.3-8.6-2.9-12c-2.7,3-6.3,5.1-10.2,6.1c-0.4,0.1-0.8-0.1-0.9-0.5&#10;&#9;&#9;&#9;c-0.1-0.3,0-0.6,0.3-0.7c2.1-1.7,3.5-4.2,3.6-6.9c-2.4,1.7-5.7,2.6-10,2.7c-1,0-2,0-3,0c-2.8-0.2-5.6,0-8.3,0.6&#10;&#9;&#9;&#9;c-3.4,1-6.4,2.9-8.7,5.6c-0.7,0.9-1.3,1.8-1.7,2.8c-0.6,1.5-1.5,2.8-2.7,3.8c-5.3,4.2-5.8,8-5,14.9c0.4,3,1,6,1.8,9&#10;&#9;&#9;&#9;c0.8,3.1,1.4,6.2,1.8,9.4l3.6,0.2c5.9,0.4,11.9,0.8,17.9,0.7L251.7,150.7z M276.1,145.7L276.1,145.7z"/>
		<path class="st0_cto-87" d="M236.7,146.8c-1-8.1-14.3-10.5-13.9-1c0,3.3,1.1,6.5,3.2,9c2.2,2.4,5.8,3.6,8.9,2.4"/>
		<path class="st2_cto-87" d="M232.3,158.3c-2.6,0-5.1-1.2-6.8-3.1c-2.2-2.7-3.4-6-3.4-9.5c-0.2-4.7,2.8-6.6,5.6-6.8&#10;&#9;&#9;&#9;c4.2-0.3,9.1,2.7,9.8,7.8c0,0.4-0.2,0.7-0.6,0.8c0,0,0,0,0,0c-0.4,0-0.7-0.2-0.8-0.6c-0.5-4.2-4.8-6.8-8.3-6.5&#10;&#9;&#9;&#9;c-2.8,0.2-4.4,2.2-4.3,5.4c0,3.1,1.1,6.2,3.1,8.6c2,2.3,5.2,3.2,8.1,2.2c0.3-0.2,0.8-0.1,0.9,0.3c0.2,0.3,0.1,0.8-0.3,0.9&#10;&#9;&#9;&#9;c0,0-0.1,0-0.1,0.1C234.2,158.2,233.3,158.3,232.3,158.3z"/>
		<path class="st0_cto-87" d="M265.6,146.8c1-8.1,14.3-10.5,13.9-1c0,3.3-1.1,6.5-3.2,9c-2.2,2.4-5.8,3.6-8.9,2.4"/>
		<path class="st2_cto-87" d="M269.9,158.3c-1,0-1.9-0.2-2.8-0.5c-0.4-0.1-0.6-0.5-0.5-0.9c0.1-0.4,0.5-0.6,0.9-0.5c0.1,0,0.1,0,0.1,0.1&#10;&#9;&#9;&#9;c2.9,1,6.1,0.1,8.1-2.2c2-2.4,3.1-5.4,3.1-8.6c0.1-3.2-1.5-5.2-4.3-5.4c-3.5-0.3-7.7,2.3-8.3,6.5c-0.1,0.4-0.4,0.6-0.8,0.6&#10;&#9;&#9;&#9;c-0.4,0-0.7-0.4-0.6-0.8c0,0,0,0,0,0c0.6-5.1,5.6-8.1,9.8-7.8c2.8,0.2,5.7,2.1,5.6,6.8c0,3.5-1.2,6.8-3.4,9.5&#10;&#9;&#9;&#9;C275,157.2,272.5,158.3,269.9,158.3z"/>
		<path class="st0_cto-87" d="M235.7,186.9c0,0,6.1,3.1,16.6,3.5s12.3-2.5,12.3-2.5l-0.2-5.6l-0.6-13.1l-0.6-12.2l-24-0.8l-1.2,9.9&#10;&#9;&#9;&#9;l-0.4,3.2L235.7,186.9z"/>
		<path class="st2_cto-87" d="M254.1,191.1c-0.6,0-1.2,0-1.8,0c-10.6-0.4-16.7-3.4-16.9-3.6c-0.3-0.1-0.4-0.4-0.4-0.7l3.5-30.8&#10;&#9;&#9;&#9;c0-0.4,0.4-0.6,0.7-0.6l24,0.8c0.4,0,0.7,0.3,0.7,0.7l1.4,30.9c0,0.1,0,0.3-0.1,0.4C265,188.6,263.1,191.1,254.1,191.1z&#10;&#9;&#9;&#9; M236.4,186.5c5.1,2,10.5,3.1,15.9,3.2c8.4,0.3,11-1.5,11.5-2l-1.3-30l-22.7-0.8L236.4,186.5z"/>
		<path class="st2_cto-87" d="M237.7,169.3c1.9,3,4.5,5.5,7.6,7.2c5.1,3,12.7,6.5,19,5.8l-0.6-13.1c-4.6,0.4-9.3,0.3-13.9-0.4&#10;&#9;&#9;&#9;c-4-0.5-8.2-1-11.9-2.7L237.7,169.3z"/>
		<path class="st2_cto-87" d="M262.5,183.1c-6.5,0-13.7-3.7-17.6-6c-3.2-1.8-5.9-4.3-7.9-7.4c-0.1-0.1-0.1-0.3-0.1-0.4l0.4-3.2&#10;&#9;&#9;&#9;c0-0.2,0.2-0.4,0.4-0.5c0.2-0.1,0.4-0.1,0.6,0c3.7,1.7,7.9,2.2,11.6,2.7c4.5,0.7,9.1,0.8,13.7,0.4c0.2,0,0.4,0,0.5,0.2&#10;&#9;&#9;&#9;c0.2,0.1,0.2,0.3,0.2,0.5l0.6,13.1c0,0.4-0.2,0.7-0.6,0.7C263.8,183.1,263.1,183.1,262.5,183.1z M238.4,169.2&#10;&#9;&#9;&#9;c1.8,2.8,4.3,5.1,7.3,6.7c3.9,2.4,11.4,6.2,17.9,5.8l-0.5-11.7c-4.4,0.3-8.9,0.2-13.3-0.5c-3.8-0.3-7.6-1.1-11.2-2.4L238.4,169.2z&#10;&#9;&#9;&#9;"/>
		<path class="st0_cto-87" d="M272.1,125l-1,29.1c0,1.2-0.2,2.5-0.5,3.7c-2.1,8.5-9.8,14.3-18.5,14l-2.1-0.1c-8.2-0.3-15.2-5.9-17.2-13.8&#10;&#9;&#9;&#9;c-0.4-1.7-0.6-3.5-0.6-5.2l1-29.1c0,0,4.6,6,17.6,5.9C263.8,129.4,272.1,125,272.1,125z"/>
		<path class="st2_cto-87" d="M252.7,172.6h-0.7l-2.1-0.1c-10.5-0.4-18.8-9.2-18.4-19.7c0,0,0,0,0,0l1-29.1c0-0.4,0.3-0.7,0.7-0.7&#10;&#9;&#9;&#9;c0.2,0,0.4,0.1,0.6,0.3c0,0.1,4.5,5.6,16.7,5.6h0.4c12.7-0.1,21-4.4,21-4.4c0.3-0.2,0.8,0,0.9,0.3c0.1,0.1,0.1,0.2,0.1,0.3&#10;&#9;&#9;&#9;l-1,29.1c0,1.3-0.2,2.6-0.5,3.8C269.2,166.5,261.5,172.6,252.7,172.6z M233.8,125.3l-1,27.5c-0.3,9.8,7.3,18,17.1,18.3&#10;&#9;&#9;&#9;c0,0,0.1,0,0.1,0l2.1,0.1c9.7,0.4,17.9-7.2,18.3-17c0,0,0-0.1,0-0.1l1-28c-6.5,2.7-13.5,4.1-20.6,4.1h-0.4&#10;&#9;&#9;&#9;C241,130.2,235.9,127.1,233.8,125.3L233.8,125.3z"/>
		<path class="st0_cto-87" d="M251.9,141.3c0,0,6.1,13.3,3.4,13.6s-6.5-1.8-6.5-1.8"/>
		<path class="st2_cto-87" d="M254.8,155.6c-2.2-0.2-4.4-0.8-6.3-1.9c-0.3-0.2-0.5-0.6-0.3-0.9c0.2-0.3,0.6-0.5,0.9-0.3c0,0,0,0,0,0&#10;&#9;&#9;&#9;c0,0,3.6,1.9,6.1,1.7c0.6-0.8-1.2-6.5-3.9-12.6c-0.2-0.4,0-0.8,0.3-0.9c0.4-0.2,0.8,0,0.9,0.4c1.2,2.7,5.1,11.7,3.8,13.9&#10;&#9;&#9;&#9;c-0.2,0.4-0.6,0.6-1,0.7L254.8,155.6z"/>
		<path class="st2_cto-87" d="M255.6,163.3c-3.5-0.1-6.9-0.9-10-2.3c-0.4-0.2-0.5-0.6-0.4-0.9s0.6-0.5,0.9-0.4l0,0&#10;&#9;&#9;&#9;c8.9,3.8,13.7,1.5,13.7,1.4c0.3-0.2,0.8,0,0.9,0.3c0.2,0.3,0,0.8-0.3,0.9l0,0C259,163.1,257.3,163.4,255.6,163.3z"/>
		<ellipse class="st2_cto-87" cx="244" cy="139.3" rx="1.3" ry="2.9"/>
		<ellipse class="st2_cto-87" cx="260.9" cy="139.3" rx="1.3" ry="2.9"/>
		<polygon class="st2_cto-87" points="231.1,184.4 253.5,282.6 258.6,258.2 270.5,184.4 252.3,190.4 &#9;&#9;"/>
		<path class="st2_cto-87" d="M253.5,283.3c-0.3,0-0.6-0.2-0.7-0.5l-22.5-98.3c-0.1-0.2,0-0.5,0.2-0.7c0.2-0.2,0.4-0.2,0.7-0.2l21,6l18-6&#10;&#9;&#9;&#9;c0.2-0.1,0.5,0,0.7,0.1c0.2,0.2,0.3,0.4,0.2,0.6l-11.9,73.8l-5.1,24.5C254.1,283.1,253.8,283.3,253.5,283.3L253.5,283.3z&#10;&#9;&#9;&#9; M232,185.3l21.5,94L258,258l11.7-72.7l-17.1,5.7c-0.1,0-0.3,0-0.4,0L232,185.3z"/>
		<polygon class="st0_cto-87" points="244.4,193.5 248.2,201.1 244.1,240.3 253.9,279 261.7,240.3 255.6,200.7 258.6,194.7 252.3,190.4 &#9;&#9;&#10;&#9;&#9;&#9;"/>
		<path class="st2_cto-87" d="M253.9,279.7c-0.3,0-0.6-0.2-0.7-0.5l-9.8-38.7c0-0.1,0-0.2,0-0.2l4-38.9l-3.7-7.5c-0.1-0.2-0.1-0.4,0-0.6&#10;&#9;&#9;&#9;c0.1-0.2,0.2-0.3,0.4-0.4l7.9-3.1c0.2-0.1,0.5-0.1,0.6,0.1l6.4,4.3c0.3,0.2,0.4,0.6,0.2,0.9l-3,5.8l6.1,39.4c0,0.1,0,0.2,0,0.2&#10;&#9;&#9;&#9;l-7.8,38.7C254.5,279.4,254.3,279.6,253.9,279.7L253.9,279.7z M244.8,240.2l9,35.6l7.2-35.6l-6.1-39.5c0-0.1,0-0.3,0.1-0.4&#10;&#9;&#9;&#9;l2.8-5.4l-5.5-3.7l-6.8,2.6l3.4,7c0.1,0.1,0.1,0.2,0.1,0.4L244.8,240.2z"/>
		<path class="st0_cto-87" d="M267.5,177.9c-0.5,0-15.3,12.5-15.3,12.5l9.2,10.7l9.2-16.8L267.5,177.9z"/>
		<path class="st2_cto-87" d="M261.4,201.8c-0.2,0-0.4-0.1-0.5-0.2l-9.2-10.7c-0.3-0.3-0.2-0.7,0.1-1c0,0,0,0,0,0&#10;&#9;&#9;&#9;c15.1-12.7,15.5-12.7,15.8-12.7c0.3,0,0.5,0.2,0.6,0.4l3.1,6.5c0.1,0.2,0.1,0.4,0,0.6l-9.2,16.8c-0.1,0.2-0.3,0.3-0.5,0.4H261.4z&#10;&#9;&#9;&#9; M253.2,190.5l8.1,9.4l8.5-15.6l-2.6-5.4C265.1,180.5,258,186.4,253.2,190.5L253.2,190.5z"/>
		<path class="st0_cto-87" d="M234.4,177.8c0.5,0,17.9,12.6,17.9,12.6l-10.6,10.7l-10.6-16.8L234.4,177.8z"/>
		<path class="st2_cto-87" d="M241.7,201.8L241.7,201.8c-0.3,0-0.5-0.1-0.6-0.3l-10.6-16.8c-0.1-0.2-0.1-0.5,0-0.7l3.4-6.6&#10;&#9;&#9;&#9;c0.1-0.2,0.4-0.4,0.6-0.4c0.3,0,0.7,0,18.3,12.8c0.2,0.1,0.3,0.3,0.3,0.5c0,0.2-0.1,0.4-0.2,0.6l-10.6,10.7&#10;&#9;&#9;&#9;C242.1,201.8,241.9,201.8,241.7,201.8z M231.8,184.3l10,15.7l9.4-9.5c-6-4.3-14.3-10.3-16.6-11.7L231.8,184.3z"/>
		<path class="st3_cto-87 targetColor" d="M231.1,184.4c0,0,19.4,86.9,22.9,95.7c0,0-40.8-69.3-41-70.7s5.9-7,5.9-7l-4.9-2.2l4.5-8.1L231.1,184.4z" style="fill: rgb(104, 225, 253);"/>
		<path class="st2_cto-87" d="M254,280.8c-0.2,0-0.5-0.1-0.6-0.4c-9.6-16.3-40.9-69.6-41.1-70.9s2.6-4.4,5.3-6.9l-4-1.8&#10;&#9;&#9;&#9;c-0.2-0.1-0.3-0.2-0.4-0.4c-0.1-0.2,0-0.4,0.1-0.6l4.5-8.1c0.1-0.1,0.1-0.2,0.2-0.3l12.7-7.7c0.3-0.2,0.8,0,0.9,0.3&#10;&#9;&#9;&#9;c0,0,0,0.1,0.1,0.1c0.2,0.9,19.4,87,22.9,95.6c0.1,0.3,0,0.7-0.3,0.9C254.2,280.7,254.1,280.8,254,280.8z M214.9,199.8l4.2,1.9&#10;&#9;&#9;&#9;c0.2,0.1,0.4,0.3,0.4,0.5c0,0.2,0,0.5-0.2,0.6c-2.7,2.5-5.6,5.7-5.6,6.5c0.6,1.7,25.3,43.8,37.9,65.3c-5.5-20.1-19-80.3-21-89.1&#10;&#9;&#9;&#9;l-11.7,7.1L214.9,199.8z"/>
		<path class="st3_cto-87 targetColor" d="M270.5,184.4c0,0-13,86.9-16.6,95.7c0,0,34.4-69.3,34.6-70.7s-5.9-7-5.9-7l5-2.2l-4.5-8.1L270.5,184.4z" style="fill: rgb(104, 225, 253);"/>
		<path class="st2_cto-87" d="M254,280.8c-0.4,0-0.7-0.3-0.7-0.7c0-0.1,0-0.2,0.1-0.3c3.5-8.6,16.4-94.7,16.5-95.5c0.1-0.4,0.4-0.7,0.8-0.6&#10;&#9;&#9;&#9;c0.1,0,0.2,0,0.2,0.1l12.7,7.7c0.1,0.1,0.2,0.2,0.2,0.3l4.5,8.1c0.1,0.2,0.1,0.4,0,0.6c-0.1,0.2-0.2,0.3-0.4,0.4l-4,1.8&#10;&#9;&#9;&#9;c2.7,2.6,5.5,5.6,5.3,6.9s-29,59.3-34.7,70.9C254.5,280.6,254.3,280.8,254,280.8z M271.1,185.5c-1.3,8.9-10.2,67.3-14.7,88.2&#10;&#9;&#9;&#9;c10.8-21.8,31-62.8,31.6-64.4c-0.1-0.7-3-3.9-5.6-6.4c-0.2-0.2-0.2-0.4-0.2-0.6c0-0.2,0.2-0.4,0.4-0.5l4.3-1.9l-4-7.2L271.1,185.5&#10;&#9;&#9;&#9;z"/>
		<path class="st2_cto-87" d="M208.2,325.7L208.2,325.7c-0.4,0-0.7-0.4-0.7-0.7c0,0,0,0,0,0c0-0.2,1.7-23,2-28.2c0.2-4.3-0.7-9.7-2.1-17.8&#10;&#9;&#9;&#9;c-0.3-1.8-0.6-3.7-1-5.7c-1.9-11.3-16.6-57.4-16.7-57.9c-0.1-0.4,0.1-0.8,0.5-0.9c0,0,0,0,0,0c0.4-0.1,0.8,0.1,0.9,0.4&#10;&#9;&#9;&#9;c0,0,0,0,0,0c0.6,1.9,14.8,46.7,16.8,58.1c0.3,2,0.7,3.9,1,5.7c1.5,8.2,2.4,13.7,2.2,18.1c-0.3,5.3-2,28-2,28.3&#10;&#9;&#9;&#9;C208.9,325.4,208.6,325.7,208.2,325.7z"/>
		<path class="st3_cto-87 targetColor" d="M204.8,299c0,20.7-24.2,42.2-24.2,42.2l-32.4-8l27.1-40.2C175.3,293,204.8,278.4,204.8,299z" style="fill: rgb(104, 225, 253);"/>
		<path class="st3_cto-87 targetColor" d="M310,202.6c0,0,31.3,49.9,35.1,55.1c9.7-13.9,24.6-36.1,24.6-36.1l20.9,18c0,0-28.4,63-48.8,56.8&#10;&#9;&#9;&#9;s-53.2-48.6-53.2-48.6L310,202.6z" style="fill: rgb(104, 225, 253);"/>
		<path class="st2_cto-87" d="M296.2,274.2c-0.1,0-0.1,0-0.2,0c-0.4-0.1-0.6-0.4-0.5-0.8c0,0,0,0,0,0l11.2-45.7c0.2-0.3,0.6-0.5,0.9-0.3&#10;&#9;&#9;&#9;c0.2,0.1,0.4,0.4,0.4,0.6l-11.2,45.7C296.7,274,296.5,274.2,296.2,274.2z"/>
	</g>
	<path class="st0_cto-87" d="M391,205.4c0,0,7.6,3.4,4.6,10.5"/>
	<path class="st2_cto-87" d="M395.6,216.6c-0.1,0-0.2,0-0.3-0.1c-0.4-0.2-0.5-0.6-0.4-0.9c2.7-6.4-4-9.5-4.2-9.6c-0.4-0.2-0.5-0.6-0.4-0.9&#10;&#9;&#9;c0.2-0.4,0.6-0.5,0.9-0.4c0.1,0,8.2,3.8,5,11.4C396.1,216.5,395.9,216.7,395.6,216.6z"/>
</g>
<g id="Desk_cto-87">
	<polygon class="st0_cto-87" points="106.3,307.9 393.7,307.9 439.9,374.5 60.2,374.5 &#9;"/>
	<path class="st2_cto-87" d="M439.9,375.2H60.2c-0.3,0-0.5-0.1-0.6-0.4c-0.1-0.2-0.1-0.5,0-0.7l46.1-66.6c0.1-0.2,0.3-0.3,0.6-0.3h287.5&#10;&#9;&#9;c0.2,0,0.4,0.1,0.6,0.3l46.1,66.6c0.2,0.2,0.2,0.5,0,0.7C440.3,375,440.1,375.2,439.9,375.2z M61.5,373.8h377l-45.1-65.2H106.6&#10;&#9;&#9;L61.5,373.8z"/>
	<rect x="60.6" y="374.5" class="st0_cto-87" width="379.3" height="12.9"/>
	<path class="st2_cto-87" d="M439.9,388.1H60.6c-0.4,0-0.7-0.3-0.7-0.7l0,0v-12.9c0-0.4,0.3-0.7,0.7-0.7c0,0,0,0,0,0h379.3&#10;&#9;&#9;c0.4,0,0.7,0.3,0.7,0.7v0v12.9C440.6,387.8,440.2,388.1,439.9,388.1z M61.3,386.7h377.9v-11.5H61.3V386.7z"/>
	<rect x="68.7" y="387.4" class="st2_cto-87" width="363" height="12.9"/>
	<path class="st2_cto-87" d="M431.7,401h-363c-0.4,0-0.7-0.3-0.7-0.7v-12.9c0-0.4,0.3-0.7,0.7-0.7h0h363c0.4,0,0.7,0.3,0.7,0.7v0v12.9&#10;&#9;&#9;C432.4,400.7,432.1,401,431.7,401C431.7,401,431.7,401,431.7,401z M69.4,399.6H431v-11.5H69.4V399.6z"/>
	<polygon class="st2_cto-87" points="348,364.2 336.2,348.5 377.4,347.8 &#9;"/>
	<path class="st2_cto-87" d="M348,364.9c-0.2,0-0.4-0.1-0.6-0.3L335.6,349c-0.2-0.3-0.2-0.7,0.1-1c0.1-0.1,0.3-0.1,0.4-0.1l41.1-0.7&#10;&#9;&#9;c0.3,0,0.6,0.2,0.7,0.5c0.1,0.3-0.1,0.6-0.3,0.8l-29.4,16.4C348.2,364.9,348.1,364.9,348,364.9z M337.6,349.2l10.6,14.1l26.4-14.7&#10;&#9;&#9;L337.6,349.2z"/>
	<rect x="348" y="341.2" class="st0_cto-87" width="65.1" height="23"/>
	<path class="st2_cto-87" d="M413.1,364.9H348c-0.4,0-0.7-0.3-0.7-0.7v0v-23c0-0.4,0.3-0.7,0.7-0.7h0h65.1c0.4,0,0.7,0.3,0.7,0.7v0v23&#10;&#9;&#9;C413.8,364.6,413.5,364.9,413.1,364.9C413.1,364.9,413.1,364.9,413.1,364.9z M348.7,363.5h63.7v-21.6h-63.7L348.7,363.5z"/>
	<path class="st2_cto-87" d="M369,357.9c-0.8,0.4-1.7,0.5-2.6,0.5c-0.8,0-1.7-0.1-2.5-0.4c-0.7-0.3-1.4-0.7-2-1.2c-0.6-0.6-1-1.2-1.3-1.9&#10;&#9;&#9;c-0.3-0.8-0.5-1.6-0.5-2.5c0-0.9,0.2-1.7,0.5-2.5c0.3-0.7,0.8-1.4,1.3-1.9c0.6-0.5,1.3-0.9,2-1.2c0.8-0.3,1.6-0.4,2.5-0.4&#10;&#9;&#9;c0.8,0,1.6,0.1,2.4,0.4c0.7,0.3,1.4,0.7,1.9,1.3l-1.9,1.9c-0.3-0.4-0.6-0.6-1-0.8c-0.4-0.2-0.9-0.3-1.3-0.3c-0.5,0-0.9,0.1-1.3,0.3&#10;&#9;&#9;c-0.4,0.2-0.8,0.4-1.1,0.8c-0.3,0.3-0.5,0.7-0.7,1.1c-0.2,0.4-0.3,0.9-0.2,1.4c0,0.5,0.1,1,0.2,1.4c0.1,0.4,0.4,0.8,0.7,1.1&#10;&#9;&#9;c0.3,0.3,0.6,0.6,1,0.7c0.4,0.2,0.9,0.3,1.3,0.3c0.5,0,1-0.1,1.5-0.3c0.4-0.2,0.7-0.5,1-0.9l1.9,1.8&#10;&#9;&#9;C370.3,357,369.7,357.5,369,357.9z"/>
	<path class="st2_cto-87" d="M380.7,348.9v9.2H378v-9.2h-3.3v-2.4h9.3v2.4H380.7z"/>
	<path class="st2_cto-87" d="M401,352.2c0,0.9-0.2,1.7-0.5,2.5c-0.3,0.7-0.7,1.4-1.3,1.9c-0.6,0.5-1.3,1-2,1.2c-0.8,0.3-1.7,0.4-2.5,0.4&#10;&#9;&#9;c-0.9,0-1.7-0.1-2.5-0.4c-0.7-0.3-1.4-0.7-2-1.2c-0.6-0.5-1-1.2-1.3-1.9c-0.3-0.8-0.5-1.6-0.5-2.5c0-0.9,0.1-1.7,0.5-2.5&#10;&#9;&#9;c0.3-0.7,0.7-1.4,1.3-1.9c0.6-0.5,1.3-0.9,2-1.2c0.8-0.3,1.7-0.4,2.5-0.4c0.9,0,1.7,0.1,2.5,0.4c0.7,0.3,1.4,0.7,2,1.2&#10;&#9;&#9;c0.6,0.5,1,1.2,1.3,1.9C400.9,350.5,401.1,351.4,401,352.2z M398,352.2c0-0.5-0.1-1-0.2-1.4c-0.2-0.4-0.4-0.8-0.7-1.1&#10;&#9;&#9;c-0.3-0.3-0.6-0.6-1-0.7c-0.4-0.2-0.9-0.3-1.4-0.3c-0.9,0-1.8,0.4-2.4,1c-0.3,0.3-0.5,0.7-0.7,1.1c-0.2,0.5-0.2,0.9-0.2,1.4&#10;&#9;&#9;c0,0.5,0.1,1,0.2,1.4c0.1,0.4,0.4,0.8,0.7,1.1c0.3,0.3,0.6,0.6,1,0.7c0.9,0.4,1.8,0.4,2.7,0c0.4-0.2,0.7-0.4,1-0.7&#10;&#9;&#9;c0.3-0.3,0.5-0.7,0.7-1.1C397.9,353.2,398,352.7,398,352.2L398,352.2z"/>
</g>
<g id="Paper_cto-87">
	<polygon class="st0_cto-87" points="299.9,317.5 248,317.5 254,361.6 321,361.6 &#9;"/>
	<path class="st1_cto-87" d="M321,362.4h-67c-0.4,0-0.7-0.3-0.7-0.6l-5.9-44.1c0-0.2,0-0.4,0.2-0.5c0.1-0.2,0.3-0.2,0.5-0.2h51.8&#10;&#9;&#9;c0.3,0,0.5,0.1,0.6,0.4l21.1,44.1c0.2,0.4,0,0.8-0.4,0.9C321.2,362.3,321.1,362.3,321,362.4L321,362.4z M254.6,361h65.3l-20.5-42.8&#10;&#9;&#9;h-50.6L254.6,361z"/>
	<path class="st1_cto-87" d="M301.9,353.4h-40.1c-0.4,0-0.7-0.3-0.7-0.7c0-0.4,0.3-0.7,0.7-0.7h40.1c0.4,0,0.7,0.3,0.7,0.7&#10;&#9;&#9;S302.2,353.4,301.9,353.4C301.9,353.4,301.9,353.4,301.9,353.4L301.9,353.4z"/>
	<path class="st1_cto-87" d="M306,344.8h-46c-0.4,0-0.7-0.3-0.7-0.7c0-0.4,0.3-0.7,0.7-0.7h46c0.4,0,0.7,0.3,0.7,0.7&#10;&#9;&#9;C306.7,344.5,306.4,344.8,306,344.8z"/>
	<path class="st1_cto-87" d="M301.3,336.2h-43.5c-0.4,0-0.7-0.3-0.7-0.7c0-0.4,0.3-0.7,0.7-0.7h43.5c0.4,0,0.7,0.3,0.7,0.7&#10;&#9;&#9;C302,335.9,301.6,336.2,301.3,336.2L301.3,336.2z"/>
	<path class="st1_cto-87" d="M297.9,327.6h-34.7c-0.4,0-0.7-0.3-0.7-0.7s0.3-0.7,0.7-0.7c0,0,0,0,0,0h34.7c0.4,0,0.7,0.3,0.7,0.7&#10;&#9;&#9;C298.6,327.3,298.3,327.6,297.9,327.6z"/>
</g>
<g id="Laptop_cto-87">
	<polygon class="st2_cto-87" points="204.8,356.8 222.8,323.3 133.3,323.3 101.5,356.8 &#9;"/>
	<path class="st2_cto-87" d="M204.8,357.5H101.5c-0.3,0-0.5-0.2-0.6-0.4c-0.1-0.3-0.1-0.6,0.1-0.8l31.8-33.5c0.1-0.1,0.3-0.2,0.5-0.2h89.5&#10;&#9;&#9;c0.2,0,0.5,0.1,0.6,0.3c0.1,0.2,0.1,0.5,0,0.7l-18,33.5C205.2,357.3,205,357.4,204.8,357.5z M103.1,356.1h101.2l17.2-32.1h-88&#10;&#9;&#9;L103.1,356.1z"/>
	<polygon class="st0_cto-87" points="83.7,289.8 186.9,289.8 204.8,356.8 101.5,356.8 &#9;"/>
	<path class="st2_cto-87" d="M204.8,357.5H101.5c-0.3,0-0.6-0.2-0.7-0.5L83,290c-0.1-0.2,0-0.4,0.1-0.6c0.1-0.2,0.3-0.3,0.6-0.3h103.3&#10;&#9;&#9;c0.3,0,0.6,0.2,0.7,0.5l17.8,67c0.1,0.2,0,0.4-0.1,0.6C205.2,357.4,205,357.5,204.8,357.5z M102,356h101.8l-17.4-65.6H84.6L102,356&#10;&#9;&#9;z"/>
	<ellipse class="st1_cto-87" cx="144.2" cy="326.8" rx="9.1" ry="7.6"/>
</g>
</svg>