<svg version="1.1" id="Layer_1" xmlns="http://www.w3.org/2000/svg" xmlns:xlink="http://www.w3.org/1999/xlink" x="0px" y="0px" viewBox="0 0 500 500" style="width: 149px;" xml:space="preserve" data-imageid="factory-worker-70" imageName="Factory Worker" class="illustrations_image">
<style type="text/css">
	.st0_factory-worker-70{fill:#FFFFFF;}
	.st1_factory-worker-70{fill:#231F20;}
	.st2_factory-worker-70{fill:#68E1FD;}
	.st3_factory-worker-70{fill:#D1D3D4;}
</style>
<g id="Character_factory-worker-70">
	<path class="st0_factory-worker-70" d="M411.4,241.9c0.3-1,0.4-2.4-0.6-2.6c-0.3,0-0.7,0-1,0.2c-5.2,2.2-7.7,7.9-9.7,13.1c-1.5,3.9-3,8-2.9,12.2&#10;&#9;&#9;c0.1,2.7,2.1,6.5,5,3.5c2.5-2.6,3.5-9.3,4.6-12.6C408.4,251,410,246.4,411.4,241.9z"/>
	<path class="st1_factory-worker-70" d="M400.2,270c-0.3,0-0.6-0.1-0.9-0.2c-1.7-0.6-2.7-3.1-2.8-5.1c-0.2-4.5,1.5-8.9,2.9-12.5&#10;&#9;&#9;c2.2-5.6,4.7-11.3,10-13.5c0.4-0.2,0.9-0.3,1.4-0.2c0.5,0.1,0.9,0.4,1.1,0.8c0.4,0.9,0.4,1.9,0.1,2.8l0,0c-1.4,4.6-3,9.2-4.5,13.7&#10;&#9;&#9;c-0.3,0.9-0.6,2.2-1,3.5c-0.9,3.5-1.9,7.5-3.8,9.4C402.1,269.5,401.2,269.9,400.2,270z M410.5,239.9c-0.2,0-0.3,0.1-0.5,0.1&#10;&#9;&#9;c-4.8,2-7.2,7.4-9.3,12.7c-1.3,3.5-3,7.7-2.8,11.9c0.1,1.5,0.8,3.5,1.9,3.8c0.6,0.2,1.2-0.1,1.9-0.8c1.6-1.7,2.6-5.6,3.5-8.8&#10;&#9;&#9;c0.3-1.3,0.7-2.6,1-3.6c1.5-4.5,3.1-9.1,4.5-13.7c0.2-0.5,0.2-1.1,0-1.6C410.7,240,410.6,239.9,410.5,239.9L410.5,239.9z&#10;&#9;&#9; M411.4,241.9L411.4,241.9z"/>
	<path class="st0_factory-worker-70" d="M121.6,283.8c0,0-39,41.2-40.2,47.4s78,59.4,78,59.4s-2.5,4-1.6,12.1s1.6,13,1.6,13s-12.7-2.5-10.8,1.5&#10;&#9;&#9;s16.7,7.1,19.8,5.6c2.6-1.5,5.1-3.3,7.4-5.3v-37.8c0-3.1-41.5-44.8-41.5-44.8l22.9-22.9"/>
	<path class="st1_factory-worker-70" d="M165.6,423.8c-3.8-0.1-7.6-0.9-11.2-2.1c-2.5-0.9-5.6-2.3-6.5-4.2c-0.4-0.7-0.3-1.5,0.1-2.1&#10;&#9;&#9;c1.5-1.9,7.8-1.1,10.5-0.6c-0.2-1.8-0.7-6.1-1.4-12c-0.8-6.5,0.7-10.5,1.3-11.9c-14.4-9.7-79-53.5-77.7-59.8s38.8-46,40.4-47.7&#10;&#9;&#9;c0.3-0.3,0.7-0.3,1,0c0,0,0,0,0,0c0.3,0.3,0.3,0.7,0,1c-10.8,11.4-39.1,42.1-40,47c-0.6,3.8,39.5,33.1,77.7,58.7&#10;&#9;&#9;c0.3,0.2,0.4,0.6,0.2,1c0,0,0,0,0,0c0,0-2.3,4-1.4,11.6c0.9,8,1.6,13,1.6,13c0,0.2-0.1,0.4-0.2,0.6c-0.2,0.2-0.4,0.2-0.6,0.2&#10;&#9;&#9;c-4.2-0.8-9.3-1.1-10.1-0.1c-0.1,0.1-0.2,0.2,0,0.6c0.5,1.1,2.6,2.4,5.7,3.5c5.4,1.9,11.6,2.5,13.1,1.7c2.5-1.4,4.9-3.1,7.1-5&#10;&#9;&#9;v-37.4c-0.5-2.6-25.6-28.6-41.3-44.3c-0.3-0.3-0.3-0.7,0-1c0,0,0,0,0,0l22.9-22.9c0.3-0.3,0.7-0.3,1,0s0.3,0.7,0,1l0,0l-22.4,22.4&#10;&#9;&#9;c10.3,10.4,41.2,41.8,41.2,44.8v37.8c0,0.2-0.1,0.4-0.2,0.5c-2.3,2-4.9,3.8-7.6,5.4C167.6,423.7,166.6,423.9,165.6,423.8z"/>
	<path class="st0_factory-worker-70" d="M320.5,309.2c0,0,13.4,76.6,36.8,66.8s36.8-92.2,36.8-92.2l-23.3,2.7l-13.9,31l-16.6-52.8L320.5,309.2z"/>
	<path class="st1_factory-worker-70" d="M353.2,377.6c-1.9,0-3.8-0.5-5.5-1.5c-7.5-4.1-14.5-16.6-20.7-37.2c-2.9-9.7-5.3-19.6-7.2-29.6&#10;&#9;&#9;c0-0.1,0-0.3,0-0.4l19.8-44.5c0.1-0.3,0.4-0.4,0.7-0.4c0.3,0,0.5,0.2,0.6,0.5l16,51.1l13.2-29.3c0.1-0.2,0.3-0.4,0.5-0.4l23.4-2.8&#10;&#9;&#9;c0.2,0,0.4,0.1,0.6,0.2c0.2,0.2,0.2,0.4,0.2,0.6c-2.5,14.3-5.7,28.5-9.6,42.5c-8.4,29.2-17.7,46.1-27.6,50.2&#10;&#9;&#9;C356.2,377.2,354.7,377.5,353.2,377.6z M321.2,309.3c0.7,3.8,10.5,56.5,27.2,65.6c2.6,1.6,5.9,1.7,8.6,0.5&#10;&#9;&#9;c21.5-8.9,34.7-81.7,36.2-90.8l-22,2.6l-13.8,30.6c-0.1,0.3-0.4,0.4-0.7,0.4c-0.3,0-0.5-0.2-0.6-0.5l-16-51.1L321.2,309.3z"/>
	<path class="st2_factory-worker-70 targetColor" d="M301.4,205.1c0,0,7.4,3,20.9,12.3s43.5,81.6,43.5,81.6L313,325.9l-1.5-33.9L301.4,205.1z" style="fill: rgb(104, 225, 253);"/>
	<path class="st2_factory-worker-70 targetColor" d="M318.9,355.3c1.2-54.2,2-131.4-17.4-150.2c0,0-91.3-11.6-106.6,4.1c-11.8,25.5-11.4,94.3-14.2,146.4&#10;&#9;&#9;L318.9,355.3z" style="fill: rgb(104, 225, 253);"/>
	<path class="st0_factory-worker-70" d="M289.9,154.7c-0.5-1.1,4.7-13.4,3-32.7s-37.3-26.2-50.1-24.5s-25.6,14.8-28.3,27.6s3,35.8,3,35.8L289.9,154.7z&#10;&#9;&#9;"/>
	<path class="st1_factory-worker-70" d="M217.5,161.5c-0.3,0-0.6-0.2-0.7-0.5c-0.2-0.9-5.6-23.3-3-36.1c2.8-13.6,16-26.5,28.8-28.1&#10;&#9;&#9;c8.8-1.1,30.6,1.8,42.8,11.6c4.9,3.9,7.6,8.5,8.1,13.6c0.9,10,0.1,20.1-2.5,29.9c-0.3,0.9-0.4,1.8-0.5,2.7c0.1,0.2,0.1,0.4,0,0.6&#10;&#9;&#9;c-0.1,0.2-0.3,0.3-0.6,0.3L217.5,161.5L217.5,161.5z M246.9,97.9c-1.4,0-2.7,0.1-4.1,0.2c-12.1,1.6-25,14.2-27.6,27&#10;&#9;&#9;c-2.3,11.4,2,31.2,2.8,34.9l71.2-6c0.1-0.5,0.2-1.3,0.6-2.6c2.5-9.6,3.3-19.6,2.4-29.4c-0.4-4.7-3-8.9-7.6-12.6&#10;&#9;&#9;C274.4,101.1,257,97.9,246.9,97.9z"/>
	<path class="st0_factory-worker-70" d="M228.2,209.6c0,0,9.2,13.2,25.3,13.2s20.9-7.7,20.9-7.7l-0.7-8.6l-1.6-20l-1.5-18.7h-36.9l-1.2,15.3l-2.5,0.3&#10;&#9;&#9;L228.2,209.6z"/>
	<path class="st1_factory-worker-70" d="M253.5,223.5c-16.3,0-25.8-13.4-25.9-13.5c-0.1-0.1-0.1-0.3-0.1-0.4l1.8-26.3c0-0.3,0.3-0.6,0.6-0.6l1.9-0.2&#10;&#9;&#9;l1.2-14.7c0-0.4,0.3-0.7,0.7-0.6h36.9c0.4,0,0.7,0.3,0.7,0.6l3.8,47.3c0,0.1,0,0.3-0.1,0.4C274.8,215.8,269.9,223.5,253.5,223.5z&#10;&#9;&#9; M228.9,209.4c1.2,1.6,10.1,12.7,24.6,12.7c14.1,0,19.3-6.1,20.1-7.2l-3.7-46.5h-35.6l-1.2,14.7c0,0.3-0.3,0.6-0.6,0.6l-1.9,0.2&#10;&#9;&#9;L228.9,209.4z"/>
	<path class="st1_factory-worker-70" d="M229.7,181.6c0.4,2.3,1.2,4.4,2.5,6.4c2.8,4.5,7.4,8,12.1,10.6c7.9,4.4,19.8,9.3,29.4,7.9l-1.6-20&#10;&#9;&#9;c-7.1,0.9-14.2,0.9-21.2,0.1c-6.2-0.5-12.6-1.1-18.3-3.5C231.6,182.6,230.6,182.1,229.7,181.6z"/>
	<path class="st1_factory-worker-70" d="M270,207.4c-9.7,0-20.3-5-26.1-8.2c-5.7-3.2-9.9-6.8-12.4-10.9c-1.3-2-2.2-4.3-2.6-6.6c0-0.3,0.1-0.5,0.3-0.7&#10;&#9;&#9;c0.2-0.1,0.5-0.1,0.7,0c0.8,0.5,1.8,0.9,2.8,1.4c5.7,2.4,12.3,3,18.1,3.5c7,0.8,14.1,0.7,21.1-0.1c0.2,0,0.4,0,0.5,0.1&#10;&#9;&#9;c0.1,0.1,0.2,0.3,0.3,0.5l1.6,20c0,0.4-0.2,0.7-0.6,0.7C272.5,207.3,271.3,207.4,270,207.4z M230.6,182.9c0.4,1.7,1.1,3.2,2.1,4.7&#10;&#9;&#9;c2.4,3.8,6.4,7.3,11.9,10.4c6.3,3.5,18.3,9.1,28.3,7.9l-1.5-18.6c-6.9,0.8-13.8,0.8-20.7,0c-5.9-0.5-12.6-1.1-18.5-3.6&#10;&#9;&#9;C231.7,183.4,231.2,183.2,230.6,182.9L230.6,182.9z"/>
	<path class="st0_factory-worker-70" d="M218,129c0,0-11.8,0.3-15.1,5.2s0.2,30.4,1.4,32s20.1,5.8,20.1,5.8L218,129z"/>
	<path class="st1_factory-worker-70" d="M224.4,172.7h-0.1c-4.5-1-19.3-4.4-20.5-6.1s-4.8-27.7-1.4-32.8s15.1-5.5,15.6-5.5c0.4,0,0.7,0.2,0.7,0.6&#10;&#9;&#9;c0,0,0,0,0,0l6.4,43c0,0.2,0,0.5-0.2,0.6C224.7,172.6,224.6,172.7,224.4,172.7z M217.4,129.7c-2.4,0.1-11.3,0.9-13.9,4.8&#10;&#9;&#9;c-3,4.5,0.3,29.5,1.4,31.2c0.8,0.9,10,3.4,18.7,5.3L217.4,129.7z"/>
	<path class="st0_factory-worker-70" d="M286.6,129c0,0,11.8,0.3,15.1,5.2s-0.2,30.4-1.4,32s-20.1,5.8-20.1,5.8L286.6,129z"/>
	<path class="st1_factory-worker-70" d="M280.2,172.7c-0.2,0-0.3-0.1-0.5-0.2c-0.2-0.2-0.2-0.4-0.2-0.6l6.4-43c0-0.4,0.4-0.6,0.7-0.6&#10;&#9;&#9;c0.5,0,12.2,0.4,15.6,5.5s-0.2,31.1-1.4,32.8s-16,5.1-20.5,6.1L280.2,172.7z M287.2,129.7l-6.2,41.4c8.7-2,17.9-4.4,18.7-5.3&#10;&#9;&#9;c1.1-1.8,4.4-26.7,1.4-31.2C298.5,130.6,289.6,129.9,287.2,129.7L287.2,129.7z"/>
	<path class="st0_factory-worker-70" d="M251.1,193.1h3.3c15.6,0,28.2-13.1,28.2-29.2v-9.4c0-3.3,0-6.5,0-9.8c0-2-0.6-9-3.5-8.5&#10;&#9;&#9;c-0.8,0.2-1.5,0.6-2.1,1.2c-1.6,1.3-3.3,2.4-5.1,3.3c-0.6,0.4-1.3,0.6-2,0.4c-1-0.4-1.1-1.9-0.9-3l0.2-1.8c0-0.4,0-0.9-0.4-1&#10;&#9;&#9;c-5.7,3.3-11.5,6.5-18.2,7c-1,0.1-2.2,0-2.8-0.9c-0.3-0.5-0.4-1-0.4-1.5c-0.1-2.2,0.2-4.5,1.1-6.6c-2.3,2.3-5.1,4.1-8.2,5.1&#10;&#9;&#9;c-4.1,1.4-8,2.9-12.2,4.3l-7.8,2.6c1.5,9.4,1.1,20.1,4.5,29.1C229,185.6,239.4,192.9,251.1,193.1z"/>
	<path class="st1_factory-worker-70" d="M254.4,193.8h-3.3c-12-0.2-22.7-7.7-26.9-18.9c-2.3-6.1-2.9-12.9-3.5-19.4c-0.3-3.3-0.6-6.6-1.1-9.8&#10;&#9;&#9;c-0.1-0.3,0.1-0.7,0.5-0.8l7.8-2.6c2-0.7,3.9-1.4,5.9-2.1s4.2-1.5,6.3-2.2c3-1,5.7-2.7,8-4.9c0.2-0.2,0.6-0.3,0.9-0.1&#10;&#9;&#9;c0.3,0.2,0.4,0.5,0.3,0.9c-0.8,2-1.2,4.1-1.1,6.2c0,0.4,0.1,0.8,0.3,1.2c0.3,0.5,1,0.6,2.2,0.6c6.4-0.5,11.9-3.4,17.9-6.9&#10;&#9;&#9;c0.1-0.1,0.3-0.1,0.4-0.1c0.7,0.1,1.1,0.8,1,1.7l-0.2,1.8c-0.1,0.6-0.1,2,0.5,2.3c0.4,0.2,0.9-0.1,1.4-0.4c1.8-1,3.4-2.1,5-3.3&#10;&#9;&#9;c0.7-0.6,1.5-1.1,2.4-1.3c0.7-0.1,1.4,0.1,1.9,0.5c2.3,2,2.4,8.6,2.4,8.7v19.1C283.4,180.4,270.4,193.8,254.4,193.8z M221.1,146&#10;&#9;&#9;c0.5,3,0.7,6.2,1,9.3c0.6,6.5,1.1,13.2,3.4,19.1c4,10.7,14.2,17.8,25.6,18h3.3c15.2,0,27.6-12.8,27.6-28.5v-19.2&#10;&#9;&#9;c0-2.1-0.6-6.5-1.9-7.6c-0.2-0.2-0.5-0.3-0.7-0.2c-0.6,0.2-1.2,0.5-1.7,1c-1.7,1.3-3.4,2.5-5.3,3.5c-0.8,0.5-1.7,0.7-2.6,0.4&#10;&#9;&#9;c-0.8-0.3-1.6-1.2-1.4-3.7l0.2-1.7c-5.7,3.3-11.4,6.2-17.8,6.7c-1.1,0.1-2.6,0.1-3.5-1.2c-0.3-0.6-0.5-1.2-0.5-1.9&#10;&#9;&#9;c-0.1-1.5,0-3,0.4-4.4c-2,1.6-4.2,2.8-6.6,3.6c-2.1,0.7-4.2,1.5-6.3,2.2s-3.9,1.4-5.9,2.1L221.1,146z"/>
	<path class="st1_factory-worker-70" d="M253.1,173.7c-1.4,0-2.9-0.1-4.3-0.2c-0.4-0.1-0.7-0.4-0.6-0.8c0-0.4,0.4-0.7,0.8-0.6c0,0,0,0,0,0&#10;&#9;&#9;c2.7,0.3,5.3,0.3,8,0c0.1,0,0.2,0,0.3-0.2c1.3-2.2-2.1-13.4-4.7-20c-0.2-0.3,0-0.8,0.3-0.9s0.8,0,0.9,0.3c0,0,0,0.1,0.1,0.1&#10;&#9;&#9;c0.7,1.8,6.7,17.6,4.6,21.2c-0.3,0.5-0.8,0.8-1.3,0.9C255.8,173.6,254.4,173.6,253.1,173.7z"/>
	<path class="st1_factory-worker-70" d="M254.8,182.3c-3.4,0-7.3-1.1-11.6-3.4c-0.3-0.2-0.5-0.6-0.3-0.9c0.2-0.3,0.6-0.5,0.9-0.3l0,0&#10;&#9;&#9;c5.8,3,10.8,3.9,14.8,2.6c2.4-0.7,4.4-2.3,5.7-4.5c0.2-0.3,0.6-0.5,0.9-0.3s0.5,0.6,0.3,0.9l0,0c-1.4,2.5-3.8,4.4-6.5,5.2&#10;&#9;&#9;C257.7,182.1,256.2,182.3,254.8,182.3z"/>
	<ellipse class="st1_factory-worker-70" cx="239.1" cy="150.5" rx="2.1" ry="4.4"/>
	<ellipse class="st1_factory-worker-70" cx="269.2" cy="150.5" rx="2.1" ry="4.4"/>
	<path class="st0_factory-worker-70" d="M228.4,197.4c0,0-13.1,1.1-12.1,6.1s23.9,33.9,23.9,33.9l11.4-14.7C251.6,222.8,235.7,213.7,228.4,197.4z"/>
	<path class="st1_factory-worker-70" d="M240.1,238.2c-0.2,0-0.4-0.1-0.6-0.3c-0.9-1.2-23-29.2-24-34.2c-0.2-0.9,0-1.9,0.6-2.7&#10;&#9;&#9;c2.5-3.4,11.7-4.2,12.1-4.3c0.3,0,0.6,0.1,0.7,0.4c7.1,15.9,22.7,24.9,22.9,25c0.2,0.1,0.3,0.3,0.3,0.5c0,0.2,0,0.4-0.1,0.6&#10;&#9;&#9;l-11.4,14.7C240.6,238.1,240.4,238.2,240.1,238.2z M228,198.2c-2.8,0.3-8.9,1.4-10.6,3.7c-0.4,0.4-0.5,1-0.4,1.5&#10;&#9;&#9;c0.8,3.8,16.5,24.4,23.2,33l10.4-13.4C247.4,221,234.5,212.3,228,198.2L228,198.2z"/>
	<path class="st0_factory-worker-70" d="M273.9,197.4c0,0,13.1,1.1,12.1,6.1s-23.9,33.9-23.9,33.9l-11.4-14.7C250.7,222.8,266.6,213.7,273.9,197.4z"/>
	<path class="st1_factory-worker-70" d="M262.2,238.2c-0.2,0-0.4-0.1-0.5-0.3l-11.4-14.7c-0.1-0.2-0.2-0.4-0.1-0.6c0-0.2,0.2-0.4,0.3-0.5&#10;&#9;&#9;c0.1-0.1,15.8-9.1,22.9-25c0.1-0.3,0.4-0.5,0.7-0.4c0.4,0,9.6,0.9,12.1,4.3c0.6,0.7,0.8,1.7,0.6,2.7c-1,5.1-23,33.1-24,34.2&#10;&#9;&#9;C262.6,238.1,262.4,238.2,262.2,238.2z M251.8,223l10.4,13.4c6.7-8.5,22.4-29.1,23.2-33c0.1-0.5,0-1.1-0.4-1.5&#10;&#9;&#9;c-1.7-2.3-7.8-3.4-10.6-3.7C267.8,212.3,254.9,221,251.8,223z"/>
	<polygon class="st1_factory-worker-70" points="304.9,309.9 304.9,272.4 195.4,272.4 195.4,309.9 175.7,327.4 175.7,421.2 324.6,421.2 324.6,327.4 &#9;&#10;&#9;&#9;"/>
	<path class="st1_factory-worker-70" d="M324.6,421.9H175.7c-0.4,0-0.7-0.3-0.7-0.7l0,0v-93.7c0-0.2,0.1-0.4,0.2-0.5l19.5-17.3v-37.2&#10;&#9;&#9;c0-0.4,0.3-0.7,0.7-0.7c0,0,0,0,0,0h109.6c0.4,0,0.7,0.3,0.7,0.7v0v37.2l19.5,17.3c0.1,0.1,0.2,0.3,0.2,0.5v93.7&#10;&#9;&#9;C325.3,421.6,325,421.9,324.6,421.9L324.6,421.9z M176.4,420.5h147.5v-92.7l-19.5-17.3c-0.2-0.1-0.2-0.3-0.2-0.5v-36.9H196.1v36.9&#10;&#9;&#9;c0,0.2-0.1,0.4-0.2,0.5l-19.4,17.3L176.4,420.5z"/>
	<polygon class="st0_factory-worker-70" points="206.3,286 220.3,286 216.2,201.4 201.6,205.1 &#9;"/>
	<path class="st1_factory-worker-70" d="M220.3,286.7h-14c-0.4,0-0.7-0.3-0.7-0.7l-4.8-80.9c0-0.3,0.2-0.6,0.5-0.7l14.6-3.7c0.4-0.1,0.8,0.1,0.8,0.5&#10;&#9;&#9;c0,0,0,0.1,0,0.1l4.1,84.5c0,0.2-0.1,0.4-0.2,0.5C220.7,286.6,220.5,286.7,220.3,286.7z M207,285.3h12.6l-4.1-82.9l-13.2,3.3&#10;&#9;&#9;L207,285.3z"/>
	<polygon class="st0_factory-worker-70" points="296.7,286 282.7,286 286.8,201.4 301.4,205.1 &#9;"/>
	<path class="st1_factory-worker-70" d="M296.7,286.7h-14c-0.4,0-0.7-0.3-0.7-0.7c0,0,0,0,0,0l4.1-84.5c0-0.2,0.1-0.4,0.3-0.5c0.2-0.1,0.4-0.2,0.6-0.1&#10;&#9;&#9;l14.6,3.7c0.3,0.1,0.5,0.4,0.5,0.7l-4.8,80.8C297.4,286.4,297.1,286.7,296.7,286.7z M283.4,285.3H296l4.7-79.6l-13.2-3.3&#10;&#9;&#9;L283.4,285.3z"/>
	<rect x="203.2" y="277" class="st3_factory-worker-70" width="20.1" height="13.5"/>
	<path class="st1_factory-worker-70" d="M223.3,291.2h-20.1c-0.4,0-0.7-0.3-0.7-0.7l0,0V277c0-0.4,0.3-0.7,0.7-0.7c0,0,0,0,0,0h20.1&#10;&#9;&#9;c0.4,0,0.7,0.3,0.7,0.7l0,0v13.5C224,290.9,223.7,291.2,223.3,291.2z M203.9,289.8h18.7v-12.1h-18.7V289.8z"/>
	
		<rect x="282.9" y="273.7" transform="matrix(4.309628e-02 -0.9991 0.9991 4.309628e-02 -6.2999 560.9548)" class="st3_factory-worker-70" width="13.5" height="20.1"/>
	<path class="st1_factory-worker-70" d="M299.5,291.6L299.5,291.6l-20.1-0.9c-0.2,0-0.4-0.1-0.5-0.2c-0.1-0.1-0.2-0.3-0.2-0.5l0.6-13.5&#10;&#9;&#9;c0-0.2,0.1-0.4,0.2-0.5c0.1-0.1,0.3-0.2,0.5-0.2l20.1,0.9c0.4,0,0.7,0.3,0.7,0.7c0,0,0,0,0,0l-0.6,13.5&#10;&#9;&#9;C300.2,291.4,299.8,291.7,299.5,291.6C299.5,291.6,299.5,291.6,299.5,291.6z M280.1,289.4l18.7,0.8l0.5-12.1l-18.7-0.8L280.1,289.4&#10;&#9;&#9;z"/>
	<path class="st3_factory-worker-70" d="M253,402.1h-5.8c-20.6,0-37.3-16.7-37.4-37.4v-30.8c0-0.4,0.3-0.7,0.7-0.7c0,0,0,0,0,0h79.1&#10;&#9;&#9;c0.4,0,0.7,0.3,0.7,0.7v0v30.8C290.3,385.4,273.6,402.1,253,402.1z M211.3,334.6v30.1c0,19.9,16.1,36,35.9,36h5.8&#10;&#9;&#9;c19.9,0,36-16.1,36-36l0,0v-30.1H211.3z"/>
	<path class="st2_factory-worker-70 targetColor" d="M196.9,207.6c-8.4,5.7-16.5,11.8-24.3,18.4c-21.3,17.9-50.9,47.7-67.1,64.6l46.7,37.7l29.6-28.8&#10;&#9;&#9;C181.7,299.5,206.8,221.2,196.9,207.6z" style="fill: rgb(104, 225, 253);"/>
	<polygon class="st1_factory-worker-70" points="415.8,225.1 387.8,204.6 329.9,283.6 332.9,291.1 360.8,311.6 418.7,232.7 &#9;"/>
	<path class="st1_factory-worker-70" d="M360.8,312.3c-0.1,0-0.3,0-0.4-0.1l-28-20.5c-0.1-0.1-0.2-0.2-0.2-0.3l-2.9-7.5c-0.1-0.2,0-0.5,0.1-0.7&#10;&#9;&#9;l57.9-78.9c0.1-0.1,0.3-0.2,0.5-0.3c0.2,0,0.4,0,0.5,0.1l28,20.5c0.1,0.1,0.2,0.2,0.2,0.3l2.9,7.5c0.1,0.2,0,0.5-0.1,0.7L361.4,312&#10;&#9;&#9;c-0.1,0.1-0.3,0.2-0.5,0.3L360.8,312.3z M333.5,290.7l27.2,20l57.2-78.1l-2.7-7l-27.2-20l-57.2,78.1L333.5,290.7z"/>
	
		<rect x="323.9" y="237" transform="matrix(0.5912 -0.8065 0.8065 0.5912 -52.7042 404.7281)" class="st0_factory-worker-70" width="97.9" height="34.6"/>
	<path class="st1_factory-worker-70" d="M357.9,304.8c-0.1,0-0.3,0-0.4-0.1l-28-20.5c-0.3-0.2-0.4-0.7-0.2-1c0,0,0,0,0,0l57.9-78.9&#10;&#9;&#9;c0.1-0.1,0.3-0.2,0.5-0.3c0.2,0,0.4,0,0.5,0.1l28,20.5c0.3,0.2,0.4,0.7,0.2,1c0,0,0,0,0,0l-57.9,78.9&#10;&#9;&#9;C358.3,304.6,358.1,304.7,357.9,304.8L357.9,304.8z M330.9,283.4l26.8,19.7l57-77.8L388,205.6L330.9,283.4z"/>
	<circle class="st2_factory-worker-70 targetColor" cx="389.7" cy="231.4" r="11.1" style="fill: rgb(104, 225, 253);"/>
	<path class="st1_factory-worker-70" d="M389.7,243.2c-6.5,0-11.8-5.3-11.8-11.9c0-6.5,5.3-11.8,11.9-11.8c6.5,0,11.8,5.3,11.8,11.9&#10;&#9;&#9;c0,5.8-4.3,10.8-10,11.7C390.9,243.1,390.3,243.2,389.7,243.2z M389.7,220.9c-5.8,0-10.4,4.7-10.4,10.4s4.7,10.4,10.4,10.4&#10;&#9;&#9;c5.8,0,10.4-4.7,10.4-10.4c0-3.3-1.6-6.4-4.3-8.4C394.1,221.6,391.9,220.9,389.7,220.9L389.7,220.9z"/>
	<circle class="st3_factory-worker-70" cx="372.2" cy="255.3" r="11.1"/>
	<path class="st1_factory-worker-70" d="M372.1,267.1c-6.5,0-11.8-5.3-11.8-11.9s5.3-11.8,11.9-11.8c6.5,0,11.8,5.3,11.8,11.9c0,2.5-0.8,5-2.3,7&#10;&#9;&#9;C379.5,265.4,375.9,267.2,372.1,267.1z M372.1,244.9c-5.8,0-10.4,4.7-10.4,10.4s4.7,10.4,10.4,10.4c5.8,0,10.4-4.7,10.4-10.4&#10;&#9;&#9;c0-3.3-1.6-6.4-4.3-8.4C376.5,245.6,374.4,244.9,372.1,244.9L372.1,244.9z"/>
	
		<rect x="349.7" y="269" transform="matrix(0.5912 -0.8065 0.8065 0.5912 -80.3134 400.1784)" class="st0_factory-worker-70" width="9.8" height="20.6"/>
	<path class="st1_factory-worker-70" d="M360,290.1c-0.1,0-0.3,0-0.4-0.1l-16.7-12.2c-0.3-0.2-0.4-0.6-0.2-1c0,0,0,0,0,0l5.8-7.9&#10;&#9;&#9;c0.1-0.2,0.3-0.2,0.5-0.3c0.2,0,0.4,0,0.5,0.1l16.6,12.2c0.3,0.2,0.4,0.7,0.2,1c0,0,0,0,0,0l-5.8,7.9&#10;&#9;&#9;C360.4,289.9,360.3,290,360,290.1L360,290.1z M344.3,277l15.5,11.4l5-6.8l-15.5-11.4L344.3,277z"/>
	
		<rect x="344.9" y="271.4" transform="matrix(0.5912 -0.8065 0.8065 0.5912 -79.2294 394.5663)" class="st1_factory-worker-70" width="9.5" height="8"/>
	<path class="st1_factory-worker-70" d="M350,282.3c-0.1,0-0.3,0-0.4-0.1l-6.5-4.7c-0.3-0.2-0.4-0.7-0.2-1c0,0,0,0,0,0l5.6-7.6&#10;&#9;&#9;c0.1-0.2,0.3-0.2,0.5-0.3c0.2,0,0.4,0,0.5,0.1l6.5,4.7c0.1,0.1,0.2,0.3,0.3,0.5c0,0.2,0,0.4-0.1,0.5l-5.6,7.6&#10;&#9;&#9;C350.4,282.1,350.3,282.2,350,282.3L350,282.3z M344.5,276.7l5.3,3.9l4.8-6.5l-5.3-3.9L344.5,276.7z"/>
	<path class="st0_factory-worker-70" d="M374.3,294.3l5.2-6.9c0,0-2.1-21.2-0.2-26.3c0.4-1,1.4-2.2,2.4-1.7c0.4,0.3,0.7,0.6,0.9,1.1&#10;&#9;&#9;c1.2,2.6,1.9,5.5,2,8.4c-0.3-5.1,0-10.2,0.7-15.2c0.1-0.9,0.4-1.8,1.2-2.2c1.3-0.6,2.5,1.1,2.9,2.5c0.5,1.9,0.9,3.9,1.1,5.9&#10;&#9;&#9;c-0.6-3.6-0.4-7.3,0.5-10.8c1.1-4.3,3.8-4,4.4,0.4l0.8,7.3c0-3.7,0.6-7.3,0.5-11c-0.1-3.1,0.6-5.3,3.2-7.5c0.4-0.4,1-0.7,1.5-0.7&#10;&#9;&#9;c0.9,0,1.6,0.9,2,1.7c0.6,1.7,0.8,3.4,0.7,5.2c0.1,11,1.3,22.2-2.5,32.5c-3.6,10-10.1,14.3-15.8,16.2"/>
	<path class="st1_factory-worker-70" d="M374.3,295c-0.2,0-0.3,0-0.4-0.1c-0.3-0.2-0.4-0.7-0.2-1c0,0,0,0,0,0l5-6.7c-0.2-2.6-2-21.4-0.1-26.3&#10;&#9;&#9;c0.3-0.9,1-1.7,1.9-2.1c0.5-0.2,1-0.2,1.5,0c0.6,0.3,1,0.8,1.2,1.4c0.2,0.4,0.4,0.9,0.6,1.4c0.1-2.7,0.4-5.3,0.8-8&#10;&#9;&#9;c0.1-0.6,0.3-2.2,1.6-2.7c0.5-0.3,1.2-0.3,1.7,0c0.7,0.4,1.3,1.1,1.7,1.8c0.1-1.3,0.4-2.5,0.7-3.8c0.6-2.3,1.8-3.7,3.1-3.6&#10;&#9;&#9;s2.2,1.4,2.6,3.6c0.1-1,0.1-2,0.1-3.1c-0.1-3,0.5-5.6,3.4-8c0.5-0.5,1.3-0.8,2-0.9c1.2,0.1,2.3,0.9,2.6,2.1&#10;&#9;&#9;c0.6,1.8,0.9,3.6,0.8,5.5c0,1.9,0.1,3.8,0.1,5.8c0.2,9,0.5,18.3-2.6,26.9c-3,8.4-8.6,14.1-16.3,16.6c-0.4,0.1-0.8-0.1-0.9-0.5&#10;&#9;&#9;c-0.1-0.4,0.1-0.8,0.5-0.9c7.3-2.4,12.5-7.7,15.4-15.8c3-8.4,2.8-17.5,2.5-26.4c-0.1-1.9-0.1-3.9-0.1-5.8c0.1-1.7-0.1-3.4-0.7-5&#10;&#9;&#9;c-0.2-0.6-0.7-1.3-1.3-1.3l0,0c-0.4,0.1-0.8,0.3-1.1,0.6c-2.2,1.9-3,3.7-2.9,6.9c0,2-0.1,4.1-0.3,6.1c-0.1,1.6-0.2,3.3-0.3,4.9&#10;&#9;&#9;c0,0.4-0.3,0.7-0.7,0.7c-0.4,0-0.7-0.3-0.7-0.6l-0.8-7.3c-0.2-2.1-0.9-2.9-1.3-2.9s-1.1,0.6-1.6,2.5c-0.7,2.9-1,5.8-0.7,8.7&#10;&#9;&#9;c0.1,0.6,0.2,1.2,0.2,1.9c0,0.4-0.2,0.7-0.6,0.8c-0.4,0-0.7-0.2-0.8-0.6c-0.1-0.6-0.2-1.2-0.2-1.9c-0.2-1.3-0.5-2.7-0.8-4&#10;&#9;&#9;c-0.2-0.8-0.7-1.6-1.4-2.1c-0.2-0.1-0.4-0.1-0.5,0c-0.5,0.2-0.6,1-0.7,1.6c-0.7,4.6-0.9,9.3-0.8,14c0,0.4,0,0.7,0,1&#10;&#9;&#9;c0,0.4-0.3,0.7-0.7,0.7c-0.4,0-0.7-0.3-0.7-0.7c0-0.4,0-0.7,0-1c-0.2-2.4-0.8-4.8-1.9-6.9c-0.1-0.3-0.3-0.6-0.5-0.8&#10;&#9;&#9;c-0.1-0.1-0.2-0.1-0.4,0c-0.5,0.3-0.9,0.8-1.1,1.3c-1.9,4.9,0.2,25.8,0.2,26c0,0.2,0,0.3-0.1,0.5l-5.2,6.9&#10;&#9;&#9;C374.8,294.9,374.5,295,374.3,295z"/>
	<path class="st1_factory-worker-70" d="M181.6,316L181.6,316c-0.4,0-0.7-0.3-0.7-0.7c0,0,0,0,0,0l2.9-71.6c0-0.4,0.3-0.7,0.7-0.7&#10;&#9;&#9;c0.4,0,0.7,0.3,0.7,0.7c0,0,0,0,0,0l-2.9,71.6C182.3,315.7,182,316,181.6,316C181.6,316,181.6,316,181.6,316z"/>
	<path class="st1_factory-worker-70" d="M320.5,331.5c-0.4,0-0.7-0.3-0.7-0.7c0-0.9-2.4-79-2.5-82.3c0-0.4,0.3-0.7,0.7-0.7c0,0,0,0,0,0&#10;&#9;&#9;c0.4,0,0.7,0.3,0.7,0.7c0,0.8,2.4,81.3,2.5,82.3C321.2,331.2,320.9,331.5,320.5,331.5C320.5,331.5,320.5,331.5,320.5,331.5&#10;&#9;&#9;L320.5,331.5z"/>
	<path class="st1_factory-worker-70" d="M346,339.1c-0.4,0-0.7-0.3-0.7-0.7c0-0.1,0-0.2,0.1-0.3L357,315c0.2-0.3,0.6-0.5,0.9-0.3s0.5,0.6,0.3,0.9&#10;&#9;&#9;l-11.6,23.1C346.5,339,346.2,339.1,346,339.1z"/>
	<path class="st1_factory-worker-70" d="M319.4,268.6c-0.4,0-0.7-0.3-0.7-0.7c0-0.3,0.2-0.5,0.4-0.6c1.1-1,6-11.4,10.2-20.9c0.1-0.4,0.6-0.5,0.9-0.4&#10;&#9;&#9;c0,0,0,0,0,0c0.4,0.2,0.5,0.6,0.4,0.9c0,0,0,0,0,0c-6.2,14.1-9.9,21.3-11,21.7L319.4,268.6z"/>
	<path class="st1_factory-worker-70" d="M181.6,284.5c-0.4,0-0.7-0.3-0.7-0.6l-3.7-33.4c0-0.4,0.2-0.7,0.6-0.8c0.4,0,0.7,0.2,0.8,0.6c0,0,0,0,0,0&#10;&#9;&#9;l3.7,33.4C182.3,284.1,182,284.4,181.6,284.5L181.6,284.5z"/>
	<polygon class="st1_factory-worker-70" points="343.8,296.3 335.8,306.2 340.7,311 348.5,300.8 &#9;"/>
	<path class="st1_factory-worker-70" d="M340.7,311.7c-0.2,0-0.3-0.1-0.5-0.2l-5-4.8c-0.3-0.3-0.3-0.7,0-0.9l8-9.9c0.1-0.2,0.3-0.2,0.5-0.3&#10;&#9;&#9;c0.2,0,0.4,0.1,0.5,0.2l4.7,4.5c0.3,0.2,0.3,0.6,0.1,0.9l-7.8,10.2C341.1,311.6,340.9,311.7,340.7,311.7L340.7,311.7z M336.7,306.1&#10;&#9;&#9;l3.9,3.8l7-9.1l-3.7-3.6L336.7,306.1z"/>
	<path class="st1_factory-worker-70" d="M357.3,421.3c-1.2,0-2.1-0.9-2.1-2.1c0-0.7,0.4-1.4,1-1.8c0.7-0.4,16.1-10.8,13.9-33.5&#10;&#9;&#9;c-1.1-11.6-11.2-19.5-20.9-27.1c-9.9-7.8-19.3-15.1-19.2-26c0.1-18.4,10.4-28.3,10.8-28.7c0.8-0.8,2.2-0.8,3,0.1s0.8,2.2-0.1,3l0,0&#10;&#9;&#9;c-0.1,0.1-9.4,9.1-9.5,25.6c0,8.9,8.5,15.6,17.6,22.7c10,7.8,21.2,16.6,22.5,30c2.5,25.3-15.1,37-15.8,37.4&#10;&#9;&#9;C358.1,421.2,357.7,421.3,357.3,421.3z"/>
	<path class="st3_factory-worker-70" d="M209.5,166.3c-0.4,0-0.7-0.3-0.7-0.6l-3.3-30.9c0-0.4,0.3-0.7,0.7-0.7c0.4,0,0.7,0.2,0.7,0.6l3.3,30.9&#10;&#9;&#9;C210.3,165.9,210,166.2,209.5,166.3L209.5,166.3z"/>
	<path class="st3_factory-worker-70" d="M294.7,165.2L294.7,165.2c-0.5,0-0.7-0.4-0.7-0.8l3.3-31.1c0.1-0.4,0.4-0.6,0.8-0.6c0.4,0.1,0.6,0.4,0.6,0.7&#10;&#9;&#9;l-3.3,31.1C295.4,165,295.1,165.2,294.7,165.2z"/>
</g>
<path id="Eyeglass_factory-worker-70" class="st1_factory-worker-70" d="M239.5,164.1h-11.8c-5.8,0-10.7-4.5-11.2-10.3l-1.1-13.6c0-0.4,0.3-0.7,0.6-0.8c0,0,0,0,0.1,0&#10;&#9;h72.7c0.4,0,0.7,0.3,0.7,0.7c0,0,0,0.1,0,0.1l-2.7,13.9c-1,5.3-5.6,9.1-11,9.1h-9.8c-3.6,0-6.9-1.7-9.1-4.6l-3.8-5.1l-4.7,6.1&#10;&#9;C246.3,162.5,243,164.1,239.5,164.1z M216.8,140.9l1.1,12.8c0.5,5.1,4.7,9,9.8,9h11.9c3.1,0,5.9-1.4,7.8-3.8l5.2-6.8&#10;&#9;c0.1-0.2,0.3-0.3,0.6-0.3c0.2,0,0.4,0.1,0.6,0.3l4.3,5.8c1.9,2.5,4.8,4,7.9,4h9.8c4.7,0,8.8-3.4,9.7-8l2.5-13.1L216.8,140.9z"/>
<g id="Helmet_factory-worker-70">
	<path class="st0_factory-worker-70" d="M294.7,125c0,4.3-18.8,10.9-42,10.9s-42-6.5-42-10.9c27.7-5.1,56.2-5.1,83.9,0H294.7z"/>
	<path class="st1_factory-worker-70" d="M252.8,136.5c-23,0-42.7-6.4-42.7-11.6c0-0.3,0.2-0.6,0.6-0.7c27.8-5.1,56.4-5.1,84.2,0&#10;&#9;&#9;c0.3,0.1,0.6,0.4,0.6,0.7C295.4,130.2,275.7,136.5,252.8,136.5z M211.7,125.5c1.6,3.6,18.5,9.6,41.1,9.6s39.5-6,41.1-9.6&#10;&#9;&#9;C266.7,120.6,238.8,120.6,211.7,125.5L211.7,125.5z"/>
	<path class="st0_factory-worker-70" d="M240.8,80.3h24c16.6,0,30,13.4,30,30V125l0,0h-83.9l0,0v-14.7C210.9,93.8,224.3,80.4,240.8,80.3z"/>
	<path class="st1_factory-worker-70" d="M294.7,125.7h-83.9c-0.4,0-0.7-0.3-0.7-0.7v-2.7c0-23.6,19.1-42.7,42.7-42.7s42.6,19.1,42.6,42.7v2.8&#10;&#9;&#9;C295.4,125.4,295.1,125.7,294.7,125.7z M211.5,124.3H294v-2c0-22.8-18.5-41.2-41.2-41.2s-41.2,18.5-41.2,41.2L211.5,124.3z"/>
	<path class="st0_factory-worker-70" d="M247.5,76.9H258c2.5,0,4.6,2.1,4.6,4.6c0,0,0,0,0,0V125l0,0h-19.7l0,0V81.5C242.9,78.9,245,76.9,247.5,76.9&#10;&#9;&#9;L247.5,76.9z"/>
	<path class="st1_factory-worker-70" d="M262.6,125.7h-19.7c-0.4,0-0.7-0.3-0.7-0.7V83.3c0-3.9,3.2-7.1,7.1-7.2h6.8c3.9,0,7.1,3.2,7.1,7.2V125&#10;&#9;&#9;C263.3,125.4,263,125.7,262.6,125.7z M243.6,124.3h18.3V83.3c0-3.2-2.6-5.7-5.8-5.8h-6.8c-3.2,0-5.7,2.6-5.7,5.8L243.6,124.3z"/>
</g>
</svg>