<svg id="_0360_financial_analyst" data-name="0360_financial_analyst" xmlns="http://www.w3.org/2000/svg" viewBox="0 0 500 500" data-imageid="financial-analyst-76" imageName="Financial Analyst" class="illustrations_image" style="width: 149px;"><defs><style>.cls-1_financial-analyst-76{fill:#fff;}.cls-2_financial-analyst-76{fill:#231f20;}.cls-3_financial-analyst-76{fill:#d1d3d4;}.cls-4_financial-analyst-76{fill:#68e1fd;}</style></defs><g id="Pie_Chart_financial-analyst-76" data-name="Pie Chart"><rect class="cls-1_financial-analyst-76" x="51.54" y="289.9" width="158.88" height="88.67"/><path class="cls-2_financial-analyst-76" d="M210.42,379.29H51.54a.73.73,0,0,1-.72-.72V289.9a.72.72,0,0,1,.72-.72H210.42a.72.72,0,0,1,.72.72v88.67A.72.72,0,0,1,210.42,379.29ZM52.27,377.84H209.7V290.62H52.27Z"/><path class="cls-3_financial-analyst-76" d="M100.17,367.9a31.52,31.52,0,1,1,31.51-31.52A31.56,31.56,0,0,1,100.17,367.9Zm0-61.63a30.12,30.12,0,1,0,30.11,30.11A30.15,30.15,0,0,0,100.17,306.27Z"/><path class="cls-3_financial-analyst-76" d="M120.05,360.62a.69.69,0,0,1-.54-.25L99.63,336.83a.71.71,0,0,1-.16-.45V305.57a.7.7,0,0,1,1.4,0v30.56l19.71,23.34a.71.71,0,0,1-.08,1A.69.69,0,0,1,120.05,360.62Z"/><path class="cls-3_financial-analyst-76" d="M199.56,315.16h-54.4a.7.7,0,1,1,0-1.4h54.4a.7.7,0,1,1,0,1.4Z"/><path class="cls-3_financial-analyst-76" d="M199.56,328.56h-54.4a.7.7,0,0,1,0-1.4h54.4a.7.7,0,0,1,0,1.4Z"/><path class="cls-3_financial-analyst-76" d="M199.56,342h-54.4a.7.7,0,0,1,0-1.4h54.4a.7.7,0,0,1,0,1.4Z"/><path class="cls-3_financial-analyst-76" d="M172.36,355.36h-27.2a.7.7,0,0,1,0-1.4h27.2a.7.7,0,1,1,0,1.4Z"/></g><g id="Line_Chart_financial-analyst-76" data-name="Line Chart"><rect class="cls-1_financial-analyst-76" x="32.46" y="87.02" width="177.57" height="166.08"/><path class="cls-2_financial-analyst-76" d="M210,253.82H32.46a.72.72,0,0,1-.72-.72V87a.72.72,0,0,1,.72-.72H210a.72.72,0,0,1,.72.72V253.1A.72.72,0,0,1,210,253.82ZM33.18,252.38H209.3V87.74H33.18Z"/><path class="cls-3_financial-analyst-76" d="M196.41,241.1H46.08a.7.7,0,0,1-.7-.7V110a.7.7,0,0,1,1.4,0V239.7H196.41a.7.7,0,0,1,0,1.4Z"/><path class="cls-3_financial-analyst-76" d="M46.08,241.1a.72.72,0,0,1-.4-.12.71.71,0,0,1-.18-1l52-74.36a.7.7,0,0,1,.85-.25l44,18.42L185,126a.7.7,0,0,1,1-.14.68.68,0,0,1,.15,1l-43,58.22a.69.69,0,0,1-.83.23l-44-18.41L46.65,240.8A.69.69,0,0,1,46.08,241.1Z"/><path class="cls-3_financial-analyst-76" d="M187.9,138.9a.7.7,0,0,1-.68-.56L185,127.24l-10.61,1.61a.7.7,0,0,1-.21-1.38l11.27-1.71a.69.69,0,0,1,.79.55l2.39,11.75a.7.7,0,0,1-.54.82Z"/><path class="cls-3_financial-analyst-76" d="M111.4,146.09H82.62a.7.7,0,0,1,0-1.4H111.4a.7.7,0,1,1,0,1.4Z"/><path class="cls-3_financial-analyst-76" d="M111.4,135.87H82.62a.7.7,0,0,1,0-1.4H111.4a.7.7,0,0,1,0,1.4Z"/><path class="cls-3_financial-analyst-76" d="M182.92,203.66H154.14a.7.7,0,0,1,0-1.4h28.78a.7.7,0,1,1,0,1.4Z"/><path class="cls-3_financial-analyst-76" d="M182.92,193.44H154.14a.7.7,0,0,1,0-1.4h28.78a.7.7,0,0,1,0,1.4Z"/><rect class="cls-3_financial-analyst-76" x="69.35" y="97.48" width="103.78" height="4.78"/></g><g id="Character_financial-analyst-76"><path class="cls-1_financial-analyst-76" d="M419.53,253.17l7.81-22.34s-4.83-11.41-3.9-17.8,3.9-17.93,6.51-16.81,1.12,6.33,3,14.89c0,0,14.88-27.17,19-26.43s3.35,3.89,2.23,5.85c0,0,4.47-3.8,6-1.19a5.62,5.62,0,0,1,0,5.21s3.16-3.54,4.28-1.12-.93,5.4-.93,5.4,3.72-3.54,4.09-.38-28.47,65.14-28.47,65.14"/><path class="cls-2_financial-analyst-76" d="M439.07,264.31a.67.67,0,0,1-.31-.07.72.72,0,0,1-.35-1c11.45-24.58,28.45-62.11,28.41-64.76,0-.35-.14-.6-.26-.64-.46-.17-1.74.64-2.62,1.47a.72.72,0,0,1-1.09-.93s1.8-2.68.87-4.69c-.18-.38-.36-.41-.43-.42-.65-.09-2,1-2.66,1.72a.72.72,0,0,1-1,.1.71.71,0,0,1-.2-.94,4.82,4.82,0,0,0,0-4.5,1,1,0,0,0-.72-.52c-1.12-.19-3.14,1.07-4.14,1.91a.72.72,0,0,1-1.1-.9c.36-.64,1.15-2.25.6-3.41a3,3,0,0,0-2.33-1.38h-.1c-2.37,0-11.18,13.41-18.12,26.08a.73.73,0,0,1-1.34-.2,58,58,0,0,1-1.14-9c-.2-3.19-.36-4.88-1.42-5.33,0,0-.09,0-.24,0-1.81,1-4.28,9.39-5.27,16.21-.89,6.11,3.81,17.3,3.86,17.41a.78.78,0,0,1,0,.52l-7.82,22.33a.72.72,0,0,1-.92.45.71.71,0,0,1-.44-.92l7.72-22.07c-.73-1.79-4.73-11.88-3.85-17.93.72-4.94,3.13-15.66,6-17.26a1.64,1.64,0,0,1,1.52-.11c1.93.82,2.07,3.11,2.29,6.57a64.66,64.66,0,0,0,.74,6.89c4.38-7.86,14.82-25.76,18.78-25.05a4.26,4.26,0,0,1,3.38,2.19,3.86,3.86,0,0,1,.23,2.45,5.46,5.46,0,0,1,3.35-.87,2.42,2.42,0,0,1,1.72,1.24,5.71,5.71,0,0,1,.73,3.47,3.22,3.22,0,0,1,2.06-.57,2,2,0,0,1,1.52,1.25,5.19,5.19,0,0,1,.15,3.61,2.5,2.5,0,0,1,1.87-.22,2,2,0,0,1,1.21,1.85c.37,3.2-23.71,55.14-28.54,65.52A.72.72,0,0,1,439.07,264.31Z"/><path class="cls-2_financial-analyst-76" d="M275.64,340.21S256.24,398,254.41,413H385.93s-11.65-51.45-18.28-70.32Z"/><path class="cls-2_financial-analyst-76" d="M385.93,413.7H254.41a.72.72,0,0,1-.52-.23.69.69,0,0,1-.17-.55c1.81-14.87,20.46-70.57,21.25-72.93a.72.72,0,0,1,.66-.48h0l92,2.47a.7.7,0,0,1,.64.46c6.56,18.7,18.19,69.9,18.3,70.41a.69.69,0,0,1-.13.59A.72.72,0,0,1,385.93,413.7Zm-130.72-1.39H385.06c-1.54-6.73-11.82-51.33-17.91-68.95l-91-2.44C274.28,346.47,257.42,397.24,255.21,412.31Z"/><path class="cls-1_financial-analyst-76" d="M165.21,284.4s-10.89-15.81-17.79-23.12S116.63,214.3,122,210c1.22-1,3.73,2.52,4.22,3,2.12,2.26,6.41,7.91,8.43,10.24,1.08,1.25-1.52,3.51-.44,4.76.81.93,1.87,1.48,2.64,2.41a22.16,22.16,0,0,0,6.28,4.68l8,4.58a84.25,84.25,0,0,1-2.6-15.53,10.16,10.16,0,0,1,.28-4,3.79,3.79,0,0,1,2.81-2.65A3.86,3.86,0,0,1,155,219a11.8,11.8,0,0,1,1.75,3.47c3.82,10,9.13,19.19,13.33,28.93,3.31,7.69,6.47,15.93,11.33,22.8Z"/><path class="cls-2_financial-analyst-76" d="M165.21,285.12a.72.72,0,0,1-.59-.31c-.11-.16-10.94-15.85-17.72-23-6.59-7-27-40.61-26.36-50a3.14,3.14,0,0,1,1-2.38c1.59-1.27,3.73,1.33,4.88,2.73.14.17.25.31.32.38,1.27,1.35,3.23,3.81,5.13,6.18,1.28,1.61,2.5,3.13,3.32,4.08s.31,2.17-.11,3.14c-.33.78-.56,1.35-.33,1.61a8.51,8.51,0,0,0,1.21,1.1,9.39,9.39,0,0,1,1.44,1.33,21.43,21.43,0,0,0,6.08,4.52L150,238.2a86.32,86.32,0,0,1-2.19-14,11.09,11.09,0,0,1,.31-4.32,4.12,4.12,0,0,1,7.45-1.35,12.12,12.12,0,0,1,1.84,3.57c2.23,5.84,5,11.42,7.62,16.82,1.94,4,4,8.06,5.73,12.19.49,1.13,1,2.27,1.46,3.42,2.8,6.61,5.7,13.45,9.8,19.24a.69.69,0,0,1,.12.56.77.77,0,0,1-.32.47L165.6,285A.7.7,0,0,1,165.21,285.12Zm-42.65-74.61h-.08a1.85,1.85,0,0,0-.5,1.36c-.61,8.85,19.66,42.21,26,48.9,6.11,6.49,15.44,19.74,17.46,22.64l15-9.45c-4-5.78-6.79-12.44-9.52-18.88-.48-1.15-1-2.29-1.45-3.42-1.77-4.1-3.77-8.18-5.71-12.12-2.66-5.43-5.41-11.05-7.63-16.85a11.58,11.58,0,0,0-1.64-3.26,3.15,3.15,0,0,0-2.74-1.28,3.07,3.07,0,0,0-2.23,2.18,9.64,9.64,0,0,0-.24,3.74,83.64,83.64,0,0,0,2.57,15.41.7.7,0,0,1-.25.75.73.73,0,0,1-.8.06l-8-4.58a22.86,22.86,0,0,1-6.49-4.85,7.73,7.73,0,0,0-1.22-1.12,9.83,9.83,0,0,1-1.41-1.28c-.83-1-.31-2.17.11-3.14.34-.78.56-1.36.34-1.61-.84-1-2.07-2.51-3.36-4.12-1.79-2.25-3.83-4.8-5-6.1-.09-.09-.22-.25-.39-.45C123.47,210.76,122.77,210.51,122.56,210.51Z"/><polygon class="cls-2_financial-analyst-76" points="154.79 255.96 159.78 252.75 100.57 163.96 98.42 165.35 154.79 255.96"/><path class="cls-2_financial-analyst-76" d="M154.79,256.66l-.15,0a.67.67,0,0,1-.44-.31L97.82,165.72a.71.71,0,0,1,.22-1l2.15-1.38a.69.69,0,0,1,1,.2l59.21,88.78a.71.71,0,0,1,.1.53.77.77,0,0,1-.3.45l-5,3.21A.76.76,0,0,1,154.79,256.66Zm-55.42-91.1L155,255l3.8-2.44-58.44-87.63Z"/><path class="cls-1_financial-analyst-76" d="M150.37,254.37c-2.47-1.5-3.5-4.69-3.2-7.56s1.7-5.5,3.14-8,3-5,3.66-7.82c.3-1.26.28-2.86-.84-3.51-1-.57-2.22-.07-3.14.58-3.73,2.63-5.38,7.28-6.64,11.67l2.11-7.8a20.26,20.26,0,0,0,1-6.2,6.9,6.9,0,0,0-2.7-5.45,2.15,2.15,0,0,0-1.36-.44c-.84.09-1.38.91-1.76,1.67a29.38,29.38,0,0,0-3.11,11.43l-.19-12.56a7.68,7.68,0,0,0-.54-3.34,2.66,2.66,0,0,0-2.75-1.58c-1.35.3-2,1.87-2.24,3.22a36.74,36.74,0,0,0-.83,6.85"/><path class="cls-2_financial-analyst-76" d="M150.37,255.09a.69.69,0,0,1-.37-.1c-2.52-1.53-3.91-4.77-3.54-8.26.31-3,1.77-5.76,3.23-8.28l.37-.64a26.45,26.45,0,0,0,3.21-7c.25-1,.24-2.28-.5-2.72s-2,.3-2.36.55c-3.61,2.54-5.18,7.15-6.36,11.28a.72.72,0,0,1-.89.49.71.71,0,0,1-.5-.88l2.1-7.79a19.52,19.52,0,0,0,1-6,6.15,6.15,0,0,0-2.38-4.88,1.36,1.36,0,0,0-.89-.32c-.39,0-.77.46-1.19,1.27a28.91,28.91,0,0,0-3,11.15.72.72,0,0,1-.73.68.73.73,0,0,1-.71-.71l-.19-12.56a7.05,7.05,0,0,0-.47-3,2,2,0,0,0-1.94-1.19c-.78.17-1.35,1.07-1.7,2.66a35.34,35.34,0,0,0-.8,6.71.74.74,0,0,1-.74.71.73.73,0,0,1-.71-.74,37.29,37.29,0,0,1,.84-7c.48-2.2,1.42-3.47,2.79-3.78a3.39,3.39,0,0,1,3.55,2,8.29,8.29,0,0,1,.63,3.65l.08,5.34a30.26,30.26,0,0,1,1.84-4.53,3.27,3.27,0,0,1,2.33-2.06,2.84,2.84,0,0,1,1.84.56,7.58,7.58,0,0,1,3,6,16.58,16.58,0,0,1-.58,4.73,12.88,12.88,0,0,1,3-3c1.43-1,2.86-1.23,3.91-.62,1.22.71,1.66,2.32,1.19,4.31a28,28,0,0,1-3.37,7.37l-.37.64c-1.38,2.39-2.76,5-3.05,7.71-.25,2.41.53,5.47,2.86,6.87a.72.72,0,0,1-.38,1.34Z"/><path class="cls-4_financial-analyst-76 targetColor" d="M379.54,212.35S390.7,223,393.68,227.48s5.72,58.81,5.72,58.81l16.9-40.94,28.39,11.07s-17.35,88.49-35.58,90.35-53.62-32.59-53.62-32.59Z" style="fill: rgb(104, 225, 253);"/><path class="cls-4_financial-analyst-76 targetColor" d="M296.69,203.44S264,209.87,256,219.79s16.21,99.93,16.67,124.75c0,0,56.43,9.86,94.95-1.86,0,0,13.38-47.46,16.86-74.75s-1-51.11-5-55.58-19.22-7.4-19.22-7.4S304.14,205,296.69,203.44Z" style="fill: rgb(104, 225, 253);"/><path class="cls-1_financial-analyst-76" d="M386.93,202.71a46.45,46.45,0,0,0,1.12-9.69,15.12,15.12,0,0,0-.88-5.71c-2.4-6-10.42-8.68-11.72-15-1.1-5.31.89-10-.5-15.1-1.32-4.88-2.76-7.21-2.23-13.09a63.55,63.55,0,0,0-4.93-30.5c-3.85-9-9.29-13.18-15.88-20a15.09,15.09,0,0,0-5.47-3.42C329,83.32,309.87,88.77,301.08,106c-4.9,9.59-7,20.5-12.72,29.65-4,6.44-9.77,12.12-11.28,19.55-1.34,6.56,1.09,12.8-.43,19.44a18.93,18.93,0,0,1-2.52,6.25,28.19,28.19,0,0,1-4.84,5.11c-4,3.58-7.9,7.34-10.79,11.86a28.63,28.63,0,0,0-2.47,4.84Z"/><path class="cls-2_financial-analyst-76" d="M386.93,203.43H256a.72.72,0,0,1-.6-.32.7.7,0,0,1-.07-.67,29.36,29.36,0,0,1,2.54-5c3-4.74,7.22-8.69,10.91-12l.22-.2a26.7,26.7,0,0,0,4.5-4.77,17.85,17.85,0,0,0,2.41-6,31.74,31.74,0,0,0,.25-9.76,34.41,34.41,0,0,1,.18-9.65c1.1-5.38,4.37-9.88,7.54-14.24,1.31-1.8,2.67-3.66,3.84-5.55,3.16-5.09,5.26-10.87,7.29-16.46a117,117,0,0,1,5.39-13.14c8.6-16.85,27.62-23.5,46.27-16.17a15.79,15.79,0,0,1,5.73,3.6c1.28,1.32,2.5,2.54,3.68,3.71,4.93,4.89,9.19,9.11,12.35,16.53a64.52,64.52,0,0,1,5,30.85,21.33,21.33,0,0,0,1.29,9.75c.3.94.61,1.94.92,3.08a23.13,23.13,0,0,1,.35,8,25.41,25.41,0,0,0,.15,7.11c.65,3.15,3.14,5.36,5.77,7.71,2.33,2.08,4.75,4.23,5.92,7.15a16,16,0,0,1,.93,6,46,46,0,0,1-1.14,9.84A.71.71,0,0,1,386.93,203.43ZM257.11,202H386.34a45.12,45.12,0,0,0,1-9,14.67,14.67,0,0,0-.83-5.44c-1.05-2.61-3.33-4.64-5.54-6.61-2.69-2.4-5.47-4.88-6.22-8.5a26.11,26.11,0,0,1-.18-7.51,21.55,21.55,0,0,0-.3-7.55c-.31-1.12-.61-2.1-.9-3A22.63,22.63,0,0,1,372,144.07a63.07,63.07,0,0,0-4.87-30.16c-3.05-7.15-7-11.09-12-16.06-1.19-1.18-2.43-2.41-3.71-3.73a14.24,14.24,0,0,0-5.21-3.26c-17.94-7-36.22-.69-44.46,15.48a113.93,113.93,0,0,0-5.32,13C294.34,125,292.21,130.82,289,136c-1.2,1.94-2.57,3.82-3.9,5.65-3.22,4.42-6.26,8.59-7.29,13.66a33,33,0,0,0-.16,9.26,33.13,33.13,0,0,1-.28,10.2,19.23,19.23,0,0,1-2.62,6.49,27.63,27.63,0,0,1-4.73,5l-.23.21c-3.62,3.25-7.73,7.12-10.66,11.71A29,29,0,0,0,257.11,202Z"/><path class="cls-1_financial-analyst-76" d="M345.19,198.61s4.42,62.9-17.62,58.69c-29.3-6.24-16-50.42-16-50.42l.48-8.27,1.11-19.2,1.06-17.95,30.79-.34,1.18,14.66.37,4.75Z"/><path class="cls-2_financial-analyst-76" d="M329.63,258.22a12,12,0,0,1-2.2-.21c-6.78-1.45-11.88-5-15.16-10.56-8.78-14.84-1.94-38.83-1.39-40.7l2.65-45.33a.71.71,0,0,1,.71-.68L345,160.4h0a.73.73,0,0,1,.72.66l1.55,19.42-1.39,18.14c.17,2.51,3,45.84-9.58,57A9.89,9.89,0,0,1,329.63,258.22Zm-14.7-96.05-2.61,44.75a.51.51,0,0,1,0,.17c-.07.24-7.4,25.06,1.22,39.63a20.74,20.74,0,0,0,14.21,9.87,8.49,8.49,0,0,0,7.66-2.07c12.11-10.76,9.13-55.4,9.09-55.85v-.11l1.4-18.09-1.5-18.62Z"/><path class="cls-2_financial-analyst-76" d="M346.59,180.53c-2.28,4.32-6.09,7.72-10,10.28-6.58,4.28-15.88,8.09-23.93,6.77l.54-18.17a66.05,66.05,0,0,0,17.76-.06c5.19-.58,10.53-1.23,15.27-3.57Z"/><path class="cls-2_financial-analyst-76" d="M315.93,198.53a20.83,20.83,0,0,1-3.4-.26.7.7,0,0,1-.58-.71l.55-18.17a.67.67,0,0,1,.25-.52.68.68,0,0,1,.55-.15,64.44,64.44,0,0,0,17.57-.06c4.82-.54,10.28-1.15,15-3.51a.73.73,0,0,1,.66,0,.71.71,0,0,1,.35.55l.36,4.76a.73.73,0,0,1-.08.38c-2.05,3.89-5.5,7.44-10.24,10.53C329.91,196,322.3,198.53,315.93,198.53ZM313.36,197c6.53.85,15-1.65,22.84-6.75a28.17,28.17,0,0,0,9.68-9.85l-.27-3.54c-4.75,2.11-10,2.69-14.58,3.2a67.45,67.45,0,0,1-17.16.17Z"/><path class="cls-1_financial-analyst-76" d="M330.92,183.73l-3.16,0A27.08,27.08,0,0,1,300.4,157c-.09-8.54,2.34-24.82,2.34-24.82s12.5-4.49,22.3-8.2c16.46-6.22,20.89-15.11,20.89-15.11.31,4.59,2,13.08,3.87,17.29,1.76,4.05,7.34,11.29,7.34,11.29s.48,13.35.54,18.92A27,27,0,0,1,330.92,183.73Z"/><path class="cls-2_financial-analyst-76" d="M327.46,184.49A27.82,27.82,0,0,1,299.68,157c-.1-8.5,2.32-24.78,2.35-24.94a.72.72,0,0,1,.47-.57c.12-.05,12.6-4.53,22.29-8.19,16-6,20.45-14.68,20.49-14.76a.74.74,0,0,1,.79-.39.72.72,0,0,1,.58.66c.31,4.55,2,13,3.81,17.06,1.71,3.91,7.2,11.06,7.25,11.13a.63.63,0,0,1,.15.41c0,.14.49,13.42.55,18.94a27.83,27.83,0,0,1-27.48,28.1l-3.16,0ZM303.4,132.71c-.38,2.62-2.36,16.66-2.28,24.29a26.38,26.38,0,0,0,26.34,26.05h.3l3.15,0h0a26.37,26.37,0,0,0,26-26.63c0-5.1-.47-16.88-.53-18.67-.9-1.19-5.65-7.49-7.29-11.26S346,115.88,345.41,111c-2.2,3-7.88,9-20.11,13.65C316.59,128,305.63,131.9,303.4,132.71Z"/><path class="cls-2_financial-analyst-76" d="M327.62,156.33a32.61,32.61,0,0,1-3.48-.18,1.76,1.76,0,0,1-1.31-.86c-2-3.31,3.09-17.55,4.14-20.38a.72.72,0,1,1,1.35.51c-2.33,6.28-5.54,17-4.26,19.11a.3.3,0,0,0,.24.18,35.49,35.49,0,0,0,7.67-.08.72.72,0,1,1,.2,1.43A38.9,38.9,0,0,1,327.62,156.33Z"/><ellipse class="cls-2_financial-analyst-76" cx="341.41" cy="139.81" rx="1.86" ry="4.59" transform="translate(-1.52 3.78) rotate(-0.63)"/><ellipse class="cls-2_financial-analyst-76" cx="316.75" cy="139.22" rx="1.86" ry="4.59" transform="translate(-1.52 3.5) rotate(-0.63)"/><path class="cls-1_financial-analyst-76" d="M312.66,198.61c-5.84-3.13-15.07,1.56-16,4.83s2.73,54.81,16,62.75c5.75,3.45,16.07-8.89,16.07-8.89S314,250.81,312.66,198.61Z"/><path class="cls-2_financial-analyst-76" d="M314.92,267.51a5,5,0,0,1-2.63-.7c-13.3-8-17.36-59.66-16.3-63.56.47-1.72,2.75-3.67,5.8-5,4.08-1.75,8.27-1.86,11.21-.28a.73.73,0,0,1,.39.62c1.26,51.15,15.48,58,15.63,58a.7.7,0,0,1,.41.49.72.72,0,0,1-.15.63C328.9,258.21,321,267.51,314.92,267.51Zm-6.76-69.2a14.86,14.86,0,0,0-5.79,1.28c-2.59,1.11-4.64,2.77-5,4-.62,2.26,2.69,54.17,15.65,61.94,4,2.41,11.41-4.51,14.58-8.09-3.2-2.2-14.48-13.15-15.67-58.41A9,9,0,0,0,308.16,198.31Z"/><path class="cls-1_financial-analyst-76" d="M345.19,198.61c5.85-3.13,15.08,1.56,16,4.83s-2.73,54.81-16,62.75c-5.74,3.45-16.06-8.89-16.06-8.89S343.9,250.81,345.19,198.61Z"/><path class="cls-2_financial-analyst-76" d="M342.94,267.51c-6.13,0-14-9.3-14.36-9.75a.72.72,0,0,1-.15-.63.7.7,0,0,1,.41-.49c.14-.07,14.37-7.17,15.63-58a.72.72,0,0,1,.38-.62c2.94-1.58,7.13-1.47,11.21.28,3.06,1.31,5.34,3.27,5.81,5,1.06,3.9-3,55.59-16.3,63.56A5,5,0,0,1,342.94,267.51Zm-12.7-10c3.17,3.58,10.57,10.5,14.58,8.09,12.95-7.76,16.27-59.68,15.65-61.94-.35-1.27-2.39-2.93-5-4-3.5-1.51-7-1.69-9.58-.52C344.72,244.33,333.43,255.28,330.24,257.48Z"/><path class="cls-1_financial-analyst-76" d="M314.25,161.46l30.79-.34s-4.7,16.25-16.47,14.66S314.25,161.46,314.25,161.46Z"/><path class="cls-2_financial-analyst-76" d="M330.16,176.61a12.33,12.33,0,0,1-1.69-.12c-12.14-1.64-14.91-14.76-14.93-14.89a.76.76,0,0,1,.14-.6.74.74,0,0,1,.56-.26L345,160.4a.62.62,0,0,1,.58.28.73.73,0,0,1,.12.64C345.69,161.48,341.18,176.61,330.16,176.61Zm-15-14.44c.82,2.81,4.12,11.63,13.49,12.89s14.16-9.86,15.36-13.21Z"/><path class="cls-4_financial-analyst-76 targetColor" d="M256,219.79,216.32,284.4l-39-22.69-23.18,14.22s56.06,74.8,83.51,62.14c12.76-5.88,53.6-68.65,53.6-68.65Z" style="fill: rgb(104, 225, 253);"/><path class="cls-2_financial-analyst-76" d="M370,335l-.21,0a.73.73,0,0,1-.49-.9c.25-.82,24.44-82.29,13.27-111.81a.72.72,0,0,1,.42-.93.71.71,0,0,1,.93.42c4.77,12.61,4,35.42-2.32,67.82-4.69,24.06-10.85,44.71-10.91,44.92A.73.73,0,0,1,370,335Z"/><path class="cls-2_financial-analyst-76" d="M272.23,338.8a.73.73,0,0,1-.71-.63c-.1-.72-10-72.42-13.28-88.58a.72.72,0,1,1,1.41-.29C263,265.51,272.85,337.25,273,338a.71.71,0,0,1-.62.81Z"/><path class="cls-2_financial-analyst-76" d="M391.24,306.74a.66.66,0,0,1-.27-.06.72.72,0,0,1-.4-.94l23.37-56.57a.72.72,0,0,1,1.34.55l-23.37,56.57A.74.74,0,0,1,391.24,306.74Z"/><path class="cls-2_financial-analyst-76" d="M444.69,222.67a.71.71,0,0,1-.67-.45c-2.79-7-11.27-10.41-11.36-10.44a.73.73,0,0,1-.41-.94.72.72,0,0,1,.94-.4c.37.14,9.15,3.64,12.17,11.24a.72.72,0,0,1-.41.94A.58.58,0,0,1,444.69,222.67Z"/><path class="cls-2_financial-analyst-76" d="M444.69,207.55a.65.65,0,0,1-.36-.1.71.71,0,0,1-.27-1l9.46-16.3a.72.72,0,0,1,1.25.73l-9.46,16.29A.71.71,0,0,1,444.69,207.55Z"/><path class="cls-2_financial-analyst-76" d="M452.84,210a.71.71,0,0,1-.32-.07.72.72,0,0,1-.33-1l7.26-14.76a.72.72,0,0,1,1.29.63l-7.25,14.77A.73.73,0,0,1,452.84,210Z"/><path class="cls-2_financial-analyst-76" d="M456.47,215.37a.59.59,0,0,1-.29-.07.71.71,0,0,1-.37-1l7-15.81a.73.73,0,0,1,1.33.58l-7,15.82A.73.73,0,0,1,456.47,215.37Z"/></g></svg>